ReuvenSerif.sfdir
StartChar: exclam
Encoding: 1 33 103
Width: 635
Flags: W
LayerCount: 2
Fore
SplineSet
376 411 m 1,0,-1
 308 411 l 1,1,-1
 211 1300 l 1,2,3
 211 1353 211 1353 245.5 1380.5 c 128,-1,4
 280 1408 280 1408 342 1408 c 256,5,6
 404 1408 404 1408 438.5 1380.5 c 128,-1,7
 473 1353 473 1353 473 1300 c 1,8,-1
 376 411 l 1,0,-1
210 115 m 0,9,10
 210 169 210 169 247 209 c 128,-1,11
 284 249 284 249 342 249 c 256,12,13
 400 249 400 249 437.5 209 c 128,-1,14
 475 169 475 169 475 115 c 0,15,16
 475 62 475 62 437.5 22 c 128,-1,17
 400 -18 400 -18 342 -18 c 256,18,19
 284 -18 284 -18 247 22 c 128,-1,20
 210 62 210 62 210 115 c 0,9,10
EndSplineSet
Validated: 1
EndChar
StartChar: quotesingle
Encoding: 7 39 109
Width: 456
Flags: W
LayerCount: 2
Fore
SplineSet
256 877 m 1,0,-1
 199 877 l 1,1,-1
 120 1425 l 1,2,3
 120 1459 120 1459 151.5 1478 c 128,-1,4
 183 1497 183 1497 228 1497 c 0,5,6
 250 1497 250 1497 269.5 1492 c 128,-1,7
 289 1487 289 1487 304 1478 c 128,-1,8
 319 1469 319 1469 327.5 1455.5 c 128,-1,9
 336 1442 336 1442 336 1425 c 2,10,-1
 256 877 l 1,0,-1
EndSplineSet
Validated: 1
EndChar
StartChar: parenleft
Encoding: 8 40 110
Width: 726
Flags: W
LayerCount: 2
Fore
SplineSet
606 1451 m 1,0,1
 266 1180 266 1180 266 565 c 0,2,3
 266 -51 266 -51 606 -321 c 1,4,-1
 565 -362 l 1,5,6
 110 -22 110 -22 110 565 c 0,7,8
 110 1172 110 1172 565 1492 c 1,9,-1
 606 1451 l 1,0,1
EndSplineSet
Validated: 1
EndChar
StartChar: parenright
Encoding: 9 41 110
Width: 726
Flags: W
LayerCount: 2
Fore
SplineSet
161 1492 m 1,0,1
 616 1172 616 1172 616 565 c 0,2,3
 616 -22 616 -22 161 -362 c 1,4,-1
 120 -321 l 1,5,6
 460 -51 460 -51 460 565 c 0,7,8
 460 1180 460 1180 120 1451 c 1,9,-1
 161 1492 l 1,0,1
EndSplineSet
Validated: 1
EndChar
StartChar: asterisk
Encoding: 10 42 112
Width: 908
Flags: W
LayerCount: 2
Fore
SplineSet
558 1358 m 0,0,1
 553 1345 553 1345 542.5 1323.5 c 128,-1,2
 532 1302 532 1302 519 1274.5 c 128,-1,3
 506 1247 506 1247 492.5 1213 c 128,-1,4
 479 1179 479 1179 467 1142 c 1,5,6
 504 1154 504 1154 537.5 1168 c 128,-1,7
 571 1182 571 1182 598.5 1195.5 c 128,-1,8
 626 1209 626 1209 646.5 1220.5 c 128,-1,9
 667 1232 667 1232 679 1238 c 0,10,11
 699 1248 699 1248 725 1248 c 0,12,13
 745 1248 745 1248 765.5 1243 c 128,-1,14
 786 1238 786 1238 802 1229 c 128,-1,15
 818 1220 818 1220 828 1207 c 128,-1,16
 838 1194 838 1194 838 1178 c 256,17,18
 838 1162 838 1162 828 1147 c 128,-1,19
 818 1132 818 1132 802.5 1119 c 128,-1,20
 787 1106 787 1106 767 1096.5 c 128,-1,21
 747 1087 747 1087 726 1083 c 0,22,23
 716 1082 716 1082 706 1083 c 0,24,25
 692 1084 692 1084 668.5 1088 c 128,-1,26
 645 1092 645 1092 615 1095.5 c 128,-1,27
 585 1099 585 1099 549 1102 c 128,-1,28
 513 1105 513 1105 474 1105 c 1,29,30
 497 1073 497 1073 520.5 1046 c 128,-1,31
 544 1019 544 1019 564.5 997.5 c 128,-1,32
 585 976 585 976 601.5 960 c 128,-1,33
 618 944 618 944 628 935 c 0,34,35
 635 929 635 929 641 919 c 0,36,37
 650 901 650 901 654.5 881 c 128,-1,38
 659 861 659 861 659 842 c 0,39,40
 659 810 659 810 646 786.5 c 128,-1,41
 633 763 633 763 604 763 c 0,42,43
 590 763 590 763 574.5 769.5 c 128,-1,44
 559 776 559 776 545 786.5 c 128,-1,45
 531 797 531 797 518.5 811.5 c 128,-1,46
 506 826 506 826 497 842 c 0,47,48
 493 850 493 850 491 861 c 0,49,50
 488 874 488 874 483.5 897 c 128,-1,51
 479 920 479 920 473 949 c 128,-1,52
 467 978 467 978 458.5 1012.5 c 128,-1,53
 450 1047 450 1047 438 1084 c 1,54,55
 415 1052 415 1052 396.5 1021 c 128,-1,56
 378 990 378 990 363.5 963 c 128,-1,57
 349 936 349 936 339 915 c 128,-1,58
 329 894 329 894 324 882 c 0,59,60
 322 877 322 877 319.5 873 c 128,-1,61
 317 869 317 869 312 864 c 0,62,63
 291 843 291 843 262 830.5 c 128,-1,64
 233 818 233 818 207 818 c 0,65,66
 149 818 149 818 149 876 c 0,67,68
 149 902 149 902 161.5 930 c 128,-1,69
 174 958 174 958 194 979 c 0,70,71
 197 983 197 983 201 986 c 128,-1,72
 205 989 205 989 209 991 c 0,73,74
 235 1006 235 1006 290.5 1035 c 128,-1,75
 346 1064 346 1064 409 1112 c 1,76,77
 371 1124 371 1124 335.5 1131.5 c 128,-1,78
 300 1139 300 1139 270 1143.5 c 128,-1,79
 240 1148 240 1148 216.5 1151 c 128,-1,80
 193 1154 193 1154 180 1157 c 0,81,82
 175 1158 175 1158 171 1159 c 128,-1,83
 167 1160 167 1160 161 1163 c 0,84,85
 126 1180 126 1180 103 1211.5 c 128,-1,86
 80 1243 80 1243 80 1272 c 0,87,88
 80 1302 80 1302 104.5 1315 c 128,-1,89
 129 1328 129 1328 161 1328 c 0,90,91
 198 1328 198 1328 233 1312 c 0,92,93
 242 1308 242 1308 250 1300 c 0,94,95
 260 1289 260 1289 277 1272.5 c 128,-1,96
 294 1256 294 1256 317 1236 c 128,-1,97
 340 1216 340 1216 368 1193 c 128,-1,98
 396 1170 396 1170 429 1147 c 1,99,100
 429 1186 429 1186 425 1222.5 c 128,-1,101
 421 1259 421 1259 416.5 1289.5 c 128,-1,102
 412 1320 412 1320 407.5 1343.5 c 128,-1,103
 403 1367 403 1367 402 1381 c 0,104,105
 401 1391 401 1391 402 1401 c 0,106,107
 405 1422 405 1422 414 1442.5 c 128,-1,108
 423 1463 423 1463 435.5 1479 c 128,-1,109
 448 1495 448 1495 463.5 1505 c 128,-1,110
 479 1515 479 1515 494 1515 c 0,111,112
 513 1515 513 1515 527.5 1502 c 128,-1,113
 542 1489 542 1489 551 1468.5 c 128,-1,114
 560 1448 560 1448 563.5 1424 c 128,-1,115
 567 1400 567 1400 564 1378 c 0,116,117
 563 1367 563 1367 558 1358 c 0,0,1
EndSplineSet
Validated: 1
EndChar
StartChar: plus
Encoding: 11 43 113
Width: 1150
Flags: W
LayerCount: 2
Fore
SplineSet
1048 516 m 1,0,1
 1051 472 1051 472 1048 429 c 1,2,-1
 619 429 l 1,3,-1
 619 0 l 1,4,5
 575 -3 575 -3 532 0 c 1,6,-1
 532 429 l 1,7,-1
 102 429 l 1,8,9
 99 472 99 472 102 516 c 1,10,-1
 532 516 l 1,11,-1
 532 946 l 1,12,13
 575 949 575 949 619 946 c 1,14,-1
 619 516 l 1,15,-1
 1048 516 l 1,0,1
EndSplineSet
Validated: 33
EndChar
StartChar: comma
Encoding: 12 44 113
Width: 570
Flags: W
LayerCount: 2
Fore
SplineSet
315 39 m 1,0,1
 298 24 298 24 279.5 17 c 128,-1,2
 261 10 261 10 243 10 c 0,3,4
 221 10 221 10 201 19 c 128,-1,5
 181 28 181 28 166 44 c 128,-1,6
 151 60 151 60 142 81.5 c 128,-1,7
 133 103 133 103 133 129 c 0,8,9
 133 159 133 159 144 184 c 128,-1,10
 155 209 155 209 174.5 227.5 c 128,-1,11
 194 246 194 246 219 256 c 128,-1,12
 244 266 244 266 273 266 c 0,13,14
 316 266 316 266 348.5 247.5 c 128,-1,15
 381 229 381 229 403 198.5 c 128,-1,16
 425 168 425 168 436 127.5 c 128,-1,17
 447 87 447 87 447 43 c 0,18,19
 447 -18 447 -18 430 -78 c 128,-1,20
 413 -138 413 -138 378.5 -192.5 c 128,-1,21
 344 -247 344 -247 291.5 -293.5 c 128,-1,22
 239 -340 239 -340 168 -373 c 1,23,-1
 139 -319 l 1,24,25
 184 -295 184 -295 220.5 -264 c 128,-1,26
 257 -233 257 -233 282.5 -198.5 c 128,-1,27
 308 -164 308 -164 321.5 -126 c 128,-1,28
 335 -88 335 -88 335 -49 c 0,29,30
 335 -27 335 -27 331.5 -6 c 128,-1,31
 328 15 328 15 315 39 c 1,0,1
EndSplineSet
Validated: 1
EndChar
StartChar: period
Encoding: 14 46 115
Width: 570
Flags: W
LayerCount: 2
Fore
SplineSet
150 117 m 1,0,1
 150 171 150 171 187.5 211.5 c 128,-1,2
 225 252 225 252 283 252 c 0,3,4
 343 252 343 252 381 211.5 c 128,-1,5
 419 171 419 171 419 117 c 256,6,7
 419 63 419 63 381 22.5 c 128,-1,8
 343 -18 343 -18 283 -18 c 0,9,10
 225 -18 225 -18 187.5 22.5 c 128,-1,11
 150 63 150 63 150 117 c 1,12,-1
 150 117 l 1,0,1
EndSplineSet
Validated: 5
EndChar
StartChar: zero
Encoding: 16 48 117
Width: 1024
Flags: W
LayerCount: 2
Fore
SplineSet
507 1081 m 0,0,1
 433 1081 433 1081 384 1041.5 c 128,-1,2
 335 1002 335 1002 306 935 c 128,-1,3
 277 868 277 868 264.5 780.5 c 128,-1,4
 252 693 252 693 252 596 c 0,5,6
 252 530 252 530 257.5 465 c 128,-1,7
 263 400 263 400 276 340 c 128,-1,8
 289 280 289 280 309.5 228 c 128,-1,9
 330 176 330 176 359 138 c 128,-1,10
 388 100 388 100 427 78 c 128,-1,11
 466 56 466 56 516 56 c 0,12,13
 588 56 588 56 637 95 c 128,-1,14
 686 134 686 134 716 200.5 c 128,-1,15
 746 267 746 267 759 354.5 c 128,-1,16
 772 442 772 442 772 540 c 0,17,18
 772 606 772 606 766.5 672 c 128,-1,19
 761 738 761 738 748 798 c 128,-1,20
 735 858 735 858 714.5 910 c 128,-1,21
 694 962 694 962 665 1000 c 128,-1,22
 636 1038 636 1038 596.5 1059.5 c 128,-1,23
 557 1081 557 1081 507 1081 c 0,0,1
951 569 m 0,24,25
 951 440 951 440 922 332.5 c 128,-1,26
 893 225 893 225 837 147.5 c 128,-1,27
 781 70 781 70 699.5 26.5 c 128,-1,28
 618 -17 618 -17 513 -17 c 0,29,30
 402 -17 402 -17 319.5 27.5 c 128,-1,31
 237 72 237 72 182 150.5 c 128,-1,32
 127 229 127 229 100 336 c 128,-1,33
 73 443 73 443 73 568 c 0,34,35
 73 684 73 684 99.5 790 c 128,-1,36
 126 896 126 896 180.5 977 c 128,-1,37
 235 1058 235 1058 317.5 1106 c 128,-1,38
 400 1154 400 1154 513 1154 c 0,39,40
 633 1154 633 1154 716 1106 c 128,-1,41
 799 1058 799 1058 851.5 977.5 c 128,-1,42
 904 897 904 897 927.5 791 c 128,-1,43
 951 685 951 685 951 569 c 0,24,25
EndSplineSet
Validated: 1
EndChar
StartChar: one
Encoding: 17 49 118
Width: 1024
Flags: W
LayerCount: 2
Fore
SplineSet
854 -1 m 1,0,1
 826 -1 826 -1 796 0 c 128,-1,2
 766 1 766 1 728.5 2 c 128,-1,3
 691 3 691 3 642.5 4 c 128,-1,4
 594 5 594 5 530 5 c 0,5,6
 471 5 471 5 423 4 c 128,-1,7
 375 3 375 3 335 2 c 128,-1,8
 295 1 295 1 260.5 0 c 128,-1,9
 226 -1 226 -1 194 -1 c 1,10,11
 189 32 189 32 194 63 c 1,12,13
 286 69 286 69 335.5 75 c 128,-1,14
 385 81 385 81 408 96 c 128,-1,15
 431 111 431 111 435 138.5 c 128,-1,16
 439 166 439 166 439 215 c 2,17,-1
 439 897 l 2,18,19
 439 936 439 936 432 953.5 c 128,-1,20
 425 971 425 971 395 971 c 0,21,22
 359 971 359 971 308.5 964.5 c 128,-1,23
 258 958 258 958 175 939 c 1,24,25
 167 953 167 953 163.5 969 c 128,-1,26
 160 985 160 985 158 1002 c 1,27,28
 233 1021 233 1021 293.5 1039 c 128,-1,29
 354 1057 354 1057 409.5 1075 c 128,-1,30
 465 1093 465 1093 519.5 1113.5 c 128,-1,31
 574 1134 574 1134 636 1158 c 1,32,33
 657 1141 657 1141 668 1115 c 1,34,35
 644 1088 644 1088 631 1035.5 c 128,-1,36
 618 983 618 983 618 905 c 2,37,-1
 618 235 l 2,38,39
 618 197 618 197 619 170.5 c 128,-1,40
 620 144 620 144 626.5 126 c 128,-1,41
 633 108 633 108 647.5 97.5 c 128,-1,42
 662 87 662 87 688 80.5 c 128,-1,43
 714 74 714 74 754.5 71 c 128,-1,44
 795 68 795 68 854 64 c 1,45,46
 858 31 858 31 854 -1 c 1,0,1
EndSplineSet
Validated: 33
EndChar
StartChar: two
Encoding: 18 50 120
Width: 1024
Flags: W
LayerCount: 2
Fore
SplineSet
131 942 m 1,0,1
 121 953 121 953 113.5 965 c 128,-1,2
 106 977 106 977 101 988 c 1,3,4
 182 1076 182 1076 273.5 1117 c 128,-1,5
 365 1158 365 1158 474 1158 c 0,6,7
 553 1158 553 1158 619.5 1138 c 128,-1,8
 686 1118 686 1118 733 1081 c 128,-1,9
 780 1044 780 1044 806.5 991.5 c 128,-1,10
 833 939 833 939 833 874 c 0,11,12
 833 800 833 800 796.5 721 c 128,-1,13
 760 642 760 642 689 553.5 c 128,-1,14
 618 465 618 465 513.5 365 c 128,-1,15
 409 265 409 265 272 149 c 1,16,17
 314 149 314 149 365.5 149.5 c 128,-1,18
 417 150 417 150 471 151 c 128,-1,19
 525 152 525 152 577 152.5 c 128,-1,20
 629 153 629 153 671 155 c 0,21,22
 707 156 707 156 730 159 c 128,-1,23
 753 162 753 162 772.5 176.5 c 128,-1,24
 792 191 792 191 811.5 221.5 c 128,-1,25
 831 252 831 252 860 309 c 1,26,27
 872 309 872 309 885 307.5 c 128,-1,28
 898 306 898 306 912 301 c 1,29,30
 892 222 892 222 875.5 147 c 128,-1,31
 859 72 859 72 845 -1 c 1,32,33
 789 0 789 0 725.5 1 c 128,-1,34
 662 2 662 2 598 2.5 c 128,-1,35
 534 3 534 3 471.5 3 c 128,-1,36
 409 3 409 3 355 3 c 0,37,38
 249 3 249 3 177.5 2.5 c 128,-1,39
 106 2 106 2 69 0 c 1,40,41
 60 27 60 27 60 55 c 1,42,43
 227 182 227 182 339 290.5 c 128,-1,44
 451 399 451 399 519 491.5 c 128,-1,45
 587 584 587 584 615.5 662.5 c 128,-1,46
 644 741 644 741 644 808 c 0,47,48
 644 870 644 870 623 912.5 c 128,-1,49
 602 955 602 955 567 981 c 128,-1,50
 532 1007 532 1007 486 1018.5 c 128,-1,51
 440 1030 440 1030 391 1030 c 0,52,53
 325 1030 325 1030 256.5 1007.5 c 128,-1,54
 188 985 188 985 131 942 c 1,0,1
EndSplineSet
Validated: 1
EndChar
StartChar: three
Encoding: 19 51 120
Width: 1024
Flags: W
LayerCount: 2
Fore
SplineSet
321 410 m 1,0,1
 312 426 312 426 307 440 c 128,-1,2
 302 454 302 454 298 468 c 1,3,4
 389 494 389 494 456 534.5 c 128,-1,5
 523 575 523 575 567 623.5 c 128,-1,6
 611 672 611 672 633 724 c 128,-1,7
 655 776 655 776 655 825 c 0,8,9
 655 867 655 867 639.5 904 c 128,-1,10
 624 941 624 941 593 969 c 128,-1,11
 562 997 562 997 516.5 1013 c 128,-1,12
 471 1029 471 1029 411 1029 c 0,13,14
 348 1029 348 1029 281 1006.5 c 128,-1,15
 214 984 214 984 156 941 c 1,16,17
 146 952 146 952 138.5 964 c 128,-1,18
 131 976 131 976 126 987 c 1,19,20
 207 1075 207 1075 297 1116 c 128,-1,21
 387 1157 387 1157 496 1157 c 0,22,23
 580 1157 580 1157 643.5 1136 c 128,-1,24
 707 1115 707 1115 749 1079 c 128,-1,25
 791 1043 791 1043 812.5 995.5 c 128,-1,26
 834 948 834 948 834 896 c 0,27,28
 834 849 834 849 819.5 800.5 c 128,-1,29
 805 752 805 752 775 704.5 c 128,-1,30
 745 657 745 657 699.5 612.5 c 128,-1,31
 654 568 654 568 592 530 c 1,32,33
 673 517 673 517 735 485.5 c 128,-1,34
 797 454 797 454 838 407.5 c 128,-1,35
 879 361 879 361 900 301.5 c 128,-1,36
 921 242 921 242 921 172 c 0,37,38
 921 101 921 101 899.5 40 c 128,-1,39
 878 -21 878 -21 840 -71 c 128,-1,40
 802 -121 802 -121 751 -159 c 128,-1,41
 700 -197 700 -197 641 -223 c 128,-1,42
 582 -249 582 -249 518.5 -262.5 c 128,-1,43
 455 -276 455 -276 393 -276 c 256,44,45
 331 -276 331 -276 275.5 -264 c 128,-1,46
 220 -252 220 -252 178 -229 c 128,-1,47
 136 -206 136 -206 111 -172.5 c 128,-1,48
 86 -139 86 -139 86 -95 c 0,49,50
 86 -49 86 -49 109.5 -29 c 128,-1,51
 133 -9 133 -9 168 -9 c 0,52,53
 191 -9 191 -9 215 -21.5 c 128,-1,54
 239 -34 239 -34 260.5 -58 c 128,-1,55
 282 -82 282 -82 299.5 -117 c 128,-1,56
 317 -152 317 -152 328 -197 c 1,57,58
 350 -202 350 -202 370.5 -203.5 c 128,-1,59
 391 -205 391 -205 411 -205 c 0,60,61
 486 -205 486 -205 548.5 -178.5 c 128,-1,62
 611 -152 611 -152 655.5 -107.5 c 128,-1,63
 700 -63 700 -63 724.5 -5 c 128,-1,64
 749 53 749 53 749 115 c 0,65,66
 749 173 749 173 729 229 c 128,-1,67
 709 285 709 285 669 328.5 c 128,-1,68
 629 372 629 372 570.5 399 c 128,-1,69
 512 426 512 426 434 426 c 0,70,71
 378 426 378 426 321 410 c 1,0,1
EndSplineSet
Validated: 1
EndChar
StartChar: four
Encoding: 20 52 122
Width: 1024
Flags: W
LayerCount: 2
Fore
SplineSet
793 194 m 1,0,-1
 793 -249 l 1,1,2
 747 -252 747 -252 703 -252 c 256,3,4
 659 -252 659 -252 616 -249 c 1,5,-1
 616 194 l 1,6,-1
 34 194 l 1,7,8
 28 247 28 247 28 298 c 1,9,10
 183 516 183 516 340.5 724.5 c 128,-1,11
 498 933 498 933 665 1143 c 1,12,13
 735 1141 735 1141 796 1131 c 1,14,15
 794 1075 794 1075 793.5 1042 c 128,-1,16
 793 1009 793 1009 793 982 c 2,17,-1
 793 331 l 1,18,-1
 996 331 l 1,19,20
 995 299 995 299 992.5 263 c 128,-1,21
 990 227 990 227 986 194 c 1,22,-1
 793 194 l 1,0,-1
616 964 m 1,23,24
 492 807 492 807 378 649 c 128,-1,25
 264 491 264 491 152 331 c 1,26,-1
 616 331 l 1,27,-1
 616 964 l 1,23,24
EndSplineSet
Validated: 1
EndChar
StartChar: five
Encoding: 21 53 123
Width: 1024
Flags: W
LayerCount: 2
Fore
SplineSet
875 1136 m 1,0,1
 868 1094 868 1094 858.5 1050 c 128,-1,2
 849 1006 849 1006 836 964 c 1,3,-1
 297 964 l 1,4,-1
 254 653 l 1,5,6
 302 662 302 662 350.5 667 c 128,-1,7
 399 672 399 672 439 672 c 0,8,9
 571 672 571 672 660.5 631.5 c 128,-1,10
 750 591 750 591 804.5 528.5 c 128,-1,11
 859 466 859 466 882 391 c 128,-1,12
 905 316 905 316 905 247 c 0,13,14
 905 153 905 153 881 77.5 c 128,-1,15
 857 2 857 2 816 -56 c 128,-1,16
 775 -114 775 -114 721 -156 c 128,-1,17
 667 -198 667 -198 607.5 -225 c 128,-1,18
 548 -252 548 -252 486 -264.5 c 128,-1,19
 424 -277 424 -277 368 -277 c 0,20,21
 304 -277 304 -277 247 -263.5 c 128,-1,22
 190 -250 190 -250 147.5 -225 c 128,-1,23
 105 -200 105 -200 80 -166 c 128,-1,24
 55 -132 55 -132 55 -91 c 0,25,26
 55 -45 55 -45 79 -24 c 128,-1,27
 103 -3 103 -3 134 -3 c 0,28,29
 155 -3 155 -3 178.5 -14.5 c 128,-1,30
 202 -26 202 -26 223.5 -50 c 128,-1,31
 245 -74 245 -74 263 -110.5 c 128,-1,32
 281 -147 281 -147 291 -196 c 1,33,34
 337 -204 337 -204 375 -204 c 0,35,36
 460 -204 460 -204 526.5 -172.5 c 128,-1,37
 593 -141 593 -141 639 -89 c 128,-1,38
 685 -37 685 -37 708.5 30.5 c 128,-1,39
 732 98 732 98 732 170 c 0,40,41
 732 236 732 236 711 299 c 128,-1,42
 690 362 690 362 645.5 411 c 128,-1,43
 601 460 601 460 531.5 489.5 c 128,-1,44
 462 519 462 519 365 519 c 0,45,46
 320 519 320 519 268 512.5 c 128,-1,47
 216 506 216 506 161 492 c 1,48,-1
 146 499 l 1,49,-1
 241 1124 l 1,50,-1
 875 1136 l 1,0,1
EndSplineSet
Validated: 1
EndChar
StartChar: six
Encoding: 22 54 123
Width: 1024
Flags: W
LayerCount: 2
Fore
SplineSet
915 1319 m 1,0,1
 895 1321 895 1321 876 1322 c 128,-1,2
 857 1323 857 1323 839 1323 c 0,3,4
 728 1323 728 1323 636.5 1281.5 c 128,-1,5
 545 1240 545 1240 475.5 1167 c 128,-1,6
 406 1094 406 1094 358.5 995.5 c 128,-1,7
 311 897 311 897 287 783 c 1,8,9
 350 821 350 821 422 842 c 128,-1,10
 494 863 494 863 569 863 c 0,11,12
 645 863 645 863 716.5 838.5 c 128,-1,13
 788 814 788 814 842.5 762 c 128,-1,14
 897 710 897 710 930 630.5 c 128,-1,15
 963 551 963 551 963 441 c 0,16,17
 963 330 963 330 926 244 c 128,-1,18
 889 158 889 158 827.5 99 c 128,-1,19
 766 40 766 40 687 9.5 c 128,-1,20
 608 -21 608 -21 525 -21 c 0,21,22
 443 -21 443 -21 362.5 11.5 c 128,-1,23
 282 44 282 44 218 112 c 128,-1,24
 154 180 154 180 114.5 285 c 128,-1,25
 75 390 75 390 75 535 c 0,26,27
 75 634 75 634 97 736.5 c 128,-1,28
 119 839 119 839 162.5 934.5 c 128,-1,29
 206 1030 206 1030 271.5 1113.5 c 128,-1,30
 337 1197 337 1197 423.5 1259.5 c 128,-1,31
 510 1322 510 1322 618 1358 c 128,-1,32
 726 1394 726 1394 855 1394 c 0,33,34
 887 1394 887 1394 922 1391 c 1,35,36
 923 1373 923 1373 921 1355 c 128,-1,37
 919 1337 919 1337 915 1319 c 1,0,1
264 553 m 0,38,39
 264 422 264 422 288 327.5 c 128,-1,40
 312 233 312 233 351 172 c 128,-1,41
 390 111 390 111 439.5 81.5 c 128,-1,42
 489 52 489 52 540 52 c 0,43,44
 583 52 583 52 624.5 71.5 c 128,-1,45
 666 91 666 91 698 132.5 c 128,-1,46
 730 174 730 174 750 239 c 128,-1,47
 770 304 770 304 770 396 c 0,48,49
 770 492 770 492 747 561.5 c 128,-1,50
 724 631 724 631 685 675.5 c 128,-1,51
 646 720 646 720 595 741.5 c 128,-1,52
 544 763 544 763 488 763 c 0,53,54
 434 763 434 763 379 746 c 128,-1,55
 324 729 324 729 273 697 c 1,56,57
 264 626 264 626 264 553 c 0,38,39
EndSplineSet
Validated: 1
EndChar
StartChar: seven
Encoding: 23 55 125
Width: 1024
Flags: W
LayerCount: 2
Fore
SplineSet
271 -228 m 1,0,1
 407 77 407 77 544 376.5 c 128,-1,2
 681 676 681 676 820 981 c 1,3,4
 803 981 803 981 777.5 981.5 c 128,-1,5
 752 982 752 982 723 982 c 128,-1,6
 694 982 694 982 664 982 c 128,-1,7
 634 982 634 982 610 982 c 0,8,9
 574 982 574 982 536.5 982 c 128,-1,10
 499 982 499 982 464 981.5 c 128,-1,11
 429 981 429 981 397 980.5 c 128,-1,12
 365 980 365 980 340 979 c 0,13,14
 304 978 304 978 278.5 974.5 c 128,-1,15
 253 971 253 971 232.5 954.5 c 128,-1,16
 212 938 212 938 193 902 c 128,-1,17
 174 866 174 866 151 800 c 1,18,19
 139 800 139 800 126.5 801.5 c 128,-1,20
 114 803 114 803 100 808 c 1,21,22
 119 899 119 899 131.5 981 c 128,-1,23
 144 1063 144 1063 152 1144 c 1,24,25
 206 1141 206 1141 265 1139 c 128,-1,26
 324 1137 324 1137 383 1136.5 c 128,-1,27
 442 1136 442 1136 500 1135.5 c 128,-1,28
 558 1135 558 1135 610 1135 c 0,29,30
 659 1135 659 1135 710 1135 c 128,-1,31
 761 1135 761 1135 806.5 1135.5 c 128,-1,32
 852 1136 852 1136 887.5 1137 c 128,-1,33
 923 1138 923 1138 941 1140 c 1,34,35
 944 1127 944 1127 945.5 1116 c 128,-1,36
 947 1105 947 1105 948 1088 c 1,37,38
 884 933 884 933 814.5 762.5 c 128,-1,39
 745 592 745 592 678.5 418 c 128,-1,40
 612 244 612 244 551.5 73.5 c 128,-1,41
 491 -97 491 -97 445 -251 c 1,42,43
 425 -253 425 -253 402 -253.5 c 128,-1,44
 379 -254 379 -254 359 -254 c 256,45,46
 339 -254 339 -254 319.5 -253.5 c 128,-1,47
 300 -253 300 -253 280 -251 c 1,48,-1
 271 -228 l 1,0,1
EndSplineSet
Validated: 1
EndChar
StartChar: eight
Encoding: 24 56 125
Width: 1024
Flags: W
LayerCount: 2
Fore
SplineSet
128 1051 m 0,0,1
 128 1125 128 1125 157 1190 c 128,-1,2
 186 1255 186 1255 238.5 1303.5 c 128,-1,3
 291 1352 291 1352 365 1380 c 128,-1,4
 439 1408 439 1408 528 1408 c 0,5,6
 618 1408 618 1408 687.5 1382.5 c 128,-1,7
 757 1357 757 1357 804.5 1312.5 c 128,-1,8
 852 1268 852 1268 876.5 1207.5 c 128,-1,9
 901 1147 901 1147 901 1077 c 0,10,11
 901 1023 901 1023 877.5 972.5 c 128,-1,12
 854 922 854 922 818 878.5 c 128,-1,13
 782 835 782 835 738.5 800 c 128,-1,14
 695 765 695 765 654 743 c 1,15,16
 711 712 711 712 764 678 c 128,-1,17
 817 644 817 644 858 600.5 c 128,-1,18
 899 557 899 557 924 502 c 128,-1,19
 949 447 949 447 949 374 c 0,20,21
 949 293 949 293 916.5 221 c 128,-1,22
 884 149 884 149 824.5 95 c 128,-1,23
 765 41 765 41 681.5 9.5 c 128,-1,24
 598 -22 598 -22 495 -22 c 0,25,26
 393 -22 393 -22 315 5.5 c 128,-1,27
 237 33 237 33 183.5 81.5 c 128,-1,28
 130 130 130 130 103 195.5 c 128,-1,29
 76 261 76 261 76 337 c 0,30,31
 76 402 76 402 101.5 457.5 c 128,-1,32
 127 513 127 513 168.5 558.5 c 128,-1,33
 210 604 210 604 261.5 641 c 128,-1,34
 313 678 313 678 365 705 c 1,35,36
 317 733 317 733 274 766.5 c 128,-1,37
 231 800 231 800 198.5 841 c 128,-1,38
 166 882 166 882 147 933.5 c 128,-1,39
 128 985 128 985 128 1051 c 0,0,1
258 344 m 0,40,41
 258 284 258 284 273.5 230.5 c 128,-1,42
 289 177 289 177 320.5 136.5 c 128,-1,43
 352 96 352 96 400 72.5 c 128,-1,44
 448 49 448 49 513 49 c 0,45,46
 577 49 577 49 625.5 71 c 128,-1,47
 674 93 674 93 707 130 c 128,-1,48
 740 167 740 167 756.5 215 c 128,-1,49
 773 263 773 263 773 315 c 0,50,51
 773 378 773 378 748 425.5 c 128,-1,52
 723 473 723 473 681 511.5 c 128,-1,53
 639 550 639 550 585 581.5 c 128,-1,54
 531 613 531 613 473 644 c 2,55,-1
 423 671 l 1,56,57
 388 645 388 645 358 611.5 c 128,-1,58
 328 578 328 578 305.5 537 c 128,-1,59
 283 496 283 496 270.5 447.5 c 128,-1,60
 258 399 258 399 258 344 c 0,40,41
517 1340 m 0,61,62
 465 1340 465 1340 424.5 1320.5 c 128,-1,63
 384 1301 384 1301 356.5 1267.5 c 128,-1,64
 329 1234 329 1234 314.5 1190 c 128,-1,65
 300 1146 300 1146 300 1097 c 0,66,67
 300 1036 300 1036 324.5 989.5 c 128,-1,68
 349 943 349 943 389.5 905.5 c 128,-1,69
 430 868 430 868 482.5 837 c 128,-1,70
 535 806 535 806 592 776 c 1,71,72
 617 795 617 795 641.5 823 c 128,-1,73
 666 851 666 851 684.5 888.5 c 128,-1,74
 703 926 703 926 714.5 973.5 c 128,-1,75
 726 1021 726 1021 726 1080 c 0,76,77
 726 1130 726 1130 714.5 1177 c 128,-1,78
 703 1224 703 1224 677.5 1260 c 128,-1,79
 652 1296 652 1296 612.5 1318 c 128,-1,80
 573 1340 573 1340 517 1340 c 0,61,62
EndSplineSet
Validated: 1
EndChar
StartChar: nine
Encoding: 25 57 126
Width: 1024
Flags: W
LayerCount: 2
Fore
SplineSet
106 -199 m 1,0,1
 123 -201 123 -201 133.5 -201 c 128,-1,2
 144 -201 144 -201 158 -201 c 0,3,4
 294 -201 294 -201 395 -155 c 128,-1,5
 496 -109 496 -109 566.5 -31 c 128,-1,6
 637 47 637 47 679.5 149 c 128,-1,7
 722 251 722 251 742 363 c 1,8,9
 674 318 674 318 600 298.5 c 128,-1,10
 526 279 526 279 453 279 c 0,11,12
 355 279 355 279 281.5 315 c 128,-1,13
 208 351 208 351 159 410 c 128,-1,14
 110 469 110 469 85.5 545.5 c 128,-1,15
 61 622 61 622 61 702 c 0,16,17
 61 788 61 788 89.5 870 c 128,-1,18
 118 952 118 952 173 1016 c 128,-1,19
 228 1080 228 1080 311.5 1119 c 128,-1,20
 395 1158 395 1158 505 1158 c 0,21,22
 587 1158 587 1158 666.5 1126.5 c 128,-1,23
 746 1095 746 1095 808.5 1027 c 128,-1,24
 871 959 871 959 910 852 c 128,-1,25
 949 745 949 745 949 594 c 0,26,27
 949 491 949 491 929 386.5 c 128,-1,28
 909 282 909 282 867.5 185.5 c 128,-1,29
 826 89 826 89 762 5.5 c 128,-1,30
 698 -78 698 -78 609 -140 c 128,-1,31
 520 -202 520 -202 406 -237.5 c 128,-1,32
 292 -273 292 -273 152 -273 c 0,33,34
 127 -273 127 -273 100 -270 c 1,35,36
 98 -235 98 -235 106 -199 c 1,0,1
760 578 m 0,37,38
 760 713 760 713 736 809.5 c 128,-1,39
 712 906 712 906 673.5 967.5 c 128,-1,40
 635 1029 635 1029 586 1058 c 128,-1,41
 537 1087 537 1087 486 1087 c 0,42,43
 429 1087 429 1087 386 1059.5 c 128,-1,44
 343 1032 343 1032 313.5 985.5 c 128,-1,45
 284 939 284 939 269 878.5 c 128,-1,46
 254 818 254 818 254 752 c 0,47,48
 254 684 254 684 271.5 617 c 128,-1,49
 289 550 289 550 323.5 497 c 128,-1,50
 358 444 358 444 410.5 411.5 c 128,-1,51
 463 379 463 379 533 379 c 0,52,53
 586 379 586 379 641 394 c 128,-1,54
 696 409 696 409 753 444 c 1,55,56
 756 479 756 479 758 511.5 c 128,-1,57
 760 544 760 544 760 578 c 0,37,38
EndSplineSet
Validated: 33
EndChar
StartChar: less
Encoding: 28 60 130
Width: 1150
Flags: W
LayerCount: 2
Fore
SplineSet
120 438 m 1,0,1
 115 472 115 472 120 507 c 1,2,-1
 1008 916 l 1,3,4
 1029 877 1029 877 1045 837 c 1,5,-1
 254 472 l 1,6,-1
 1045 108 l 1,7,8
 1029 67 1029 67 1008 29 c 1,9,-1
 120 438 l 1,0,1
EndSplineSet
Validated: 33
EndChar
StartChar: equal
Encoding: 29 61 130
Width: 1150
Flags: W
LayerCount: 2
Fore
SplineSet
1048 326 m 1,0,1
 1051 282 1051 282 1048 239 c 1,2,-1
 102 239 l 1,3,4
 99 282 99 282 102 326 c 1,5,-1
 1048 326 l 1,0,1
1048 706 m 1,6,7
 1051 662 1051 662 1048 619 c 1,8,-1
 102 619 l 1,9,10
 99 662 99 662 102 706 c 1,11,-1
 1048 706 l 1,6,7
EndSplineSet
Validated: 33
EndChar
StartChar: greater
Encoding: 30 62 131
Width: 1150
Flags: W
LayerCount: 2
Fore
SplineSet
142 29 m 1,0,1
 121 67 121 67 105 108 c 1,2,-1
 897 472 l 1,3,-1
 105 837 l 1,4,5
 122 879 122 879 142 916 c 1,6,-1
 1031 507 l 1,7,8
 1035 472 1035 472 1031 438 c 1,9,-1
 142 29 l 1,0,1
EndSplineSet
Validated: 33
EndChar
StartChar: question
Encoding: 31 63 133
Width: 808
Flags: W
LayerCount: 2
Fore
SplineSet
299 401 m 1,0,-1
 257 773 l 1,1,2
 302 771 302 771 330 771 c 0,3,4
 514 771 514 771 585.5 803 c 128,-1,5
 657 835 657 835 657 911 c 0,6,7
 657 1019 657 1019 587 1114 c 128,-1,8
 517 1209 517 1209 409 1258 c 1,9,10
 333 1210 333 1210 260 1210 c 0,11,12
 207 1210 207 1210 171 1236 c 128,-1,13
 135 1262 135 1262 135 1310 c 0,14,15
 135 1356 135 1356 174.5 1385 c 128,-1,16
 214 1414 214 1414 278 1414 c 0,17,18
 374 1414 374 1414 493.5 1333 c 128,-1,19
 613 1252 613 1252 680.5 1130 c 128,-1,20
 748 1008 748 1008 748 881 c 0,21,22
 748 729 748 729 665 666.5 c 128,-1,23
 582 604 582 604 389 602 c 1,24,-1
 367 401 l 1,25,-1
 299 401 l 1,0,-1
201 115 m 0,26,27
 201 169 201 169 238 209 c 128,-1,28
 275 249 275 249 333 249 c 256,29,30
 391 249 391 249 428.5 209 c 128,-1,31
 466 169 466 169 466 115 c 0,32,33
 466 62 466 62 428.5 22 c 128,-1,34
 391 -18 391 -18 333 -18 c 256,35,36
 275 -18 275 -18 238 22 c 128,-1,37
 201 62 201 62 201 115 c 0,26,27
EndSplineSet
Validated: 1
EndChar
StartChar: bracketleft
Encoding: 144 91 146
Width: 754
GlyphClass: 2
Flags: W
LayerCount: 2
Fore
SplineSet
180 -362 m 1,0,-1
 180 1492 l 1,1,-1
 624 1492 l 1,2,-1
 624 1409 l 1,3,-1
 313 1409 l 1,4,-1
 313 -279 l 1,5,-1
 624 -279 l 1,6,-1
 624 -362 l 1,7,-1
 180 -362 l 1,0,-1
EndSplineSet
Validated: 1
EndChar
StartChar: bracketright
Encoding: 145 93 145
Width: 754
GlyphClass: 2
Flags: W
LayerCount: 2
Fore
SplineSet
574 1492 m 1,0,-1
 574 -362 l 1,1,-1
 130 -362 l 1,2,-1
 130 -279 l 1,3,-1
 441 -279 l 1,4,-1
 441 1409 l 1,5,-1
 130 1409 l 1,6,-1
 130 1492 l 1,7,-1
 574 1492 l 1,0,-1
EndSplineSet
Validated: 1
EndChar
StartChar: underscore
Encoding: 32 95 139
Width: 1150
Flags: W
LayerCount: 2
Fore
SplineSet
1220 -184 m 1,0,-1
 1220 -271 l 1,1,-1
 -70 -271 l 1,2,-1
 -70 -184 l 1,3,-1
 1220 -184 l 1,0,-1
EndSplineSet
Validated: 1
EndChar
StartChar: braceleft
Encoding: 33 123 134
Width: 745
Flags: W
LayerCount: 2
Fore
SplineSet
235 571 m 1,0,-1
 235 563 l 1,1,2
 293 549 293 549 328 527 c 128,-1,3
 363 505 363 505 382.5 471.5 c 128,-1,4
 402 438 402 438 408.5 393 c 128,-1,5
 415 348 415 348 415 290 c 2,6,-1
 415 -96 l 2,7,8
 415 -206 415 -206 457.5 -262.5 c 128,-1,9
 500 -319 500 -319 605 -319 c 1,10,-1
 605 -383 l 1,11,12
 514 -383 514 -383 449.5 -368 c 128,-1,13
 385 -353 385 -353 343.5 -315 c 128,-1,14
 302 -277 302 -277 283 -211 c 128,-1,15
 264 -145 264 -145 264 -44 c 2,16,-1
 264 338 l 2,17,18
 264 394 264 394 255.5 430 c 128,-1,19
 247 466 247 466 227 488 c 128,-1,20
 207 510 207 510 173.5 521.5 c 128,-1,21
 140 533 140 533 90 540 c 1,22,-1
 90 593 l 1,23,24
 140 600 140 600 173.5 612 c 128,-1,25
 207 624 207 624 227 646 c 128,-1,26
 247 668 247 668 255.5 703.5 c 128,-1,27
 264 739 264 739 264 795 c 2,28,-1
 264 1178 l 2,29,30
 264 1279 264 1279 283 1344.5 c 128,-1,31
 302 1410 302 1410 343.5 1448 c 128,-1,32
 385 1486 385 1486 449.5 1501 c 128,-1,33
 514 1516 514 1516 605 1516 c 1,34,-1
 605 1452 l 1,35,36
 500 1452 500 1452 457.5 1395.5 c 128,-1,37
 415 1339 415 1339 415 1230 c 2,38,-1
 415 843 l 2,39,40
 415 784 415 784 408.5 739.5 c 128,-1,41
 402 695 402 695 382.5 662 c 128,-1,42
 363 629 363 629 328 606.5 c 128,-1,43
 293 584 293 584 235 571 c 1,0,-1
EndSplineSet
Validated: 1
EndChar
StartChar: bar
Encoding: 34 124 136
Width: 603
Flags: W
LayerCount: 2
Fore
SplineSet
250 -496 m 1,0,-1
 250 1492 l 1,1,-1
 353 1492 l 1,2,-1
 353 -496 l 1,3,-1
 250 -496 l 1,0,-1
EndSplineSet
Validated: 1
EndChar
StartChar: braceright
Encoding: 35 125 137
Width: 745
Flags: W
LayerCount: 2
Fore
SplineSet
510 571 m 1,0,1
 452 584 452 584 417 606.5 c 128,-1,2
 382 629 382 629 362.5 662 c 128,-1,3
 343 695 343 695 336.5 739.5 c 128,-1,4
 330 784 330 784 330 843 c 2,5,-1
 330 1230 l 2,6,7
 330 1339 330 1339 287.5 1395.5 c 128,-1,8
 245 1452 245 1452 140 1452 c 1,9,-1
 140 1516 l 1,10,11
 231 1516 231 1516 295.5 1501 c 128,-1,12
 360 1486 360 1486 401 1448 c 128,-1,13
 442 1410 442 1410 461.5 1344.5 c 128,-1,14
 481 1279 481 1279 481 1178 c 2,15,-1
 481 795 l 2,16,17
 481 739 481 739 489.5 703.5 c 128,-1,18
 498 668 498 668 518 646 c 128,-1,19
 538 624 538 624 571.5 612 c 128,-1,20
 605 600 605 600 655 593 c 1,21,-1
 655 540 l 1,22,23
 605 533 605 533 571.5 521.5 c 128,-1,24
 538 510 538 510 518 488 c 128,-1,25
 498 466 498 466 489.5 430 c 128,-1,26
 481 394 481 394 481 338 c 2,27,-1
 481 -44 l 2,28,29
 481 -145 481 -145 461.5 -211 c 128,-1,30
 442 -277 442 -277 401 -315 c 128,-1,31
 360 -353 360 -353 295.5 -368 c 128,-1,32
 231 -383 231 -383 140 -383 c 1,33,-1
 140 -319 l 1,34,35
 245 -319 245 -319 287.5 -262.5 c 128,-1,36
 330 -206 330 -206 330 -96 c 2,37,-1
 330 290 l 2,38,39
 330 348 330 348 336.5 393 c 128,-1,40
 343 438 343 438 362.5 471.5 c 128,-1,41
 382 505 382 505 417 527 c 128,-1,42
 452 549 452 549 510 563 c 1,43,-1
 510 571 l 1,0,1
EndSplineSet
Validated: 1
EndChar
StartChar: asciitilde
Encoding: 36 126 137
Width: 1150
Flags: W
LayerCount: 2
Fore
SplineSet
1048 539 m 1,0,1
 1051 492 1051 492 1048 446 c 1,2,3
 991 401 991 401 935 384 c 128,-1,4
 879 367 879 367 822 367 c 0,5,6
 760 367 760 367 699 385 c 128,-1,7
 638 403 638 403 575 426 c 256,8,9
 512 449 512 449 451.5 467 c 128,-1,10
 391 485 391 485 328 485 c 0,11,12
 271 485 271 485 215 468 c 128,-1,13
 159 451 159 451 102 406 c 1,14,15
 99 452 99 452 102 499 c 1,16,17
 159 544 159 544 215 561 c 128,-1,18
 271 578 271 578 328 578 c 0,19,20
 391 578 391 578 451.5 560 c 128,-1,21
 512 542 512 542 575 519 c 256,22,23
 638 496 638 496 699 478 c 128,-1,24
 760 460 760 460 822 460 c 0,25,26
 879 460 879 460 935 477 c 128,-1,27
 991 494 991 494 1048 539 c 1,0,1
EndSplineSet
Validated: 33
EndChar
StartChar: uni0591
Encoding: 37 1425 2
Width: 0
GlyphClass: 4
Flags: W
LayerCount: 2
Fore
SplineSet
42 -164 m 1,0,-1
 42 -294 l 1,1,2
 85 -302 85 -302 112 -322.5 c 128,-1,3
 139 -343 139 -343 154 -372 c 128,-1,4
 169 -401 169 -401 174 -435 c 128,-1,5
 179 -469 179 -469 179 -503 c 0,6,7
 179 -525 179 -525 177.5 -545.5 c 128,-1,8
 176 -566 176 -566 174 -585 c 1,9,-1
 89 -592 l 1,10,11
 92 -569 92 -569 93 -552 c 128,-1,12
 94 -535 94 -535 94 -517 c 0,13,14
 94 -439 94 -439 68.5 -406 c 128,-1,15
 43 -373 43 -373 -2 -373 c 0,16,17
 -48 -373 -48 -373 -71.5 -404.5 c 128,-1,18
 -95 -436 -95 -436 -95 -511 c 0,19,20
 -95 -528 -95 -528 -94 -546 c 128,-1,21
 -93 -564 -93 -564 -91 -585 c 1,22,-1
 -175 -592 l 1,23,24
 -177 -573 -177 -573 -178.5 -553 c 128,-1,25
 -180 -533 -180 -533 -180 -511 c 0,26,27
 -180 -475 -180 -475 -174 -439.5 c 128,-1,28
 -168 -404 -168 -404 -153 -374 c 128,-1,29
 -138 -344 -138 -344 -111.5 -323 c 128,-1,30
 -85 -302 -85 -302 -43 -294 c 1,31,-1
 -43 -174 l 1,32,-1
 42 -164 l 1,0,-1
EndSplineSet
Validated: 1
EndChar
StartChar: uni0592
Encoding: 38 1426 2
Width: 0
GlyphClass: 2
Flags: W
LayerCount: 2
Fore
SplineSet
-221 1304 m 256,0,1
 -221 1339 -221 1339 -197.5 1362.5 c 128,-1,2
 -174 1386 -174 1386 -139 1386 c 256,3,4
 -104 1386 -104 1386 -80.5 1362.5 c 128,-1,5
 -57 1339 -57 1339 -57 1304 c 256,6,7
 -57 1269 -57 1269 -80.5 1245.5 c 128,-1,8
 -104 1222 -104 1222 -139 1222 c 256,9,10
 -174 1222 -174 1222 -197.5 1245.5 c 128,-1,11
 -221 1269 -221 1269 -221 1304 c 256,0,1
-82 1548 m 256,12,13
 -82 1583 -82 1583 -58.5 1606.5 c 128,-1,14
 -35 1630 -35 1630 0 1630 c 256,15,16
 35 1630 35 1630 58.5 1606.5 c 128,-1,17
 82 1583 82 1583 82 1548 c 256,18,19
 82 1513 82 1513 58.5 1489.5 c 128,-1,20
 35 1466 35 1466 0 1466 c 256,21,22
 -35 1466 -35 1466 -58.5 1489.5 c 128,-1,23
 -82 1513 -82 1513 -82 1548 c 256,12,13
57 1304 m 256,24,25
 57 1339 57 1339 80.5 1362.5 c 128,-1,26
 104 1386 104 1386 139 1386 c 256,27,28
 174 1386 174 1386 197.5 1362.5 c 128,-1,29
 221 1339 221 1339 221 1304 c 256,30,31
 221 1269 221 1269 197.5 1245.5 c 128,-1,32
 174 1222 174 1222 139 1222 c 256,33,34
 104 1222 104 1222 80.5 1245.5 c 128,-1,35
 57 1269 57 1269 57 1304 c 256,24,25
EndSplineSet
Validated: 1
EndChar
StartChar: uni0593
Encoding: 39 1427 3
Width: 0
GlyphClass: 2
Flags: W
LayerCount: 2
Fore
SplineSet
129 1475 m 1,0,-1
 -28 1388 l 1,1,-1
 134 1301 l 1,2,-1
 -30 1207 l 1,3,-1
 -129 1207 l 1,4,-1
 35 1301 l 1,5,-1
 -128 1388 l 1,6,-1
 29 1475 l 1,7,-1
 -133 1562 l 1,8,-1
 30 1656 l 1,9,-1
 129 1656 l 1,10,-1
 -33 1562 l 1,11,-1
 129 1475 l 1,0,-1
EndSplineSet
Validated: 1
EndChar
StartChar: uni0594
Encoding: 40 1428 5
Width: 0
GlyphClass: 2
Flags: W
LayerCount: 2
Fore
SplineSet
-82 1304 m 256,0,1
 -82 1339 -82 1339 -58.5 1362.5 c 128,-1,2
 -35 1386 -35 1386 0 1386 c 256,3,4
 35 1386 35 1386 58.5 1362.5 c 128,-1,5
 82 1339 82 1339 82 1304 c 256,6,7
 82 1269 82 1269 58.5 1245.5 c 128,-1,8
 35 1222 35 1222 0 1222 c 256,9,10
 -35 1222 -35 1222 -58.5 1245.5 c 128,-1,11
 -82 1269 -82 1269 -82 1304 c 256,0,1
-82 1558 m 256,12,13
 -82 1593 -82 1593 -58.5 1616.5 c 128,-1,14
 -35 1640 -35 1640 0 1640 c 256,15,16
 35 1640 35 1640 58.5 1616.5 c 128,-1,17
 82 1593 82 1593 82 1558 c 256,18,19
 82 1523 82 1523 58.5 1499.5 c 128,-1,20
 35 1476 35 1476 0 1476 c 256,21,22
 -35 1476 -35 1476 -58.5 1499.5 c 128,-1,23
 -82 1523 -82 1523 -82 1558 c 256,12,13
EndSplineSet
Validated: 1
EndChar
StartChar: uni0595
Encoding: 41 1429 6
Width: 0
GlyphClass: 2
Flags: W
LayerCount: 2
Fore
SplineSet
21 1304 m 256,0,1
 21 1339 21 1339 44.5 1362.5 c 128,-1,2
 68 1386 68 1386 103 1386 c 256,3,4
 138 1386 138 1386 161.5 1362.5 c 128,-1,5
 185 1339 185 1339 185 1304 c 256,6,7
 185 1269 185 1269 161.5 1245.5 c 128,-1,8
 138 1222 138 1222 103 1222 c 256,9,10
 68 1222 68 1222 44.5 1245.5 c 128,-1,11
 21 1269 21 1269 21 1304 c 256,0,1
21 1558 m 256,12,13
 21 1593 21 1593 44.5 1616.5 c 128,-1,14
 68 1640 68 1640 103 1640 c 256,15,16
 138 1640 138 1640 161.5 1616.5 c 128,-1,17
 185 1593 185 1593 185 1558 c 256,18,19
 185 1523 185 1523 161.5 1499.5 c 128,-1,20
 138 1476 138 1476 103 1476 c 256,21,22
 68 1476 68 1476 44.5 1499.5 c 128,-1,23
 21 1523 21 1523 21 1558 c 256,12,13
-59 1237 m 1,24,-1
 -144 1227 l 1,25,-1
 -144 1625 l 1,26,-1
 -59 1635 l 1,27,-1
 -59 1237 l 1,24,-1
EndSplineSet
Validated: 1
EndChar
StartChar: uni0596
Encoding: 42 1430 6
Width: 0
GlyphClass: 2
Flags: W
LayerCount: 2
Fore
SplineSet
150 -587 m 1,0,1
 91 -575 91 -575 52 -551.5 c 128,-1,2
 13 -528 13 -528 -10 -496.5 c 128,-1,3
 -33 -465 -33 -465 -42.5 -428 c 128,-1,4
 -52 -391 -52 -391 -52 -350 c 0,5,6
 -52 -328 -52 -328 -51 -308 c 128,-1,7
 -50 -288 -50 -288 -48.5 -268 c 128,-1,8
 -47 -248 -47 -248 -45 -226.5 c 128,-1,9
 -43 -205 -43 -205 -40 -179 c 1,10,-1
 49 -169 l 1,11,12
 44 -223 44 -223 40 -269 c 128,-1,13
 36 -315 36 -315 36 -353 c 0,14,15
 36 -380 36 -380 42.5 -403.5 c 128,-1,16
 49 -427 49 -427 64 -446.5 c 128,-1,17
 79 -466 79 -466 104.5 -480.5 c 128,-1,18
 130 -495 130 -495 168 -504 c 1,19,-1
 150 -587 l 1,0,1
EndSplineSet
Validated: 1
EndChar
StartChar: uni0597
Encoding: 43 1431 8
Width: 0
GlyphClass: 2
Flags: W
LayerCount: 2
Fore
SplineSet
5 1213 m 1,0,1
 -22 1251 -22 1251 -54 1287.5 c 128,-1,2
 -86 1324 -86 1324 -121 1356 c 1,3,4
 -95 1396 -95 1396 -66 1432.5 c 128,-1,5
 -37 1469 -37 1469 -4 1501 c 1,6,7
 31 1469 31 1469 63 1431 c 128,-1,8
 95 1393 95 1393 122 1353 c 1,9,10
 89 1321 89 1321 60 1286 c 128,-1,11
 31 1251 31 1251 5 1213 c 1,0,1
EndSplineSet
Validated: 1
EndChar
StartChar: uni0598
Encoding: 44 1432 9
Width: 0
GlyphClass: 2
Flags: W
LayerCount: 2
Fore
SplineSet
167 1531 m 1,0,1
 212 1509 212 1509 238.5 1475 c 128,-1,2
 265 1441 265 1441 265 1395 c 0,3,4
 265 1363 265 1363 254 1336.5 c 128,-1,5
 243 1310 243 1310 224 1290.5 c 128,-1,6
 205 1271 205 1271 179 1260 c 128,-1,7
 153 1249 153 1249 124 1249 c 0,8,9
 93 1249 93 1249 69 1259 c 128,-1,10
 45 1269 45 1269 26.5 1285.5 c 128,-1,11
 8 1302 8 1302 -6 1322 c 128,-1,12
 -20 1342 -20 1342 -32 1362 c 0,13,14
 -41 1377 -41 1377 -50 1392 c 128,-1,15
 -59 1407 -59 1407 -69.5 1419 c 128,-1,16
 -80 1431 -80 1431 -92 1439 c 128,-1,17
 -104 1447 -104 1447 -120 1447 c 0,18,19
 -145 1447 -145 1447 -163 1428.5 c 128,-1,20
 -181 1410 -181 1410 -181 1381 c 0,21,22
 -181 1360 -181 1360 -167 1343 c 128,-1,23
 -153 1326 -153 1326 -127 1317 c 1,24,-1
 -166 1243 l 1,25,26
 -212 1266 -212 1266 -238.5 1299.5 c 128,-1,27
 -265 1333 -265 1333 -265 1380 c 0,28,29
 -265 1411 -265 1411 -254 1438 c 128,-1,30
 -243 1465 -243 1465 -223.5 1484 c 128,-1,31
 -204 1503 -204 1503 -178 1514 c 128,-1,32
 -152 1525 -152 1525 -122 1525 c 0,33,34
 -91 1525 -91 1525 -67.5 1515 c 128,-1,35
 -44 1505 -44 1505 -26 1489 c 128,-1,36
 -8 1473 -8 1473 6.5 1453 c 128,-1,37
 21 1433 21 1433 33 1413 c 0,38,39
 43 1397 43 1397 52.5 1382 c 128,-1,40
 62 1367 62 1367 72 1355 c 128,-1,41
 82 1343 82 1343 94 1336 c 128,-1,42
 106 1329 106 1329 120 1329 c 0,43,44
 145 1329 145 1329 163 1347.5 c 128,-1,45
 181 1366 181 1366 181 1394 c 0,46,47
 181 1414 181 1414 167 1430.5 c 128,-1,48
 153 1447 153 1447 127 1457 c 1,49,-1
 167 1531 l 1,0,1
EndSplineSet
Validated: 1
EndChar
StartChar: uni0599
Encoding: 45 1433 10
Width: 0
GlyphClass: 2
Flags: W
LayerCount: 2
Fore
SplineSet
-482 1640 m 1,0,1
 -423 1628 -423 1628 -384 1604.5 c 128,-1,2
 -345 1581 -345 1581 -322 1549.5 c 128,-1,3
 -299 1518 -299 1518 -289.5 1480.5 c 128,-1,4
 -280 1443 -280 1443 -280 1403 c 0,5,6
 -280 1380 -280 1380 -281 1360.5 c 128,-1,7
 -282 1341 -282 1341 -283.5 1321 c 128,-1,8
 -285 1301 -285 1301 -287 1279.5 c 128,-1,9
 -289 1258 -289 1258 -292 1232 c 1,10,-1
 -381 1222 l 1,11,12
 -376 1276 -376 1276 -372 1322 c 128,-1,13
 -368 1368 -368 1368 -368 1406 c 0,14,15
 -368 1433 -368 1433 -374.5 1456.5 c 128,-1,16
 -381 1480 -381 1480 -396 1499.5 c 128,-1,17
 -411 1519 -411 1519 -436.5 1533.5 c 128,-1,18
 -462 1548 -462 1548 -500 1557 c 1,19,-1
 -482 1640 l 1,0,1
EndSplineSet
Validated: 1
EndChar
StartChar: uni059A
Encoding: 46 1434 10
Width: 0
GlyphClass: 2
Flags: W
LayerCount: 2
Fore
SplineSet
650 -515 m 1,0,-1
 592 -587 l 1,1,-1
 325 -379 l 1,2,-1
 592 -171 l 1,3,-1
 650 -243 l 1,4,-1
 459 -376 l 1,5,-1
 650 -515 l 1,0,-1
EndSplineSet
Validated: 1
EndChar
StartChar: uni059B
Encoding: 47 1435 11
Width: 0
GlyphClass: 2
Flags: W
LayerCount: 2
Fore
SplineSet
-70 -504 m 1,0,1
 -32 -495 -32 -495 -6.5 -480.5 c 128,-1,2
 19 -466 19 -466 34 -446.5 c 128,-1,3
 49 -427 49 -427 55.5 -403.5 c 128,-1,4
 62 -380 62 -380 62 -353 c 0,5,6
 62 -314 62 -314 58.5 -269.5 c 128,-1,7
 55 -225 55 -225 50 -179 c 1,8,-1
 137 -169 l 1,9,10
 142 -214 142 -214 146 -259.5 c 128,-1,11
 150 -305 150 -305 150 -350 c 0,12,13
 150 -391 150 -391 140.5 -428 c 128,-1,14
 131 -465 131 -465 108 -496.5 c 128,-1,15
 85 -528 85 -528 46 -551.5 c 128,-1,16
 7 -575 7 -575 -52 -587 c 1,17,-1
 -70 -504 l 1,0,1
-179 -334 m 0,18,19
 -179 -302 -179 -302 -157 -279.5 c 128,-1,20
 -135 -257 -135 -257 -102 -257 c 0,21,22
 -70 -257 -70 -257 -47.5 -279.5 c 128,-1,23
 -25 -302 -25 -302 -25 -334 c 0,24,25
 -25 -367 -25 -367 -47.5 -389 c 128,-1,26
 -70 -411 -70 -411 -102 -411 c 0,27,28
 -135 -411 -135 -411 -157 -389 c 128,-1,29
 -179 -367 -179 -367 -179 -334 c 0,18,19
EndSplineSet
Validated: 1
EndChar
StartChar: uni059C
Encoding: 48 1436 12
Width: 0
GlyphClass: 2
Flags: W
LayerCount: 2
Fore
SplineSet
168 1557 m 1,0,1
 130 1548 130 1548 104.5 1533.5 c 128,-1,2
 79 1519 79 1519 64 1499.5 c 128,-1,3
 49 1480 49 1480 42.5 1456.5 c 128,-1,4
 36 1433 36 1433 36 1406 c 0,5,6
 36 1367 36 1367 39.5 1322.5 c 128,-1,7
 43 1278 43 1278 48 1232 c 1,8,-1
 -39 1222 l 1,9,10
 -44 1267 -44 1267 -48 1312.5 c 128,-1,11
 -52 1358 -52 1358 -52 1403 c 0,12,13
 -52 1443 -52 1443 -42.5 1480.5 c 128,-1,14
 -33 1518 -33 1518 -10 1549.5 c 128,-1,15
 13 1581 13 1581 52 1604.5 c 128,-1,16
 91 1628 91 1628 150 1640 c 1,17,-1
 168 1557 l 1,0,1
EndSplineSet
Validated: 1
EndChar
StartChar: uni059D
Encoding: 49 1437 14
Width: 0
GlyphClass: 2
Flags: W
LayerCount: 2
Fore
SplineSet
500 1557 m 1,0,1
 462 1548 462 1548 436.5 1533.5 c 128,-1,2
 411 1519 411 1519 396 1499.5 c 128,-1,3
 381 1480 381 1480 374.5 1456.5 c 128,-1,4
 368 1433 368 1433 368 1406 c 0,5,6
 368 1367 368 1367 371.5 1322.5 c 128,-1,7
 375 1278 375 1278 380 1232 c 1,8,-1
 293 1222 l 1,9,10
 288 1267 288 1267 284 1312.5 c 128,-1,11
 280 1358 280 1358 280 1403 c 0,12,13
 280 1443 280 1443 289.5 1480.5 c 128,-1,14
 299 1518 299 1518 322 1549.5 c 128,-1,15
 345 1581 345 1581 384 1604.5 c 128,-1,16
 423 1628 423 1628 482 1640 c 1,17,-1
 500 1557 l 1,0,1
EndSplineSet
Validated: 1
EndChar
StartChar: uni059E
Encoding: 50 1438 14
Width: 0
GlyphClass: 2
Flags: W
LayerCount: 2
Fore
SplineSet
285 1557 m 1,0,1
 247 1548 247 1548 221.5 1533.5 c 128,-1,2
 196 1519 196 1519 181 1499.5 c 128,-1,3
 166 1480 166 1480 159.5 1456.5 c 128,-1,4
 153 1433 153 1433 153 1406 c 0,5,6
 153 1367 153 1367 156.5 1322.5 c 128,-1,7
 160 1278 160 1278 165 1232 c 1,8,-1
 78 1222 l 1,9,10
 73 1267 73 1267 69 1312.5 c 128,-1,11
 65 1358 65 1358 65 1403 c 0,12,13
 65 1443 65 1443 74.5 1480.5 c 128,-1,14
 84 1518 84 1518 107 1549.5 c 128,-1,15
 130 1581 130 1581 169 1604.5 c 128,-1,16
 208 1628 208 1628 267 1640 c 1,17,-1
 285 1557 l 1,0,1
55 1557 m 1,18,19
 17 1548 17 1548 -8.5 1533.5 c 128,-1,20
 -34 1519 -34 1519 -49 1499.5 c 128,-1,21
 -64 1480 -64 1480 -70.5 1456.5 c 128,-1,22
 -77 1433 -77 1433 -77 1406 c 0,23,24
 -77 1367 -77 1367 -73.5 1322.5 c 128,-1,25
 -70 1278 -70 1278 -65 1232 c 1,26,-1
 -152 1222 l 1,27,28
 -157 1267 -157 1267 -161 1312.5 c 128,-1,29
 -165 1358 -165 1358 -165 1403 c 0,30,31
 -165 1443 -165 1443 -155.5 1480.5 c 128,-1,32
 -146 1518 -146 1518 -123 1549.5 c 128,-1,33
 -100 1581 -100 1581 -61 1604.5 c 128,-1,34
 -22 1628 -22 1628 37 1640 c 1,35,-1
 55 1557 l 1,18,19
EndSplineSet
Validated: 1
EndChar
StartChar: uni059F
Encoding: 51 1439 16
Width: 0
GlyphClass: 2
Flags: W
LayerCount: 2
Fore
SplineSet
-2 1199 m 1,0,-1
 -153 1347 l 1,1,2
 -200 1311 -200 1311 -263 1311 c 0,3,4
 -305 1311 -305 1311 -340.5 1326 c 128,-1,5
 -376 1341 -376 1341 -401.5 1367 c 128,-1,6
 -427 1393 -427 1393 -441.5 1428 c 128,-1,7
 -456 1463 -456 1463 -456 1503 c 256,8,9
 -456 1543 -456 1543 -441.5 1578 c 128,-1,10
 -427 1613 -427 1613 -401.5 1639.5 c 128,-1,11
 -376 1666 -376 1666 -340.5 1681 c 128,-1,12
 -305 1696 -305 1696 -263 1696 c 256,13,14
 -221 1696 -221 1696 -185.5 1681 c 128,-1,15
 -150 1666 -150 1666 -124.5 1639.5 c 128,-1,16
 -99 1613 -99 1613 -85 1578 c 128,-1,17
 -71 1543 -71 1543 -71 1503 c 0,18,19
 -71 1472 -71 1472 -80 1445 c 128,-1,20
 -89 1418 -89 1418 -106 1395 c 1,21,-1
 0 1295 l 1,22,-1
 106 1395 l 1,23,24
 89 1418 89 1418 80 1445 c 128,-1,25
 71 1472 71 1472 71 1503 c 0,26,27
 71 1543 71 1543 85 1578 c 128,-1,28
 99 1613 99 1613 124.5 1639.5 c 128,-1,29
 150 1666 150 1666 185.5 1681 c 128,-1,30
 221 1696 221 1696 263 1696 c 256,31,32
 305 1696 305 1696 340.5 1681 c 128,-1,33
 376 1666 376 1666 401.5 1639.5 c 128,-1,34
 427 1613 427 1613 441.5 1578 c 128,-1,35
 456 1543 456 1543 456 1503 c 256,36,37
 456 1463 456 1463 441.5 1428 c 128,-1,38
 427 1393 427 1393 401.5 1367 c 128,-1,39
 376 1341 376 1341 340.5 1326 c 128,-1,40
 305 1311 305 1311 263 1311 c 0,41,42
 200 1311 200 1311 153 1347 c 1,43,-1
 2 1199 l 1,44,-1
 -2 1199 l 1,0,-1
-143 1503 m 256,45,46
 -143 1528 -143 1528 -151.5 1550.5 c 128,-1,47
 -160 1573 -160 1573 -175.5 1590 c 128,-1,48
 -191 1607 -191 1607 -213.5 1617 c 128,-1,49
 -236 1627 -236 1627 -263 1627 c 256,50,51
 -290 1627 -290 1627 -312.5 1617 c 128,-1,52
 -335 1607 -335 1607 -350.5 1590 c 128,-1,53
 -366 1573 -366 1573 -374.5 1550.5 c 128,-1,54
 -383 1528 -383 1528 -383 1503 c 256,55,56
 -383 1478 -383 1478 -374.5 1455.5 c 128,-1,57
 -366 1433 -366 1433 -350.5 1416 c 128,-1,58
 -335 1399 -335 1399 -312.5 1389 c 128,-1,59
 -290 1379 -290 1379 -263 1379 c 256,60,61
 -236 1379 -236 1379 -213.5 1389 c 128,-1,62
 -191 1399 -191 1399 -175.5 1416 c 128,-1,63
 -160 1433 -160 1433 -151.5 1455.5 c 128,-1,64
 -143 1478 -143 1478 -143 1503 c 256,45,46
143 1503 m 256,65,66
 143 1478 143 1478 151.5 1455.5 c 128,-1,67
 160 1433 160 1433 175.5 1416 c 128,-1,68
 191 1399 191 1399 213.5 1389 c 128,-1,69
 236 1379 236 1379 263 1379 c 256,70,71
 290 1379 290 1379 312.5 1389 c 128,-1,72
 335 1399 335 1399 350.5 1416 c 128,-1,73
 366 1433 366 1433 374.5 1455.5 c 128,-1,74
 383 1478 383 1478 383 1503 c 256,75,76
 383 1528 383 1528 374.5 1550.5 c 128,-1,77
 366 1573 366 1573 350.5 1590 c 128,-1,78
 335 1607 335 1607 312.5 1617 c 128,-1,79
 290 1627 290 1627 263 1627 c 256,80,81
 236 1627 236 1627 213.5 1617 c 128,-1,82
 191 1607 191 1607 175.5 1590 c 128,-1,83
 160 1573 160 1573 151.5 1550.5 c 128,-1,84
 143 1528 143 1528 143 1503 c 256,65,66
EndSplineSet
Validated: 1
EndChar
StartChar: uni05A0
Encoding: 52 1440 16
Width: 0
GlyphClass: 2
Flags: W
LayerCount: 2
Fore
SplineSet
282 1503 m 256,0,1
 282 1478 282 1478 290.5 1455.5 c 128,-1,2
 299 1433 299 1433 314.5 1416 c 128,-1,3
 330 1399 330 1399 352.5 1389 c 128,-1,4
 375 1379 375 1379 402 1379 c 256,5,6
 429 1379 429 1379 451.5 1389 c 128,-1,7
 474 1399 474 1399 489.5 1416 c 128,-1,8
 505 1433 505 1433 513.5 1455.5 c 128,-1,9
 522 1478 522 1478 522 1503 c 256,10,11
 522 1528 522 1528 513.5 1550.5 c 128,-1,12
 505 1573 505 1573 489.5 1590 c 128,-1,13
 474 1607 474 1607 451.5 1617 c 128,-1,14
 429 1627 429 1627 402 1627 c 256,15,16
 375 1627 375 1627 352.5 1617 c 128,-1,17
 330 1607 330 1607 314.5 1590 c 128,-1,18
 299 1573 299 1573 290.5 1550.5 c 128,-1,19
 282 1528 282 1528 282 1503 c 256,0,1
210 1503 m 0,20,21
 210 1543 210 1543 224 1578 c 128,-1,22
 238 1613 238 1613 263.5 1639.5 c 128,-1,23
 289 1666 289 1666 324.5 1681 c 128,-1,24
 360 1696 360 1696 402 1696 c 256,25,26
 444 1696 444 1696 479.5 1681 c 128,-1,27
 515 1666 515 1666 540.5 1639.5 c 128,-1,28
 566 1613 566 1613 580.5 1578 c 128,-1,29
 595 1543 595 1543 595 1503 c 256,30,31
 595 1463 595 1463 580.5 1428 c 128,-1,32
 566 1393 566 1393 540.5 1367 c 128,-1,33
 515 1341 515 1341 479.5 1326 c 128,-1,34
 444 1311 444 1311 402 1311 c 0,35,36
 390 1311 390 1311 371 1315 c 128,-1,37
 352 1319 352 1319 336 1324 c 1,38,-1
 258 1178 l 1,39,-1
 190 1217 l 1,40,-1
 278 1358 l 1,41,42
 258 1376 258 1376 244.5 1395 c 128,-1,43
 231 1414 231 1414 223.5 1433 c 128,-1,44
 216 1452 216 1452 213 1470 c 128,-1,45
 210 1488 210 1488 210 1503 c 0,20,21
EndSplineSet
Validated: 1
EndChar
StartChar: uni05A1
Encoding: 53 1441 17
Width: 0
GlyphClass: 2
Flags: W
LayerCount: 2
Fore
SplineSet
-85 1227 m 1,0,-1
 -85 1625 l 1,1,-1
 0 1635 l 1,2,-1
 0 1422 l 1,3,4
 17 1418 17 1418 36 1418 c 0,5,6
 80 1418 80 1418 103 1448.5 c 128,-1,7
 126 1479 126 1479 126 1550 c 0,8,9
 126 1567 126 1567 125 1585 c 128,-1,10
 124 1603 124 1603 122 1624 c 1,11,-1
 205 1633 l 1,12,13
 211 1595 211 1595 211 1551 c 0,14,15
 211 1512 211 1512 203.5 1474 c 128,-1,16
 196 1436 196 1436 177.5 1406.5 c 128,-1,17
 159 1377 159 1377 128.5 1358.5 c 128,-1,18
 98 1340 98 1340 52 1340 c 0,19,20
 28 1340 28 1340 0 1346 c 1,21,-1
 0 1237 l 1,22,-1
 -85 1227 l 1,0,-1
EndSplineSet
Validated: 1
EndChar
StartChar: uni05A3
Encoding: 55 1443 19
Width: 0
GlyphClass: 4
Flags: W
LayerCount: 2
Fore
SplineSet
147 -572 m 1,0,-1
 -147 -572 l 1,1,-1
 -137 -487 l 1,2,-1
 62 -487 l 1,3,-1
 62 -184 l 1,4,-1
 147 -174 l 1,5,-1
 147 -572 l 1,0,-1
EndSplineSet
Validated: 1
EndChar
StartChar: uni05A4
Encoding: 56 1444 21
Width: 0
GlyphClass: 4
Flags: W
LayerCount: 2
Fore
SplineSet
158 -515 m 1,0,-1
 100 -587 l 1,1,-1
 -167 -379 l 1,2,-1
 100 -171 l 1,3,-1
 158 -243 l 1,4,-1
 -33 -376 l 1,5,-1
 158 -515 l 1,0,-1
EndSplineSet
Validated: 1
EndChar
StartChar: uni05A5
Encoding: 57 1445 22
Width: 0
GlyphClass: 4
Flags: W
LayerCount: 2
Fore
SplineSet
-168 -504 m 1,0,1
 -130 -495 -130 -495 -104.5 -480.5 c 128,-1,2
 -79 -466 -79 -466 -64 -446.5 c 128,-1,3
 -49 -427 -49 -427 -42.5 -403.5 c 128,-1,4
 -36 -380 -36 -380 -36 -353 c 0,5,6
 -36 -314 -36 -314 -39.5 -269.5 c 128,-1,7
 -43 -225 -43 -225 -48 -179 c 1,8,-1
 39 -169 l 1,9,10
 44 -214 44 -214 48 -259.5 c 128,-1,11
 52 -305 52 -305 52 -350 c 0,12,13
 52 -391 52 -391 42.5 -428 c 128,-1,14
 33 -465 33 -465 10 -496.5 c 128,-1,15
 -13 -528 -13 -528 -52 -551.5 c 128,-1,16
 -91 -575 -91 -575 -150 -587 c 1,17,-1
 -168 -504 l 1,0,1
EndSplineSet
Validated: 1
EndChar
StartChar: uni05A6
Encoding: 58 1446 23
Width: 0
GlyphClass: 4
Flags: W
LayerCount: 2
Fore
SplineSet
-285 -504 m 1,0,1
 -247 -495 -247 -495 -221.5 -480.5 c 128,-1,2
 -196 -466 -196 -466 -181 -446.5 c 128,-1,3
 -166 -427 -166 -427 -159.5 -403.5 c 128,-1,4
 -153 -380 -153 -380 -153 -353 c 0,5,6
 -153 -314 -153 -314 -156.5 -269.5 c 128,-1,7
 -160 -225 -160 -225 -165 -179 c 1,8,-1
 -78 -169 l 1,9,10
 -73 -214 -73 -214 -69 -259.5 c 128,-1,11
 -65 -305 -65 -305 -65 -350 c 0,12,13
 -65 -391 -65 -391 -74.5 -428 c 128,-1,14
 -84 -465 -84 -465 -107 -496.5 c 128,-1,15
 -130 -528 -130 -528 -169 -551.5 c 128,-1,16
 -208 -575 -208 -575 -267 -587 c 1,17,-1
 -285 -504 l 1,0,1
-55 -504 m 1,18,19
 -17 -495 -17 -495 8.5 -480.5 c 128,-1,20
 34 -466 34 -466 49 -446.5 c 128,-1,21
 64 -427 64 -427 70.5 -403.5 c 128,-1,22
 77 -380 77 -380 77 -353 c 0,23,24
 77 -314 77 -314 73.5 -269.5 c 128,-1,25
 70 -225 70 -225 65 -179 c 1,26,-1
 152 -169 l 1,27,28
 157 -214 157 -214 161 -259.5 c 128,-1,29
 165 -305 165 -305 165 -350 c 0,30,31
 165 -391 165 -391 155.5 -428 c 128,-1,32
 146 -465 146 -465 123 -496.5 c 128,-1,33
 100 -528 100 -528 61 -551.5 c 128,-1,34
 22 -575 22 -575 -37 -587 c 1,35,-1
 -55 -504 l 1,18,19
EndSplineSet
Validated: 1
EndChar
StartChar: uni05A7
Encoding: 59 1447 23
Width: 0
GlyphClass: 4
Flags: W
LayerCount: 2
Fore
SplineSet
-109 -512 m 1,0,1
 -99 -510 -99 -510 -89 -508.5 c 128,-1,2
 -79 -507 -79 -507 -71 -505 c 0,3,4
 -43 -501 -43 -501 -22 -496.5 c 128,-1,5
 -1 -492 -1 -492 13 -485.5 c 128,-1,6
 27 -479 27 -479 33.5 -467.5 c 128,-1,7
 40 -456 40 -456 40 -437 c 0,8,9
 40 -433 40 -433 -11 -418 c 0,10,11
 -50 -406 -50 -406 -72 -396.5 c 128,-1,12
 -94 -387 -94 -387 -105 -376.5 c 128,-1,13
 -116 -366 -116 -366 -119 -353 c 128,-1,14
 -122 -340 -122 -340 -122 -321 c 0,15,16
 -122 -282 -122 -282 -111 -255.5 c 128,-1,17
 -100 -229 -100 -229 -75 -211 c 128,-1,18
 -50 -193 -50 -193 -9.5 -182 c 128,-1,19
 31 -171 31 -171 89 -163 c 1,20,-1
 96 -244 l 1,21,22
 91 -245 91 -245 86 -245.5 c 128,-1,23
 81 -246 81 -246 76 -247 c 0,24,25
 74 -247 74 -247 72 -247.5 c 128,-1,26
 70 -248 70 -248 68 -248 c 0,27,28
 45 -252 45 -252 25 -256.5 c 128,-1,29
 5 -261 5 -261 -9.5 -268.5 c 128,-1,30
 -24 -276 -24 -276 -32 -287 c 128,-1,31
 -40 -298 -40 -298 -40 -316 c 0,32,33
 -40 -319 -40 -319 11 -334 c 0,34,35
 50 -346 50 -346 72 -356 c 128,-1,36
 94 -366 94 -366 105 -376.5 c 128,-1,37
 116 -387 116 -387 119 -400 c 128,-1,38
 122 -413 122 -413 122 -432 c 0,39,40
 122 -472 122 -472 110 -499 c 128,-1,41
 98 -526 98 -526 71 -544 c 128,-1,42
 44 -562 44 -562 1 -573 c 128,-1,43
 -42 -584 -42 -584 -104 -592 c 1,44,-1
 -109 -512 l 1,0,1
EndSplineSet
Validated: 1
EndChar
StartChar: uni05A8
Encoding: 60 1448 25
Width: 0
GlyphClass: 4
Flags: W
LayerCount: 2
Fore
SplineSet
-150 1640 m 1,0,1
 -91 1628 -91 1628 -52 1604.5 c 128,-1,2
 -13 1581 -13 1581 10 1549.5 c 128,-1,3
 33 1518 33 1518 42.5 1480.5 c 128,-1,4
 52 1443 52 1443 52 1403 c 0,5,6
 52 1380 52 1380 51 1360.5 c 128,-1,7
 50 1341 50 1341 48.5 1321 c 128,-1,8
 47 1301 47 1301 45 1279.5 c 128,-1,9
 43 1258 43 1258 40 1232 c 1,10,-1
 -49 1222 l 1,11,12
 -44 1276 -44 1276 -40 1322 c 128,-1,13
 -36 1368 -36 1368 -36 1406 c 0,14,15
 -36 1433 -36 1433 -42.5 1456.5 c 128,-1,16
 -49 1480 -49 1480 -64 1499.5 c 128,-1,17
 -79 1519 -79 1519 -104.5 1533.5 c 128,-1,18
 -130 1548 -130 1548 -168 1557 c 1,19,-1
 -150 1640 l 1,0,1
EndSplineSet
Validated: 1
EndChar
StartChar: uni05A9
Encoding: 61 1449 25
Width: 0
GlyphClass: 4
Flags: W
LayerCount: 2
Fore
SplineSet
-282 1503 m 256,0,1
 -282 1528 -282 1528 -290.5 1550.5 c 128,-1,2
 -299 1573 -299 1573 -314.5 1590 c 128,-1,3
 -330 1607 -330 1607 -352.5 1617 c 128,-1,4
 -375 1627 -375 1627 -402 1627 c 256,5,6
 -429 1627 -429 1627 -451.5 1617 c 128,-1,7
 -474 1607 -474 1607 -489.5 1590 c 128,-1,8
 -505 1573 -505 1573 -513.5 1550.5 c 128,-1,9
 -522 1528 -522 1528 -522 1503 c 256,10,11
 -522 1478 -522 1478 -513.5 1455.5 c 128,-1,12
 -505 1433 -505 1433 -489.5 1416 c 128,-1,13
 -474 1399 -474 1399 -451.5 1389 c 128,-1,14
 -429 1379 -429 1379 -402 1379 c 256,15,16
 -375 1379 -375 1379 -352.5 1389 c 128,-1,17
 -330 1399 -330 1399 -314.5 1416 c 128,-1,18
 -299 1433 -299 1433 -290.5 1455.5 c 128,-1,19
 -282 1478 -282 1478 -282 1503 c 256,0,1
-210 1503 m 0,20,21
 -210 1472 -210 1472 -224 1432.5 c 128,-1,22
 -238 1393 -238 1393 -278 1358 c 1,23,-1
 -190 1217 l 1,24,-1
 -258 1178 l 1,25,-1
 -336 1324 l 1,26,27
 -352 1319 -352 1319 -371 1315 c 128,-1,28
 -390 1311 -390 1311 -402 1311 c 0,29,30
 -444 1311 -444 1311 -479.5 1326 c 128,-1,31
 -515 1341 -515 1341 -540.5 1367 c 128,-1,32
 -566 1393 -566 1393 -580.5 1428 c 128,-1,33
 -595 1463 -595 1463 -595 1503 c 256,34,35
 -595 1543 -595 1543 -580.5 1578 c 128,-1,36
 -566 1613 -566 1613 -540.5 1639.5 c 128,-1,37
 -515 1666 -515 1666 -479.5 1681 c 128,-1,38
 -444 1696 -444 1696 -402 1696 c 256,39,40
 -360 1696 -360 1696 -324.5 1681 c 128,-1,41
 -289 1666 -289 1666 -263.5 1639.5 c 128,-1,42
 -238 1613 -238 1613 -224 1578 c 128,-1,43
 -210 1543 -210 1543 -210 1503 c 0,20,21
EndSplineSet
Validated: 1
EndChar
StartChar: uni05AA
Encoding: 62 1450 26
Width: 0
GlyphClass: 4
Flags: W
LayerCount: 2
Fore
SplineSet
-42 -595 m 1,0,-1
 -42 -465 l 1,1,2
 -85 -458 -85 -458 -112 -437 c 128,-1,3
 -139 -416 -139 -416 -154 -387 c 128,-1,4
 -169 -358 -169 -358 -174 -324 c 128,-1,5
 -179 -290 -179 -290 -179 -256 c 0,6,7
 -179 -234 -179 -234 -177.5 -213.5 c 128,-1,8
 -176 -193 -176 -193 -174 -174 c 1,9,-1
 -89 -167 l 1,10,11
 -92 -190 -92 -190 -93 -207 c 128,-1,12
 -94 -224 -94 -224 -94 -242 c 0,13,14
 -94 -320 -94 -320 -68.5 -353 c 128,-1,15
 -43 -386 -43 -386 2 -386 c 0,16,17
 48 -386 48 -386 71.5 -354.5 c 128,-1,18
 95 -323 95 -323 95 -248 c 0,19,20
 95 -231 95 -231 94 -213 c 128,-1,21
 93 -195 93 -195 91 -174 c 1,22,-1
 175 -167 l 1,23,24
 177 -186 177 -186 178.5 -206 c 128,-1,25
 180 -226 180 -226 180 -248 c 0,26,27
 180 -284 180 -284 174 -319.5 c 128,-1,28
 168 -355 168 -355 153 -385 c 128,-1,29
 138 -415 138 -415 111.5 -436.5 c 128,-1,30
 85 -458 85 -458 43 -465 c 1,31,-1
 43 -585 l 1,32,-1
 -42 -595 l 1,0,-1
EndSplineSet
Validated: 1
EndChar
StartChar: uni05AB
Encoding: 63 1451 27
Width: 0
GlyphClass: 4
Flags: W
LayerCount: 2
Fore
SplineSet
215 1295 m 1,0,-1
 157 1223 l 1,1,-1
 -110 1431 l 1,2,-1
 157 1639 l 1,3,-1
 215 1567 l 1,4,-1
 24 1434 l 1,5,-1
 215 1295 l 1,0,-1
EndSplineSet
Validated: 1
EndChar
StartChar: uni05AC
Encoding: 64 1452 28
Width: 0
GlyphClass: 4
Flags: W
LayerCount: 2
Fore
SplineSet
152 1203 m 1,0,-1
 -152 1203 l 1,1,-1
 -142 1288 l 1,2,-1
 67 1288 l 1,3,-1
 67 1591 l 1,4,-1
 152 1601 l 1,5,-1
 152 1203 l 1,0,-1
EndSplineSet
Validated: 1
EndChar
StartChar: uni05AD
Encoding: 65 1453 29
Width: 0
GlyphClass: 4
Flags: W
LayerCount: 2
Fore
SplineSet
577 -587 m 1,0,1
 518 -575 518 -575 479 -551.5 c 128,-1,2
 440 -528 440 -528 417 -496.5 c 128,-1,3
 394 -465 394 -465 384.5 -428 c 128,-1,4
 375 -391 375 -391 375 -350 c 0,5,6
 375 -328 375 -328 376 -308 c 128,-1,7
 377 -288 377 -288 378.5 -268 c 128,-1,8
 380 -248 380 -248 382 -226.5 c 128,-1,9
 384 -205 384 -205 387 -179 c 1,10,-1
 476 -169 l 1,11,12
 471 -223 471 -223 467 -269 c 128,-1,13
 463 -315 463 -315 463 -353 c 0,14,15
 463 -380 463 -380 469.5 -403.5 c 128,-1,16
 476 -427 476 -427 491 -446.5 c 128,-1,17
 506 -466 506 -466 531.5 -480.5 c 128,-1,18
 557 -495 557 -495 595 -504 c 1,19,-1
 577 -587 l 1,0,1
EndSplineSet
Validated: 1
EndChar
StartChar: uni05AE
Encoding: 66 1454 31
Width: 0
GlyphClass: 4
Flags: W
LayerCount: 2
Fore
SplineSet
-313 1531 m 1,0,1
 -268 1509 -268 1509 -241.5 1475 c 128,-1,2
 -215 1441 -215 1441 -215 1395 c 0,3,4
 -215 1363 -215 1363 -226 1336.5 c 128,-1,5
 -237 1310 -237 1310 -256 1290.5 c 128,-1,6
 -275 1271 -275 1271 -301 1260 c 128,-1,7
 -327 1249 -327 1249 -356 1249 c 0,8,9
 -387 1249 -387 1249 -411 1259 c 128,-1,10
 -435 1269 -435 1269 -453.5 1285.5 c 128,-1,11
 -472 1302 -472 1302 -486 1322 c 128,-1,12
 -500 1342 -500 1342 -512 1362 c 0,13,14
 -521 1377 -521 1377 -530 1392 c 128,-1,15
 -539 1407 -539 1407 -549.5 1419 c 128,-1,16
 -560 1431 -560 1431 -572 1439 c 128,-1,17
 -584 1447 -584 1447 -600 1447 c 0,18,19
 -625 1447 -625 1447 -643 1428.5 c 128,-1,20
 -661 1410 -661 1410 -661 1381 c 0,21,22
 -661 1360 -661 1360 -647 1343 c 128,-1,23
 -633 1326 -633 1326 -607 1317 c 1,24,-1
 -646 1243 l 1,25,26
 -692 1266 -692 1266 -718.5 1299.5 c 128,-1,27
 -745 1333 -745 1333 -745 1380 c 0,28,29
 -745 1411 -745 1411 -734 1438 c 128,-1,30
 -723 1465 -723 1465 -703.5 1484 c 128,-1,31
 -684 1503 -684 1503 -658 1514 c 128,-1,32
 -632 1525 -632 1525 -602 1525 c 0,33,34
 -571 1525 -571 1525 -547.5 1515 c 128,-1,35
 -524 1505 -524 1505 -506 1489 c 128,-1,36
 -488 1473 -488 1473 -473.5 1453 c 128,-1,37
 -459 1433 -459 1433 -447 1413 c 0,38,39
 -437 1397 -437 1397 -427.5 1382 c 128,-1,40
 -418 1367 -418 1367 -408 1355 c 128,-1,41
 -398 1343 -398 1343 -386 1336 c 128,-1,42
 -374 1329 -374 1329 -360 1329 c 0,43,44
 -335 1329 -335 1329 -317 1347.5 c 128,-1,45
 -299 1366 -299 1366 -299 1394 c 0,46,47
 -299 1414 -299 1414 -313 1430.5 c 128,-1,48
 -327 1447 -327 1447 -353 1457 c 1,49,-1
 -313 1531 l 1,0,1
EndSplineSet
Validated: 1
EndChar
StartChar: uni05AF
Encoding: 67 1455 31
Width: 0
GlyphClass: 2
Flags: W
LayerCount: 2
Fore
SplineSet
-195 1501 m 0,0,1
 -195 1541 -195 1541 -179.5 1577 c 128,-1,2
 -164 1613 -164 1613 -138 1639 c 128,-1,3
 -112 1665 -112 1665 -76.5 1680.5 c 128,-1,4
 -41 1696 -41 1696 0 1696 c 0,5,6
 40 1696 40 1696 76 1680.5 c 128,-1,7
 112 1665 112 1665 138 1639 c 128,-1,8
 164 1613 164 1613 179.5 1577 c 128,-1,9
 195 1541 195 1541 195 1501 c 0,10,11
 195 1460 195 1460 179.5 1424.5 c 128,-1,12
 164 1389 164 1389 138 1363 c 128,-1,13
 112 1337 112 1337 76 1321.5 c 128,-1,14
 40 1306 40 1306 0 1306 c 0,15,16
 -41 1306 -41 1306 -76.5 1321.5 c 128,-1,17
 -112 1337 -112 1337 -138 1363 c 128,-1,18
 -164 1389 -164 1389 -179.5 1424.5 c 128,-1,19
 -195 1460 -195 1460 -195 1501 c 0,0,1
-137 1501 m 256,20,21
 -137 1471 -137 1471 -126.5 1445.5 c 128,-1,22
 -116 1420 -116 1420 -97 1400.5 c 128,-1,23
 -78 1381 -78 1381 -53.5 1370 c 128,-1,24
 -29 1359 -29 1359 0 1359 c 0,25,26
 28 1359 28 1359 53 1370 c 128,-1,27
 78 1381 78 1381 97 1400.5 c 128,-1,28
 116 1420 116 1420 126.5 1445.5 c 128,-1,29
 137 1471 137 1471 137 1501 c 256,30,31
 137 1531 137 1531 126.5 1556.5 c 128,-1,32
 116 1582 116 1582 97 1601.5 c 128,-1,33
 78 1621 78 1621 53 1632 c 128,-1,34
 28 1643 28 1643 0 1643 c 0,35,36
 -29 1643 -29 1643 -53.5 1632 c 128,-1,37
 -78 1621 -78 1621 -97 1601.5 c 128,-1,38
 -116 1582 -116 1582 -126.5 1556.5 c 128,-1,39
 -137 1531 -137 1531 -137 1501 c 256,20,21
EndSplineSet
Validated: 1
EndChar
StartChar: sheva
Encoding: 68 1456 32
Width: 0
GlyphClass: 4
InSpiro: 1
Flags: W
AnchorPoint: "Meteg" -220 0 basemark 0
AnchorPoint: "Bottom Narrow Point" -2.5 -3.20001 mark 0
LayerCount: 2
Fore
SplineSet
0 -587 m 0,0,1
 -31 -587 -31 -587 -50.5 -563.5 c 128,-1,2
 -70 -540 -70 -540 -70 -505 c 0,3,4
 -70 -469 -70 -469 -50 -446 c 128,-1,5
 -30 -423 -30 -423 0 -423 c 0,6,7
 31 -423 31 -423 50.5 -446.5 c 128,-1,8
 70 -470 70 -470 70 -505 c 0,9,10
 70 -541 70 -541 50 -564 c 128,-1,11
 30 -587 30 -587 0 -587 c 0,0,1
  Spiro
    0 -587 o
    -28.125 -581.125 o
    -50.5 -563.5 o
    -65.125 -537.125 o
    -70 -505 o
    -65 -472.25 o
    -50 -446 o
    -27.5 -428.75 o
    0 -423 o
    28.125 -428.875 o
    50.5 -446.5 o
    65.125 -472.875 o
    70 -505 o
    65 -537.75 o
    50 -564 o
    27.5 -581.25 o
    0 0 z
  EndSpiro
0 -333 m 0,12,13
 -31 -333 -31 -333 -50.5 -309.5 c 128,-1,14
 -70 -286 -70 -286 -70 -251 c 0,15,16
 -70 -215 -70 -215 -50 -192 c 128,-1,17
 -30 -169 -30 -169 0 -169 c 0,18,19
 31 -169 31 -169 50.5 -192.5 c 128,-1,20
 70 -216 70 -216 70 -251 c 0,21,22
 70 -287 70 -287 50 -310 c 128,-1,23
 30 -333 30 -333 0 -333 c 0,12,13
  Spiro
    0 -333 o
    -28.125 -327.125 o
    -50.5 -309.5 o
    -65.125 -283.125 o
    -70 -251 o
    -65 -218.25 o
    -50 -192 o
    -27.5 -174.75 o
    0 -169 o
    28.125 -174.875 o
    50.5 -192.5 o
    65.125 -218.875 o
    70 -251 o
    65 -283.75 o
    50 -310 o
    27.5 -327.25 o
    0 0 z
  EndSpiro
EndSplineSet
Validated: 1
Position2: "move vowel" dx=30 dy=0 dh=0 dv=0 [ddx={} ddy={} ddh={} ddv={}]
EndChar
StartChar: hatafsegol
Encoding: 69 1457 33
Width: 0
GlyphClass: 4
Flags: W
AnchorPoint: "Bottom Wide Point" -0 0 mark 0
LayerCount: 2
Fore
SplineSet
234 -587 m 0,0,1
 203 -587 203 -587 183.5 -563.5 c 128,-1,2
 164 -540 164 -540 164 -505 c 0,3,4
 164 -469 164 -469 184.5 -446 c 128,-1,5
 205 -423 205 -423 234 -423 c 0,6,7
 265 -423 265 -423 284.5 -446.5 c 128,-1,8
 304 -470 304 -470 304 -505 c 0,9,10
 304 -541 304 -541 284 -564 c 128,-1,11
 264 -587 264 -587 234 -587 c 0,0,1
234 -333 m 0,12,13
 203 -333 203 -333 183.5 -309.5 c 128,-1,14
 164 -286 164 -286 164 -251 c 0,15,16
 164 -215 164 -215 184.5 -192 c 128,-1,17
 205 -169 205 -169 234 -169 c 0,18,19
 265 -169 265 -169 284.5 -192.5 c 128,-1,20
 304 -216 304 -216 304 -251 c 0,21,22
 304 -287 304 -287 284 -310 c 128,-1,23
 264 -333 264 -333 234 -333 c 0,12,13
0 -169 m 0,24,25
 31 -169 31 -169 51.5 -192.5 c 128,-1,26
 72 -216 72 -216 72 -251 c 0,27,28
 72 -287 72 -287 51.5 -310 c 128,-1,29
 31 -333 31 -333 0 -333 c 128,-1,30
 -31 -333 -31 -333 -49.5 -309.5 c 128,-1,31
 -68 -286 -68 -286 -68 -251 c 0,32,33
 -68 -215 -68 -215 -48.5 -192 c 128,-1,34
 -29 -169 -29 -169 0 -169 c 0,24,25
-116 -423 m 0,35,36
 -85 -423 -85 -423 -65.5 -446.5 c 128,-1,37
 -46 -470 -46 -470 -46 -505 c 0,38,39
 -46 -541 -46 -541 -66 -564 c 128,-1,40
 -86 -587 -86 -587 -116 -587 c 0,41,42
 -147 -587 -147 -587 -166.5 -563.5 c 128,-1,43
 -186 -540 -186 -540 -186 -505 c 0,44,45
 -186 -469 -186 -469 -166 -446 c 128,-1,46
 -146 -423 -146 -423 -116 -423 c 0,35,36
-234 -169 m 0,47,48
 -203 -169 -203 -169 -183.5 -192.5 c 128,-1,49
 -164 -216 -164 -216 -164 -251 c 0,50,51
 -164 -287 -164 -287 -184.5 -310 c 128,-1,52
 -205 -333 -205 -333 -234 -333 c 0,53,54
 -265 -333 -265 -333 -284.5 -309.5 c 128,-1,55
 -304 -286 -304 -286 -304 -251 c 0,56,57
 -304 -215 -304 -215 -284 -192 c 128,-1,58
 -264 -169 -264 -169 -234 -169 c 0,47,48
EndSplineSet
Validated: 1
EndChar
StartChar: hatafpatah
Encoding: 70 1458 35
Width: 0
GlyphClass: 4
Flags: W
AnchorPoint: "Bottom Wide Point" 0 0 mark 0
LayerCount: 2
Fore
SplineSet
31 -288 m 1,0,-1
 -267 -288 l 1,1,-1
 -267 -194 l 1,2,-1
 31 -194 l 1,3,-1
 31 -288 l 1,0,-1
197 -587 m 256,4,5
 167 -587 167 -587 147.5 -563.5 c 128,-1,6
 128 -540 128 -540 128 -505 c 0,7,8
 128 -469 128 -469 147.5 -446 c 128,-1,9
 167 -423 167 -423 197 -423 c 0,10,11
 228 -423 228 -423 247.5 -446.5 c 128,-1,12
 267 -470 267 -470 267 -505 c 0,13,14
 267 -541 267 -541 247 -564 c 128,-1,15
 227 -587 227 -587 197 -587 c 256,4,5
197 -333 m 256,16,17
 167 -333 167 -333 147.5 -309.5 c 128,-1,18
 128 -286 128 -286 128 -251 c 0,19,20
 128 -215 128 -215 147.5 -192 c 128,-1,21
 167 -169 167 -169 197 -169 c 0,22,23
 228 -169 228 -169 247.5 -192.5 c 128,-1,24
 267 -216 267 -216 267 -251 c 0,25,26
 267 -287 267 -287 247 -310 c 128,-1,27
 227 -333 227 -333 197 -333 c 256,16,17
EndSplineSet
Validated: 1
EndChar
StartChar: hatafqamats
Encoding: 71 1459 35
Width: 0
GlyphClass: 4
Flags: W
AnchorPoint: "Meteg" -450 0 basemark 0
AnchorPoint: "Bottom Wide Point" 0 0 mark 0
LayerCount: 2
Fore
SplineSet
-140 -288 m 1,0,-1
 -266 -288 l 1,1,-1
 -266 -194 l 1,2,-1
 30 -194 l 1,3,-1
 30 -288 l 1,4,-1
 -98 -288 l 1,5,-1
 -98 -322 l 1,6,-1
 -98 -324 l 2,7,8
 -98 -376 -98 -376 -84 -410 c 2,9,-1
 -48 -500 l 1,10,11
 -71 -557 -71 -557 -98 -584 c 1,12,13
 -122 -590 -122 -590 -140 -584 c 1,14,15
 -170 -559 -170 -559 -188 -500 c 1,16,-1
 -152 -410 l 2,17,18
 -140 -383 -140 -383 -140 -326 c 2,19,-1
 -140 -322 l 1,20,21
 -140 -322 -140 -322 -140 -288 c 1,0,-1
196 -587 m 256,22,23
 166 -587 166 -587 147 -563.5 c 128,-1,24
 128 -540 128 -540 128 -505 c 0,25,26
 128 -469 128 -469 147.5 -446 c 128,-1,27
 167 -423 167 -423 196 -423 c 0,28,29
 227 -423 227 -423 246.5 -446.5 c 128,-1,30
 266 -470 266 -470 266 -505 c 0,31,32
 266 -541 266 -541 246 -564 c 128,-1,33
 226 -587 226 -587 196 -587 c 256,22,23
196 -333 m 256,34,35
 166 -333 166 -333 147 -309.5 c 128,-1,36
 128 -286 128 -286 128 -251 c 0,37,38
 128 -215 128 -215 147.5 -192 c 128,-1,39
 167 -169 167 -169 196 -169 c 0,40,41
 227 -169 227 -169 246.5 -192.5 c 128,-1,42
 266 -216 266 -216 266 -251 c 0,43,44
 266 -287 266 -287 246 -310 c 128,-1,45
 226 -333 226 -333 196 -333 c 256,34,35
EndSplineSet
Validated: 1
Position2: "move vowel" dx=130 dy=0 dh=0 dv=0 [ddx={} ddy={} ddh={} ddv={}]
EndChar
StartChar: hiriq
Encoding: 72 1460 37
Width: 0
GlyphClass: 4
Flags: W
AnchorPoint: "Bottom Narrow Point" 0 0 mark 0
LayerCount: 2
Fore
SplineSet
0 -333 m 0,0,1
 -31 -333 -31 -333 -50.5 -309.5 c 128,-1,2
 -70 -286 -70 -286 -70 -251 c 0,3,4
 -70 -215 -70 -215 -50 -192 c 128,-1,5
 -30 -169 -30 -169 0 -169 c 0,6,7
 31 -169 31 -169 50.5 -192.5 c 128,-1,8
 70 -216 70 -216 70 -251 c 0,9,10
 70 -287 70 -287 50 -310 c 128,-1,11
 30 -333 30 -333 0 -333 c 0,0,1
EndSplineSet
Validated: 1
EndChar
StartChar: tsere
Encoding: 73 1461 38
Width: 0
GlyphClass: 4
Flags: W
AnchorPoint: "Bottom Regular Point" 0 0 mark 0
LayerCount: 2
Fore
SplineSet
178 -251 m 0,0,1
 178 -287 178 -287 158 -310 c 128,-1,2
 138 -333 138 -333 108 -333 c 0,3,4
 77 -333 77 -333 57.5 -309.5 c 128,-1,5
 38 -286 38 -286 38 -251 c 0,6,7
 38 -215 38 -215 58 -192 c 128,-1,8
 78 -169 78 -169 108 -169 c 0,9,10
 139 -169 139 -169 158.5 -192.5 c 128,-1,11
 178 -216 178 -216 178 -251 c 0,0,1
-38 -251 m 0,12,13
 -38 -287 -38 -287 -58 -310 c 128,-1,14
 -78 -333 -78 -333 -108 -333 c 0,15,16
 -139 -333 -139 -333 -158.5 -309.5 c 128,-1,17
 -178 -286 -178 -286 -178 -251 c 0,18,19
 -178 -215 -178 -215 -158 -192 c 128,-1,20
 -138 -169 -138 -169 -108 -169 c 0,21,22
 -77 -169 -77 -169 -57.5 -192.5 c 128,-1,23
 -38 -216 -38 -216 -38 -251 c 0,12,13
EndSplineSet
Validated: 1
EndChar
StartChar: segol
Encoding: 74 1462 38
Width: 0
GlyphClass: 4
Flags: W
AnchorPoint: "Meteg" -350 0 basemark 0
AnchorPoint: "Bottom Regular Point" 0 0 mark 0
LayerCount: 2
Fore
SplineSet
118 -169 m 0,0,1
 149 -169 149 -169 168.5 -192.5 c 128,-1,2
 188 -216 188 -216 188 -251 c 0,3,4
 188 -287 188 -287 168 -310 c 128,-1,5
 148 -333 148 -333 118 -333 c 0,6,7
 87 -333 87 -333 67.5 -309.5 c 128,-1,8
 48 -286 48 -286 48 -251 c 0,9,10
 48 -215 48 -215 68 -192 c 128,-1,11
 88 -169 88 -169 118 -169 c 0,0,1
0 -413 m 0,12,13
 31 -413 31 -413 50.5 -436.5 c 128,-1,14
 70 -460 70 -460 70 -495 c 0,15,16
 70 -531 70 -531 50 -554 c 128,-1,17
 30 -577 30 -577 0 -577 c 0,18,19
 -31 -577 -31 -577 -50.5 -553.5 c 128,-1,20
 -70 -530 -70 -530 -70 -495 c 0,21,22
 -70 -459 -70 -459 -50 -436 c 128,-1,23
 -30 -413 -30 -413 0 -413 c 0,12,13
-118 -169 m 0,24,25
 -87 -169 -87 -169 -67.5 -192.5 c 128,-1,26
 -48 -216 -48 -216 -48 -251 c 0,27,28
 -48 -287 -48 -287 -68 -310 c 128,-1,29
 -88 -333 -88 -333 -118 -333 c 0,30,31
 -149 -333 -149 -333 -168.5 -309.5 c 128,-1,32
 -188 -286 -188 -286 -188 -251 c 0,33,34
 -188 -215 -188 -215 -168 -192 c 128,-1,35
 -148 -169 -148 -169 -118 -169 c 0,24,25
EndSplineSet
Validated: 1
Position2: "move vowel" dx=70 dy=0 dh=0 dv=0 [ddx={} ddy={} ddh={} ddv={}]
EndChar
StartChar: patah
Encoding: 75 1463 39
Width: 0
GlyphClass: 4
Flags: W
AnchorPoint: "Bottom Regular Point" 0 0 mark 0
LayerCount: 2
Fore
SplineSet
150 -288 m 1,0,-1
 -150 -288 l 1,1,-1
 -150 -194 l 1,2,-1
 150 -194 l 1,3,-1
 150 -288 l 1,0,-1
EndSplineSet
Validated: 1
EndChar
StartChar: qamats
Encoding: 76 1464 41
Width: 0
GlyphClass: 4
Flags: W
AnchorPoint: "Bottom Regular Point" 0 0 mark 0
LayerCount: 2
Fore
SplineSet
-22 -288 m 1,0,-1
 -148 -288 l 1,1,-1
 -148 -194 l 1,2,-1
 148 -194 l 1,3,-1
 148 -288 l 1,4,-1
 20 -288 l 1,5,-1
 20 -322 l 1,6,7
 20 -322 20 -322 20 -325 c 0,8,9
 20 -368 20 -368 34 -410 c 2,10,-1
 70 -500 l 1,11,12
 47 -558 47 -558 20 -585 c 1,13,14
 -2 -590 -2 -590 -22 -584 c 1,15,16
 -52 -559 -52 -559 -70 -500 c 1,17,-1
 -34 -410 l 2,18,19
 -22 -384 -22 -384 -22 -326 c 2,20,-1
 -22 -323 l 1,21,22
 -22 -323 -22 -323 -22 -288 c 1,0,-1
EndSplineSet
Validated: 1
EndChar
StartChar: qubuts
Encoding: 79 1467 44
Width: 0
GlyphClass: 4
Flags: W
AnchorPoint: "Bottom Regular Point" 0 0 mark 0
LayerCount: 2
Fore
SplineSet
-154 -323 m 0,0,1
 -183 -323 -183 -323 -202.5 -300 c 128,-1,2
 -222 -277 -222 -277 -222 -244 c 0,3,4
 -222 -210 -222 -210 -203 -187 c 128,-1,5
 -184 -164 -184 -164 -154 -164 c 128,-1,6
 -124 -164 -124 -164 -105 -187 c 128,-1,7
 -86 -210 -86 -210 -86 -244 c 128,-1,8
 -86 -278 -86 -278 -106 -300.5 c 128,-1,9
 -126 -323 -126 -323 -154 -323 c 0,0,1
154 -591 m 256,10,11
 125 -591 125 -591 105.5 -568 c 128,-1,12
 86 -545 86 -545 86 -512 c 0,13,14
 86 -478 86 -478 105 -455 c 128,-1,15
 124 -432 124 -432 154 -432 c 128,-1,16
 184 -432 184 -432 203 -455 c 128,-1,17
 222 -478 222 -478 222 -512 c 0,18,19
 222 -547 222 -547 202.5 -569 c 128,-1,20
 183 -591 183 -591 154 -591 c 256,10,11
-4 -453 m 256,21,22
 -33 -453 -33 -453 -51.5 -430 c 128,-1,23
 -70 -407 -70 -407 -70 -374 c 0,24,25
 -70 -340 -70 -340 -51.5 -317 c 128,-1,26
 -33 -294 -33 -294 -4 -294 c 0,27,28
 26 -294 26 -294 45 -317 c 128,-1,29
 64 -340 64 -340 64 -374 c 0,30,31
 64 -409 64 -409 44.5 -431 c 128,-1,32
 25 -453 25 -453 -4 -453 c 256,21,22
EndSplineSet
Validated: 1
EndChar
StartChar: dagesh
Encoding: 80 1468 45
Width: 0
GlyphClass: 4
Flags: W
AnchorPoint: "Dagesh" 0 519 mark 0
LayerCount: 2
Fore
SplineSet
0 437 m 0,0,1
 -31 437 -31 437 -50.5 460.5 c 128,-1,2
 -70 484 -70 484 -70 519 c 0,3,4
 -70 555 -70 555 -50 578 c 128,-1,5
 -30 601 -30 601 0 601 c 0,6,7
 31 601 31 601 50.5 577.5 c 128,-1,8
 70 554 70 554 70 519 c 0,9,10
 70 483 70 483 50 460 c 128,-1,11
 30 437 30 437 0 437 c 0,0,1
EndSplineSet
Validated: 1
EndChar
StartChar: meteg
Encoding: 81 1469 45
Width: 0
GlyphClass: 4
Flags: W
AnchorPoint: "Meteg" 0 0 mark 0
AnchorPoint: "Bottom Regular Point" 0 0 mark 0
LayerCount: 2
Fore
SplineSet
49 -194 m 1,0,-1
 49 -587 l 1,1,-1
 -45 -587 l 1,2,-1
 -45 -194 l 1,3,-1
 49 -194 l 1,0,-1
EndSplineSet
Validated: 1
EndChar
StartChar: maqaf
Encoding: 82 1470 46
Width: 631
GlyphClass: 2
Flags: W
LayerCount: 2
Fore
SplineSet
78 830 m 2,0,1
 74 830 74 830 74 837 c 0,2,3
 74 848 74 848 98 942 c 2,4,-1
 125 1046 l 2,5,6
 128 1053 128 1053 133 1053 c 2,7,-1
 562 1053 l 2,8,9
 567 1053 567 1053 567 1046 c 2,10,-1
 539 942 l 2,11,12
 529 901 529 901 519 859 c 0,13,14
 513 830 513 830 507 830 c 2,15,-1
 78 830 l 2,0,1
EndSplineSet
Validated: 1
EndChar
StartChar: rafe
Encoding: 83 1471 47
Width: 0
GlyphClass: 2
Flags: W
LayerCount: 2
Fore
SplineSet
155 1224 m 5,0,-1
 -155 1224 l 5,1,-1
 -155 1318 l 5,2,-1
 155 1318 l 5,3,-1
 155 1224 l 5,0,-1
EndSplineSet
Validated: 1
EndChar
StartChar: paseq
Encoding: 84 1472 49
Width: 600
GlyphClass: 2
Flags: W
LayerCount: 2
Fore
SplineSet
342 -164 m 1,0,-1
 258 -164 l 1,1,-1
 258 1229 l 1,2,-1
 342 1229 l 1,3,-1
 342 -164 l 1,0,-1
EndSplineSet
Validated: 1
EndChar
StartChar: shindot
Encoding: 85 1473 49
Width: 0
GlyphClass: 4
Flags: W
AnchorPoint: "ShinDot" 10 1297 mark 0
LayerCount: 2
Fore
SplineSet
0 1222 m 0,0,1
 -31 1222 -31 1222 -50.5 1245.5 c 128,-1,2
 -70 1269 -70 1269 -70 1304 c 0,3,4
 -70 1340 -70 1340 -50 1363 c 128,-1,5
 -30 1386 -30 1386 0 1386 c 0,6,7
 31 1386 31 1386 50.5 1362.5 c 128,-1,8
 70 1339 70 1339 70 1304 c 0,9,10
 70 1268 70 1268 50 1245 c 128,-1,11
 30 1222 30 1222 0 1222 c 0,0,1
EndSplineSet
Validated: 1
EndChar
StartChar: sofpasuq
Encoding: 87 1475 52
Width: 490
GlyphClass: 2
Flags: W
LayerCount: 2
Fore
SplineSet
197 973 m 0,0,1
 240 927 240 927 278.5 898 c 128,-1,2
 317 869 317 869 331 860.5 c 128,-1,3
 345 852 345 852 345 844 c 0,4,5
 345 835 345 835 343 832 c 2,6,-1
 293 751 l 1,7,-1
 247 668 l 2,8,9
 244 663 244 663 238 663 c 0,10,11
 217 663 217 663 163.5 706 c 128,-1,12
 110 749 110 749 80 783 c 0,13,14
 74 791 74 791 80 802 c 0,15,16
 140 913 140 913 178 970 c 0,17,18
 185 982 185 982 197 973 c 0,0,1
197 292 m 0,19,20
 225 262 225 262 251 239 c 128,-1,21
 277 216 277 216 293 205 c 128,-1,22
 309 194 309 194 321 186 c 128,-1,23
 333 178 333 178 338.5 173.5 c 128,-1,24
 344 169 344 169 345 164 c 0,25,26
 346 156 346 156 343 151 c 2,27,-1
 293 70 l 1,28,-1
 247 -13 l 2,29,30
 244 -18 244 -18 238 -18 c 0,31,32
 217 -18 217 -18 163.5 25 c 128,-1,33
 110 68 110 68 80 102 c 0,34,35
 74 110 74 110 80 121 c 0,36,37
 140 232 140 232 178 289 c 0,38,39
 185 301 185 301 197 292 c 0,19,20
EndSplineSet
Validated: 1
EndChar
StartChar: uni05C6
Encoding: 89 1478 54
Width: 637
GlyphClass: 2
Flags: W
LayerCount: 2
Fore
SplineSet
218 556 m 0,0,1
 218 597 218 597 205.5 657.5 c 128,-1,2
 193 718 193 718 193 751 c 0,3,4
 193 786 193 786 201 819 c 1,5,6
 157 825 157 825 136 861 c 128,-1,7
 115 897 115 897 115 948 c 0,8,9
 115 1011 115 1011 157 1132 c 1,10,-1
 200 1132 l 1,11,12
 219 1084 219 1084 254 1067.5 c 128,-1,13
 289 1051 289 1051 341 1051 c 0,14,15
 358 1051 358 1051 392 1053 c 128,-1,16
 426 1055 426 1055 442 1055 c 0,17,18
 476 1055 476 1055 503 1048 c 1,19,-1
 444 814 l 1,20,21
 409 819 409 819 384 819 c 0,22,23
 268 819 268 819 268 730 c 0,24,25
 268 679 268 679 279.5 569.5 c 128,-1,26
 291 460 291 460 291 407 c 0,27,28
 291 400 291 400 290.5 387.5 c 128,-1,29
 290 375 290 375 290 369 c 2,30,-1
 268 240 l 1,31,-1
 508 240 l 1,32,-1
 574 0 l 1,33,-1
 167 0 l 1,34,35
 156 44 156 44 156 127 c 0,36,37
 156 171 156 171 187 312.5 c 128,-1,38
 218 454 218 454 218 556 c 0,0,1
EndSplineSet
Validated: 1
EndChar
StartChar: uni05C7
Encoding: 90 1479 54
Width: 0
GlyphClass: 4
Flags: W
AnchorPoint: "Bottom Regular Point" 0 0 mark 0
LayerCount: 2
Fore
SplineSet
-23 -278 m 1,0,-1
 -148 -278 l 1,1,-1
 -148 -184 l 1,2,-1
 148 -184 l 1,3,-1
 148 -278 l 1,4,-1
 24 -278 l 1,5,-1
 24 -320 l 1,6,7
 24 -320 24 -320 24 -324 c 0,8,9
 24 -431 24 -431 35 -460 c 2,10,-1
 71 -550 l 1,11,12
 50 -607 50 -607 21 -636 c 1,13,14
 -5 -640 -5 -640 -23 -634 c 1,15,16
 -51 -610 -51 -610 -68 -550 c 1,17,-1
 -33 -460 l 2,18,19
 -23 -440 -23 -440 -23 -326 c 2,20,-1
 -23 -322 l 1,21,22
 -23 -322 -23 -322 -23 -278 c 1,0,-1
EndSplineSet
Validated: 1
EndChar
StartChar: alef
Encoding: 91 1488 55
Width: 1048
GlyphClass: 2
Flags: W
AnchorPoint: "Top" 507 1317 basechar 0
AnchorPoint: "Bottom Narrow Point" 600 0 basechar 0
AnchorPoint: "Bottom Regular Point" 600 0 basechar 0
AnchorPoint: "Bottom Wide Point" 600 0 basechar 0
AnchorPoint: "Holam" 240 1300 basechar 0
LayerCount: 2
Fore
SplineSet
875 1039 m 1,0,1
 981 1001 981 1001 981 902 c 0,2,3
 981 820 981 820 915 735 c 1,4,-1
 896 735 l 1,5,6
 896 735 896 735 896 760 c 2,7,8
 896 760 896 760 896 772 c 0,9,10
 896 790 896 790 889.5 798.5 c 128,-1,11
 883 807 883 807 860 807 c 1,12,13
 808 726 808 726 787 670.5 c 128,-1,14
 766 615 766 615 766 563 c 0,15,16
 766 487 766 487 819 425 c 2,17,-1
 912 318 l 2,18,19
 990 230 990 230 990 134 c 0,20,21
 990 47 990 47 920 -17 c 1,22,-1
 893 -17 l 1,23,24
 893 53 893 53 841 112 c 2,25,-1
 407 610 l 1,26,27
 296 554 296 554 296 466 c 0,28,29
 296 432 296 432 315 397 c 128,-1,30
 334 362 334 362 362 332 c 2,31,-1
 416 270 l 2,32,33
 444 240 444 240 463 204 c 128,-1,34
 482 168 482 168 482 134 c 0,35,36
 482 87 482 87 448.5 43.5 c 128,-1,37
 415 0 415 0 379 0 c 2,38,-1
 376 0 l 1,39,-1
 187 0 l 1,40,-1
 187 28 l 1,41,42
 247 44 247 44 247 97 c 0,43,44
 247 124 247 124 203.5 227.5 c 128,-1,45
 160 331 160 331 160 378 c 0,46,47
 160 533 160 533 369 652 c 1,48,-1
 247 791 l 2,49,50
 171 879 171 879 171 974 c 0,51,52
 171 1062 171 1062 239 1136 c 1,53,-1
 265 1136 l 1,54,55
 265 1055 265 1055 317 996 c 2,56,-1
 693 569 l 1,57,58
 719 701 719 701 794 814 c 1,59,60
 645 838 645 838 645 998 c 0,61,62
 645 1077 645 1077 686 1136 c 1,63,-1
 712 1136 l 1,64,65
 729 1074 729 1074 789 1059 c 2,66,-1
 875 1039 l 1,0,1
EndSplineSet
Validated: 1
PairPos2: "kerning-2" ayin.wide dx=-135 dy=0 dh=-135 dv=0 dx=0 dy=0 dh=0 dv=0
EndChar
StartChar: bet
Encoding: 92 1489 57
Width: 967
GlyphClass: 2
Flags: W
AnchorPoint: "Top" 507 1317 basechar 0
AnchorPoint: "Holam" 253 1300 basechar 0
AnchorPoint: "Dagesh" 503 538 basechar 0
AnchorPoint: "Bottom Narrow Point" 500 0 basechar 0
AnchorPoint: "Bottom Regular Point" 500 0 basechar 0
AnchorPoint: "Bottom Wide Point" 500 0 basechar 0
LayerCount: 2
Fore
SplineSet
561 814 m 2,0,-1
 334 814 l 2,1,2
 262 814 262 814 222.5 857 c 128,-1,3
 183 900 183 900 183 966 c 0,4,5
 183 1060 183 1060 244 1130 c 1,6,-1
 270 1130 l 1,7,8
 287 1056 287 1056 370 1056 c 2,9,-1
 516 1056 l 2,10,11
 596 1056 596 1056 651 1049 c 128,-1,12
 706 1042 706 1042 745.5 1022.5 c 128,-1,13
 785 1003 785 1003 807.5 978.5 c 128,-1,14
 830 954 830 954 842.5 909 c 128,-1,15
 855 864 855 864 859 816.5 c 128,-1,16
 863 769 863 769 863 693 c 2,17,-1
 863 552 l 2,18,19
 863 435 863 435 849.5 368.5 c 128,-1,20
 836 302 836 302 798 240 c 1,21,-1
 944 240 l 1,22,23
 944 99 944 99 906 0 c 1,24,-1
 137 0 l 1,25,26
 132 25 132 25 132 46 c 0,27,28
 132 85 132 85 143.5 141.5 c 128,-1,29
 155 198 155 198 176 240 c 1,30,-1
 744 240 l 1,31,32
 769 368 769 368 769 525 c 0,33,34
 769 707 769 707 738 772 c 0,35,36
 724 800 724 800 684 807 c 128,-1,37
 644 814 644 814 561 814 c 2,0,-1
EndSplineSet
Validated: 1
PairPos2: "kerning-2" ayin.wide dx=-168 dy=0 dh=-168 dv=0 [ddx={} ddy={} ddh={} ddv={}] dx=0 dy=0 dh=0 dv=0 [ddx={} ddy={} ddh={} ddv={}]
PairPos2: "kerning-2" kaf dx=-36 dy=0 dh=-36 dv=0 [ddx={} ddy={} ddh={} ddv={}] dx=0 dy=0 dh=0 dv=0 [ddx={} ddy={} ddh={} ddv={}]
PairPos2: "kerning-2" pe dx=-43 dy=0 dh=-43 dv=0 [ddx={} ddy={} ddh={} ddv={}] dx=0 dy=0 dh=0 dv=0 [ddx={} ddy={} ddh={} ddv={}]
PairPos2: "kerning-2" samekh dx=-33 dy=0 dh=-33 dv=0 [ddx={} ddy={} ddh={} ddv={}] dx=0 dy=0 dh=0 dv=0 [ddx={} ddy={} ddh={} ddv={}]
EndChar
StartChar: gimel
Encoding: 93 1490 58
Width: 665
GlyphClass: 2
Flags: W
AnchorPoint: "Top" 367 1317 basechar 0
AnchorPoint: "Holam" 229 1300 basechar 0
AnchorPoint: "Dagesh" 222 538 basechar 0
AnchorPoint: "Bottom Narrow Point" 382 0 basechar 0
AnchorPoint: "Bottom Regular Point" 407 0 basechar 0
AnchorPoint: "Bottom Wide Point" 369 0 basechar 0
LayerCount: 2
Fore
SplineSet
468 599 m 0,0,1
 468 545 468 545 495 478.5 c 128,-1,2
 522 412 522 412 554.5 359 c 128,-1,3
 587 306 587 306 614 237 c 128,-1,4
 641 168 641 168 641 110 c 0,5,6
 641 37 641 37 604 -18 c 1,7,-1
 580 -18 l 1,8,-1
 436 326 l 1,9,-1
 422 326 l 1,10,-1
 288 0 l 1,11,-1
 76 -18 l 1,12,-1
 128 224 l 1,13,14
 142 226 142 226 177.5 231.5 c 128,-1,15
 213 237 213 237 226 240 c 128,-1,16
 239 243 239 243 262 250 c 128,-1,17
 285 257 285 257 300.5 268 c 128,-1,18
 316 279 316 279 330 296 c 0,19,20
 402 378 402 378 402 598 c 0,21,22
 402 654 402 654 397.5 691.5 c 128,-1,23
 393 729 393 729 388.5 749.5 c 128,-1,24
 384 770 384 770 370 782 c 128,-1,25
 356 794 356 794 347.5 797 c 128,-1,26
 339 800 339 800 317 805 c 2,27,-1
 278 814 l 2,28,29
 209 830 209 830 187.5 864.5 c 128,-1,30
 166 899 166 899 166 963 c 0,31,32
 166 1050 166 1050 229 1123 c 1,33,-1
 256 1123 l 1,34,35
 258 1112 258 1112 258.5 1095 c 128,-1,36
 259 1078 259 1078 260.5 1071.5 c 128,-1,37
 262 1065 262 1065 271 1059.5 c 128,-1,38
 280 1054 280 1054 299 1054 c 2,39,-1
 372 1047 l 1,40,41
 428 1047 428 1047 456 1009.5 c 128,-1,42
 484 972 484 972 484 905 c 0,43,44
 484 866 484 866 476 752 c 128,-1,45
 468 638 468 638 468 599 c 0,0,1
EndSplineSet
Validated: 1
PairPos2: "kerning-2" ayin.wide dx=-178 dy=0 dh=-178 dv=0 [ddx={} ddy={} ddh={} ddv={}] dx=0 dy=0 dh=0 dv=0 [ddx={} ddy={} ddh={} ddv={}]
PairPos2: "kerning-2" pe dx=-32 dy=0 dh=-32 dv=0 [ddx={} ddy={} ddh={} ddv={}] dx=0 dy=0 dh=0 dv=0 [ddx={} ddy={} ddh={} ddv={}]
EndChar
StartChar: dalet
Encoding: 94 1491 59
Width: 879
GlyphClass: 2
Flags: W
AnchorPoint: "Top" 457 1317 basechar 0
AnchorPoint: "Dagesh" 358 538 basechar 0
AnchorPoint: "Bottom Narrow Point" 595 0 basechar 0
AnchorPoint: "Bottom Regular Point" 547 0 basechar 0
AnchorPoint: "Bottom Wide Point" 448 0 basechar 0
LayerCount: 2
Fore
SplineSet
671 596 m 0,0,1
 671 540 671 540 682 385.5 c 128,-1,2
 693 231 693 231 693 175 c 0,3,4
 693 -1 693 -1 548 -25 c 1,5,-1
 531 0 l 1,6,7
 557 40 557 40 557 101 c 0,8,9
 557 170 557 170 552.5 274.5 c 128,-1,10
 548 379 548 379 548 423 c 0,11,12
 548 566 548 566 582.5 657 c 128,-1,13
 617 748 617 748 702 814 c 1,14,-1
 254 814 l 2,15,16
 179 814 179 814 139.5 855 c 128,-1,17
 100 896 100 896 100 962 c 0,18,19
 100 1061 100 1061 161 1126 c 1,20,-1
 187 1126 l 1,21,22
 204 1056 204 1056 287 1056 c 2,23,-1
 701 1056 l 2,24,25
 771 1056 771 1056 797.5 1030 c 128,-1,26
 824 1004 824 1004 824 937 c 0,27,28
 824 900 824 900 818 877.5 c 128,-1,29
 812 855 812 855 800.5 841 c 128,-1,30
 789 827 789 827 775.5 816.5 c 128,-1,31
 762 806 762 806 742.5 785 c 128,-1,32
 723 764 723 764 706 736 c 0,33,34
 671 681 671 681 671 596 c 0,0,1
EndSplineSet
Validated: 1
PairPos2: "kerning-2" ayin.wide dx=-39 dy=0 dh=-39 dv=0 [ddx={} ddy={} ddh={} ddv={}] dx=0 dy=0 dh=0 dv=0 [ddx={} ddy={} ddh={} ddv={}]
PairPos2: "kerning-2" bet dx=-47 dy=0 dh=-47 dv=0 [ddx={} ddy={} ddh={} ddv={}] dx=0 dy=0 dh=0 dv=0 [ddx={} ddy={} ddh={} ddv={}]
PairPos2: "kerning-2" gimel dx=-122 dy=0 dh=-122 dv=0 [ddx={} ddy={} ddh={} ddv={}] dx=0 dy=0 dh=0 dv=0 [ddx={} ddy={} ddh={} ddv={}]
PairPos2: "kerning-2" kaf dx=-41 dy=0 dh=-41 dv=0 [ddx={} ddy={} ddh={} ddv={}] dx=0 dy=0 dh=0 dv=0 [ddx={} ddy={} ddh={} ddv={}]
PairPos2: "kerning-2" mem dx=-86 dy=0 dh=-86 dv=0 [ddx={} ddy={} ddh={} ddv={}] dx=0 dy=0 dh=0 dv=0 [ddx={} ddy={} ddh={} ddv={}]
PairPos2: "kerning-2" pe dx=-48 dy=0 dh=-48 dv=0 [ddx={} ddy={} ddh={} ddv={}] dx=0 dy=0 dh=0 dv=0 [ddx={} ddy={} ddh={} ddv={}]
EndChar
StartChar: he
Encoding: 95 1492 60
Width: 1071
GlyphClass: 2
Flags: W
AnchorPoint: "Top" 557 1317 basechar 0
AnchorPoint: "Dagesh" 605 538 basechar 0
AnchorPoint: "Bottom Narrow Point" 580 0 basechar 0
AnchorPoint: "Bottom Regular Point" 580 0 basechar 0
AnchorPoint: "Bottom Wide Point" 580 0 basechar 0
LayerCount: 2
Fore
SplineSet
922 607 m 0,0,1
 922 540 922 540 945 391 c 128,-1,2
 968 242 968 242 968 175 c 0,3,4
 968 -2 968 -2 825 -25 c 1,5,-1
 809 -4 l 1,6,7
 835 42 835 42 835 101 c 0,8,9
 835 145 835 145 827 279.5 c 128,-1,10
 819 414 819 414 819 456 c 0,11,12
 819 584 819 584 839.5 666 c 128,-1,13
 860 748 860 748 916 814 c 1,14,-1
 346 814 l 2,15,16
 273 814 273 814 234.5 855 c 128,-1,17
 196 896 196 896 196 962 c 0,18,19
 196 1061 196 1061 257 1126 c 1,20,-1
 284 1126 l 1,21,22
 301 1056 301 1056 378 1056 c 2,23,-1
 866 1056 l 2,24,25
 943 1056 943 1056 969 1028 c 128,-1,26
 995 1000 995 1000 995 937 c 2,27,-1
 995 888 l 2,28,29
 995 862 995 862 983.5 837.5 c 128,-1,30
 972 813 972 813 958.5 793 c 128,-1,31
 945 773 945 773 933.5 724.5 c 128,-1,32
 922 676 922 676 922 607 c 0,0,1
361 293 m 0,33,34
 361 274 361 274 365 196 c 128,-1,35
 369 118 369 118 369 98 c 0,36,37
 369 36 369 36 331 1.5 c 128,-1,38
 293 -33 293 -33 219 -33 c 1,39,-1
 205 -11 l 1,40,41
 231 17 231 17 231 62 c 0,42,43
 231 81 231 81 228 156 c 128,-1,44
 225 231 225 231 225 250 c 0,45,46
 225 358 225 358 265 427 c 128,-1,47
 305 496 305 496 378 496 c 0,48,49
 398 496 398 496 412 488 c 1,50,-1
 412 461 l 1,51,52
 389 446 389 446 375 396 c 128,-1,53
 361 346 361 346 361 293 c 0,33,34
EndSplineSet
Validated: 1
PairPos2: "kerning-2" ayin.wide dx=-143 dy=0 dh=-143 dv=0 [ddx={} ddy={} ddh={} ddv={}] dx=0 dy=0 dh=0 dv=0 [ddx={} ddy={} ddh={} ddv={}]
PairPos2: "kerning-2" kaf dx=-49 dy=0 dh=-49 dv=0 [ddx={} ddy={} ddh={} ddv={}] dx=0 dy=0 dh=0 dv=0 [ddx={} ddy={} ddh={} ddv={}]
PairPos2: "kerning-2" mem dx=-56 dy=0 dh=-56 dv=0 [ddx={} ddy={} ddh={} ddv={}] dx=0 dy=0 dh=0 dv=0 [ddx={} ddy={} ddh={} ddv={}]
PairPos2: "kerning-2" pe dx=-58 dy=0 dh=-58 dv=0 [ddx={} ddy={} ddh={} ddv={}] dx=0 dy=0 dh=0 dv=0 [ddx={} ddy={} ddh={} ddv={}]
PairPos2: "kerning-2" samekh dx=-49 dy=0 dh=-49 dv=0 [ddx={} ddy={} ddh={} ddv={}] dx=0 dy=0 dh=0 dv=0 [ddx={} ddy={} ddh={} ddv={}]
PairPos2: "kerning-2" tet dx=-41 dy=0 dh=-41 dv=0 [ddx={} ddy={} ddh={} ddv={}] dx=0 dy=0 dh=0 dv=0 [ddx={} ddy={} ddh={} ddv={}]
MultipleSubs2: "wide letters" he.wide
EndChar
StartChar: vav
Encoding: 96 1493 60
Width: 484
GlyphClass: 2
Flags: W
AnchorPoint: "Top" 267 1317 basechar 0
AnchorPoint: "Holam" 363 1300 basechar 0
AnchorPoint: "Dagesh" 137 538 basechar 0
AnchorPoint: "Bottom Narrow Point" 353 0 basechar 0
AnchorPoint: "Bottom Wide Point" 192 0 basechar 0
AnchorPoint: "Bottom Regular Point" 325.625 0 basechar 0
LayerCount: 2
Fore
SplineSet
266 1056 m 0,0,1
 342 1056 342 1056 381 1002.5 c 128,-1,2
 420 949 420 949 420 824 c 2,3,-1
 420 107 l 2,4,5
 420 18 420 18 352 -17 c 1,6,-1
 330 -10 l 1,7,-1
 330 663 l 2,8,9
 330 733 330 733 308 770 c 0,10,11
 296 789 296 789 284 797 c 128,-1,12
 272 805 272 805 238 814 c 0,13,14
 156 835 156 835 121.5 859.5 c 128,-1,15
 87 884 87 884 76 944 c 0,16,17
 74 953 74 953 74 970 c 0,18,19
 74 1006 74 1006 91 1047 c 128,-1,20
 108 1088 108 1088 133 1112 c 1,21,-1
 160 1112 l 1,22,23
 167 1056 167 1056 266 1056 c 0,0,1
EndSplineSet
Validated: 1048577
PairPos2: "kerning-2" gimel dx=-59 dy=0 dh=-59 dv=0 dx=0 dy=0 dh=0 dv=0
PairPos2: "kerning-2" mem dx=-51 dy=0 dh=-51 dv=0 dx=0 dy=0 dh=0 dv=0
EndChar
StartChar: zayin
Encoding: 97 1494 61
Width: 549
GlyphClass: 2
Flags: W
AnchorPoint: "Top" 317 1317 basechar 0
AnchorPoint: "Holam" 159 1300 basechar 0
AnchorPoint: "Dagesh" 43 538 basechar 0
AnchorPoint: "Bottom Narrow Point" 279 0 basechar 0
AnchorPoint: "Bottom Regular Point" 222.5 0 basechar 0
AnchorPoint: "Bottom Wide Point" 316 0 basechar 0
LayerCount: 2
Fore
SplineSet
461 736 m 1,0,-1
 444 736 l 1,1,2
 439 762 439 762 406.5 781.5 c 128,-1,3
 374 801 374 801 340 808 c 1,4,5
 322 722 322 722 322 654 c 0,6,7
 322 572 322 572 353 418 c 128,-1,8
 384 264 384 264 384 193 c 0,9,10
 384 -3 384 -3 242 -25 c 1,11,-1
 223 -5 l 1,12,13
 255 41 255 41 255 105 c 0,14,15
 255 154 255 154 239 288 c 128,-1,16
 223 422 223 422 223 472 c 0,17,18
 223 650 223 650 297 808 c 1,19,20
 196 808 196 808 145 852.5 c 128,-1,21
 94 897 94 897 94 971 c 0,22,23
 94 1065 94 1065 149 1135 c 1,24,-1
 176 1135 l 1,25,26
 188 1078 188 1078 242 1066 c 1,27,28
 384 1066 384 1066 474 1008 c 0,29,30
 516 981 516 981 516 895 c 0,31,32
 516 807 516 807 461 736 c 1,0,-1
EndSplineSet
Validated: 1048577
PairPos2: "kerning-2" ayin.wide dx=-46 dy=0 dh=-46 dv=0 dx=0 dy=0 dh=0 dv=0
EndChar
StartChar: het
Encoding: 98 1495 63
Width: 1065
GlyphClass: 2
Flags: W
AnchorPoint: "Top" 567 1317 basechar 0
AnchorPoint: "Holam" 54 1300 basechar 0
AnchorPoint: "Dagesh" 583 538 basechar 0
AnchorPoint: "Bottom Narrow Point" 580 0 basechar 0
AnchorPoint: "Bottom Regular Point" 580 0 basechar 0
AnchorPoint: "Bottom Wide Point" 580 0 basechar 0
LayerCount: 2
Fore
SplineSet
913 607 m 0,0,1
 913 550 913 550 936.5 396 c 128,-1,2
 960 242 960 242 960 175 c 0,3,4
 960 -4 960 -4 820 -25 c 1,5,-1
 804 -4 l 1,6,7
 830 36 830 36 830 101 c 0,8,9
 830 145 830 145 822 279.5 c 128,-1,10
 814 414 814 414 814 456 c 0,11,12
 814 586 814 586 833.5 667 c 128,-1,13
 853 748 853 748 908 814 c 1,14,-1
 402 814 l 1,15,16
 356 780 356 780 341 733.5 c 128,-1,17
 326 687 326 687 326 597 c 0,18,19
 326 534 326 534 346 394.5 c 128,-1,20
 366 255 366 255 366 191 c 0,21,22
 366 -4 366 -4 217 -25 c 1,23,-1
 204 -4 l 1,24,25
 235 45 235 45 235 140 c 2,26,-1
 235 173 l 1,27,-1
 220 426 l 1,28,-1
 220 481 l 2,29,30
 220 593 220 593 248 671.5 c 128,-1,31
 276 750 276 750 344 814 c 1,32,33
 253 814 253 814 222 850 c 128,-1,34
 191 886 191 886 191 962 c 0,35,36
 191 1061 191 1061 252 1126 c 1,37,-1
 279 1126 l 1,38,39
 296 1056 296 1056 378 1056 c 2,40,-1
 861 1056 l 2,41,42
 932 1056 932 1056 961 1031.5 c 128,-1,43
 990 1007 990 1007 990 941 c 2,44,-1
 990 937 l 2,45,46
 990 886 990 886 978 848 c 128,-1,47
 966 810 966 810 951.5 788.5 c 128,-1,48
 937 767 937 767 925 720.5 c 128,-1,49
 913 674 913 674 913 607 c 0,0,1
EndSplineSet
Validated: 1048577
PairPos2: "kerning-2" ayin.wide dx=-142 dy=0 dh=-142 dv=0 dx=0 dy=0 dh=0 dv=0
MultipleSubs2: "wide letters" het.wide
EndChar
StartChar: tet
Encoding: 99 1496 64
Width: 1015
GlyphClass: 2
Flags: W
AnchorPoint: "Top" 567 1317 basechar 0
AnchorPoint: "Holam" -14 1300 basechar 0
AnchorPoint: "Dagesh" 676 538 basechar 0
AnchorPoint: "Bottom Narrow Point" 580 0 basechar 0
AnchorPoint: "Bottom Regular Point" 580 0 basechar 0
AnchorPoint: "Bottom Wide Point" 580 0 basechar 0
LayerCount: 2
Fore
SplineSet
262 814 m 1,0,1
 192 827 192 827 163 863 c 128,-1,2
 134 899 134 899 134 969 c 0,3,4
 134 1050 134 1050 176 1135 c 1,5,-1
 203 1135 l 1,6,7
 211 1057 211 1057 311 1057 c 0,8,9
 430 1057 430 1057 430 929 c 0,10,11
 430 907 430 907 421.5 847.5 c 128,-1,12
 413 788 413 788 406 767 c 1,13,14
 393 762 393 762 391 766.5 c 128,-1,15
 389 771 389 771 381.5 784.5 c 128,-1,16
 374 798 374 798 362 803 c 0,17,18
 358 804 358 804 340 809 c 128,-1,19
 322 814 322 814 310 814 c 1,20,21
 277 706 277 706 277 632 c 0,22,23
 277 540 277 540 301 453.5 c 128,-1,24
 325 367 325 367 380 240 c 1,25,-1
 794 240 l 1,26,27
 835 327 835 327 850 414 c 128,-1,28
 865 501 865 501 865 629 c 0,29,30
 865 730 865 730 820 772 c 128,-1,31
 775 814 775 814 708 814 c 0,32,33
 564 814 564 814 515 655 c 1,34,-1
 483 663 l 1,35,36
 567 1068 567 1068 755 1068 c 0,37,38
 942 1068 942 1068 942 630 c 0,39,40
 942 360 942 360 814 0 c 1,41,-1
 284 0 l 1,42,43
 284 70 284 70 248 271 c 128,-1,44
 212 472 212 472 212 565 c 0,45,46
 212 685 212 685 262 814 c 1,0,1
EndSplineSet
Validated: 1048577
PairPos2: "kerning-2" gimel dx=-36 dy=0 dh=-36 dv=0 dx=0 dy=0 dh=0 dv=0
PairPos2: "kerning-2" ayin.wide dx=-85 dy=0 dh=-85 dv=0 dx=0 dy=0 dh=0 dv=0
EndChar
StartChar: yod
Encoding: 100 1497 65
Width: 454
GlyphClass: 2
Flags: W
AnchorPoint: "Top" 227 1317 basechar 0
AnchorPoint: "Dagesh" 153 669 basechar 0
AnchorPoint: "Bottom Narrow Point" 250 0 basechar 0
AnchorPoint: "Bottom Regular Point" 220 0 basechar 0
AnchorPoint: "Bottom Wide Point" 220 0 basechar 0
LayerCount: 2
Fore
SplineSet
247 480 m 1,0,-1
 219 512 l 1,1,2
 272 552 272 552 292 593.5 c 128,-1,3
 312 635 312 635 312 705 c 2,4,-1
 312 741 l 2,5,6
 312 780 312 780 296 797 c 128,-1,7
 280 814 280 814 225 814 c 0,8,9
 146 814 146 814 106 860 c 128,-1,10
 66 906 66 906 66 978 c 128,-1,11
 66 1050 66 1050 113 1135 c 1,12,-1
 140 1135 l 1,13,14
 145 1100 145 1100 168 1080 c 128,-1,15
 191 1060 191 1060 231 1060 c 1,16,-1
 266 1056 l 1,17,18
 332 1056 332 1056 366 1008 c 128,-1,19
 400 960 400 960 400 871 c 2,20,-1
 400 795 l 2,21,22
 400 560 400 560 247 480 c 1,0,-1
EndSplineSet
Validated: 1048577
PairPos2: "kerning-2" gimel dx=-30 dy=0 dh=-30 dv=0 dx=0 dy=0 dh=0 dv=0
EndChar
StartChar: finalkaf
Encoding: 101 1498 66
Width: 846
GlyphClass: 2
Flags: W
AnchorPoint: "Top" 477 1317 basechar 0
AnchorPoint: "Bottom Narrow Point" 410 778 basechar 0
AnchorPoint: "Bottom Wide Point" 259 847 basechar 0
AnchorPoint: "Bottom Regular Point" 341 806 basechar 0
LayerCount: 2
Fore
SplineSet
737 800 m 2,0,1
 720 780 720 780 720 729 c 2,2,3
 720 729 720 729 720 720 c 2,4,-1
 752 -177 l 2,5,6
 752 -182 752 -182 752.5 -190 c 128,-1,7
 753 -198 753 -198 753 -202 c 0,8,9
 753 -266 753 -266 731.5 -300 c 128,-1,10
 710 -334 710 -334 657 -354 c 1,11,-1
 639 -345 l 1,12,-1
 636 815 l 1,13,-1
 249 815 l 2,14,15
 180 815 180 815 144 856 c 128,-1,16
 108 897 108 897 108 963 c 0,17,18
 108 1057 108 1057 169 1127 c 1,19,-1
 195 1127 l 1,20,21
 210 1057 210 1057 302 1057 c 2,22,-1
 663 1056 l 2,23,24
 790 1056 790 1056 790 946 c 2,25,-1
 790 915 l 2,26,27
 790 872 790 872 769 848 c 1,28,-1
 737 800 l 2,0,1
EndSplineSet
Validated: 1
PairPos2: "kerning-2" ayin.wide dx=-46 dy=0 dh=-46 dv=0 [ddx={} ddy={} ddh={} ddv={}] dx=0 dy=0 dh=0 dv=0 [ddx={} ddy={} ddh={} ddv={}]
PairPos2: "kerning-2" bet dx=-53 dy=0 dh=-53 dv=0 [ddx={} ddy={} ddh={} ddv={}] dx=0 dy=0 dh=0 dv=0 [ddx={} ddy={} ddh={} ddv={}]
PairPos2: "kerning-2" gimel dx=-133 dy=0 dh=-133 dv=0 [ddx={} ddy={} ddh={} ddv={}] dx=0 dy=0 dh=0 dv=0 [ddx={} ddy={} ddh={} ddv={}]
PairPos2: "kerning-2" kaf dx=-45 dy=0 dh=-45 dv=0 [ddx={} ddy={} ddh={} ddv={}] dx=0 dy=0 dh=0 dv=0 [ddx={} ddy={} ddh={} ddv={}]
PairPos2: "kerning-2" mem dx=-90 dy=0 dh=-90 dv=0 [ddx={} ddy={} ddh={} ddv={}] dx=0 dy=0 dh=0 dv=0 [ddx={} ddy={} ddh={} ddv={}]
PairPos2: "kerning-2" pe dx=-52 dy=0 dh=-52 dv=0 [ddx={} ddy={} ddh={} ddv={}] dx=0 dy=0 dh=0 dv=0 [ddx={} ddy={} ddh={} ddv={}]
PairPos2: "kerning-2" samekh dx=-30 dy=0 dh=-30 dv=0 [ddx={} ddy={} ddh={} ddv={}] dx=0 dy=0 dh=0 dv=0 [ddx={} ddy={} ddh={} ddv={}]
EndChar
StartChar: kaf
Encoding: 102 1499 66
Width: 942
GlyphClass: 2
Flags: W
AnchorPoint: "Top" 507 1317 basechar 0
AnchorPoint: "Holam" 227 1300 basechar 0
AnchorPoint: "Dagesh" 503 538 basechar 0
AnchorPoint: "Bottom Narrow Point" 500 0 basechar 0
AnchorPoint: "Bottom Regular Point" 500 0 basechar 0
AnchorPoint: "Bottom Wide Point" 500 0 basechar 0
LayerCount: 2
Fore
SplineSet
774 507 m 2,0,1
 774 507 774 507 774 517 c 0,2,3
 774 596 774 596 766 646.5 c 128,-1,4
 758 697 758 697 736.5 737.5 c 128,-1,5
 715 778 715 778 673.5 796 c 128,-1,6
 632 814 632 814 567 814 c 2,7,-1
 292 814 l 2,8,9
 224 814 224 814 190 854.5 c 128,-1,10
 156 895 156 895 156 962 c 0,11,12
 156 1056 156 1056 217 1126 c 1,13,-1
 243 1126 l 1,14,15
 259 1056 259 1056 343 1056 c 2,16,-1
 549 1056 l 2,17,18
 866 1056 866 1056 866 537 c 0,19,20
 866 413 866 413 854 325.5 c 128,-1,21
 842 238 842 238 818.5 185.5 c 128,-1,22
 795 133 795 133 769 104 c 128,-1,23
 743 75 743 75 705 54 c 0,24,25
 610 0 610 0 454 0 c 2,26,-1
 125 0 l 1,27,-1
 170 240 l 1,28,-1
 549 240 l 2,29,30
 670 240 670 240 722 300 c 128,-1,31
 774 360 774 360 774 507 c 2,0,1
EndSplineSet
Validated: 1
PairPos2: "kerning-2" ayin.wide dx=-123 dy=0 dh=-123 dv=0 dx=0 dy=0 dh=0 dv=0
PairPos2: "kerning-2" pe dx=-36 dy=0 dh=-36 dv=0 dx=0 dy=0 dh=0 dv=0
EndChar
StartChar: lamed
Encoding: 103 1500 67
Width: 901
GlyphClass: 2
Flags: W
AnchorPoint: "Top" 467 1507 basechar 0
AnchorPoint: "Dagesh" 433 538 basechar 0
AnchorPoint: "Bottom Narrow Point" 490 0 basechar 0
AnchorPoint: "Bottom Regular Point" 500 0 basechar 0
AnchorPoint: "Bottom Wide Point" 500 0 basechar 0
LayerCount: 2
Fore
SplineSet
345 1056 m 2,0,-1
 671 1056 l 2,1,2
 763 1056 763 1056 814 1011 c 0,3,4
 863 965 863 965 863 791 c 2,5,-1
 863 683 l 2,6,7
 863 552 863 552 805 488 c 2,8,-1
 615 275 l 2,9,10
 546 198 546 198 546 124 c 0,11,12
 546 109 546 109 549.5 85.5 c 128,-1,13
 553 62 553 62 553 52 c 0,14,15
 553 -22 553 -22 486 -22 c 0,16,17
 453 -22 453 -22 430.5 10 c 128,-1,18
 408 42 408 42 408 84 c 0,19,20
 408 138 408 138 444.5 190.5 c 128,-1,21
 481 243 481 243 567 330 c 2,22,-1
 713 481 l 2,23,24
 775 546 775 546 775 647 c 2,25,-1
 775 707 l 2,26,27
 775 779 775 779 741.5 796.5 c 128,-1,28
 708 814 708 814 591 814 c 2,29,-1
 301 814 l 2,30,31
 225 814 225 814 184.5 858.5 c 128,-1,32
 144 903 144 903 144 975 c 0,33,34
 144 988 144 988 142 1022.5 c 128,-1,35
 140 1057 140 1057 140 1077 c 0,36,37
 140 1158 140 1158 165 1214 c 0,38,39
 210 1315 210 1315 295 1315 c 0,40,41
 342 1315 342 1315 442 1276.5 c 128,-1,42
 542 1238 542 1238 591 1238 c 0,43,44
 615 1238 615 1238 630.5 1262.5 c 128,-1,45
 646 1287 646 1287 652 1317 c 128,-1,46
 658 1347 658 1347 674 1371.5 c 128,-1,47
 690 1396 690 1396 716 1396 c 0,48,49
 753 1396 753 1396 789 1377 c 128,-1,50
 825 1358 825 1358 855 1358 c 1,51,-1
 855 1331 l 1,52,53
 830 1312 830 1312 822 1293 c 0,54,55
 817 1282 817 1282 809.5 1257 c 128,-1,56
 802 1232 802 1232 795 1217 c 128,-1,57
 788 1202 788 1202 775 1184.5 c 128,-1,58
 762 1167 762 1167 740.5 1158 c 128,-1,59
 719 1149 719 1149 689 1149 c 0,60,61
 618 1149 618 1149 545.5 1170.5 c 128,-1,62
 473 1192 473 1192 410.5 1213.5 c 128,-1,63
 348 1235 348 1235 300 1235 c 0,64,65
 268 1235 268 1235 248 1208 c 128,-1,66
 228 1181 228 1181 228 1145 c 0,67,68
 228 1056 228 1056 345 1056 c 2,0,-1
EndSplineSet
Validated: 1
PairPos2: "kerning-2" ayin.wide dx=-88 dy=0 dh=-88 dv=0 dx=0 dy=0 dh=0 dv=0
PairPos2: "kerning-2" bet dx=-86 dy=0 dh=-86 dv=0 dx=0 dy=0 dh=0 dv=0
PairPos2: "kerning-2" gimel dx=-142 dy=0 dh=-142 dv=0 dx=0 dy=0 dh=0 dv=0
PairPos2: "kerning-2" kaf dx=-91 dy=0 dh=-91 dv=0 dx=0 dy=0 dh=0 dv=0
PairPos2: "kerning-2" mem dx=-131 dy=0 dh=-131 dv=0 dx=0 dy=0 dh=0 dv=0
PairPos2: "kerning-2" pe dx=-98 dy=0 dh=-98 dv=0 dx=0 dy=0 dh=0 dv=0
PairPos2: "kerning-2" samekh dx=-78 dy=0 dh=-78 dv=0 dx=0 dy=0 dh=0 dv=0
EndChar
StartChar: finalmem
Encoding: 104 1501 69
Width: 1004
GlyphClass: 2
Flags: W
LayerCount: 2
Fore
SplineSet
172 0 m 1,0,-1
 172 537 l 2,1,2
 172 618 172 618 233 686 c 2,3,-1
 348 814 l 1,4,-1
 296 814 l 2,5,6
 226 814 226 814 189 854.5 c 128,-1,7
 152 895 152 895 152 962 c 0,8,9
 152 1057 152 1057 213 1124 c 1,10,-1
 239 1124 l 1,11,12
 255 1056 255 1056 334 1056 c 2,13,-1
 555 1056 l 2,14,15
 786 1056 786 1056 854 989 c 0,16,17
 922 921 922 921 922 698 c 2,18,-1
 922 0 l 1,19,-1
 172 0 l 1,0,-1
416 814 m 1,20,-1
 306 656 l 2,21,22
 262 593 262 593 262 501 c 2,23,-1
 262 240 l 1,24,-1
 836 240 l 1,25,-1
 836 474 l 2,26,27
 836 678 836 678 798 759 c 0,28,29
 780 794 780 794 741 804 c 128,-1,30
 702 814 702 814 625 814 c 2,31,-1
 416 814 l 1,20,-1
EndSplineSet
Validated: 1
PairPos2: "kerning-2" ayin.wide dx=-105 dy=0 dh=-105 dv=0 [ddx={} ddy={} ddh={} ddv={}] dx=0 dy=0 dh=0 dv=0 [ddx={} ddy={} ddh={} ddv={}]
EndChar
StartChar: mem
Encoding: 105 1502 69
Width: 1094
GlyphClass: 2
Flags: W
AnchorPoint: "Top" 637 1317 basechar 0
AnchorPoint: "Holam" 239 1300 basechar 0
AnchorPoint: "Dagesh" 683 538 basechar 0
AnchorPoint: "Bottom Narrow Point" 630 0 basechar 0
AnchorPoint: "Bottom Regular Point" 630 0 basechar 0
AnchorPoint: "Bottom Wide Point" 630 0 basechar 0
LayerCount: 2
Fore
SplineSet
681 1069 m 1,0,1
 770 1054 770 1054 835.5 1000 c 128,-1,2
 901 946 901 946 937 864 c 128,-1,3
 973 782 973 782 990 689.5 c 128,-1,4
 1007 597 1007 597 1007 490 c 0,5,6
 1007 352 1007 352 970 171 c 2,7,-1
 936 0 l 1,8,-1
 437 0 l 1,9,-1
 495 240 l 1,10,-1
 903 240 l 1,11,12
 916 290 916 290 919 334 c 128,-1,13
 922 378 922 378 922 468 c 2,14,-1
 922 471 l 2,15,16
 922 609 922 609 859 696 c 128,-1,17
 796 783 796 783 696 783 c 2,18,-1
 689 783 l 2,19,20
 516 783 516 783 400 610 c 0,21,22
 264 407 264 407 264 0 c 1,23,-1
 197 0 l 1,24,25
 197 18 197 18 195 47 c 128,-1,26
 193 76 193 76 193 87 c 0,27,28
 193 298 193 298 243 450.5 c 128,-1,29
 293 603 293 603 408 729 c 1,30,31
 413 759 413 759 413 771 c 0,32,33
 413 782 413 782 410.5 788 c 128,-1,34
 408 794 408 794 399.5 797.5 c 128,-1,35
 391 801 391 801 382.5 802.5 c 128,-1,36
 374 804 374 804 354.5 807 c 128,-1,37
 335 810 335 810 318 814 c 0,38,39
 258 827 258 827 222 875 c 128,-1,40
 186 923 186 923 186 979 c 0,41,42
 186 1062 186 1062 228 1135 c 1,43,-1
 255 1135 l 1,44,45
 273 1074 273 1074 332 1065 c 2,46,-1
 394 1056 l 2,47,48
 478 1044 478 1044 478 971 c 0,49,50
 478 953 478 953 473.5 925.5 c 128,-1,51
 469 898 469 898 469 886 c 0,52,53
 469 844 469 844 500 825 c 1,54,55
 681 926 681 926 681 1069 c 1,0,1
EndSplineSet
Validated: 1
PairPos2: "kerning-2" ayin.wide dx=-144 dy=0 dh=-144 dv=0 dx=0 dy=0 dh=0 dv=0
PairPos2: "kerning-2" mem dx=-32 dy=0 dh=-32 dv=0 dx=0 dy=0 dh=0 dv=0
PairPos2: "kerning-2" pe dx=-36 dy=0 dh=-36 dv=0 dx=0 dy=0 dh=0 dv=0
EndChar
StartChar: finalnun
Encoding: 106 1503 70
Width: 459
GlyphClass: 2
Flags: W
LayerCount: 2
Fore
SplineSet
243 542 m 2,0,1
 243 588 243 588 260.5 630 c 128,-1,2
 278 672 278 672 295.5 705 c 128,-1,3
 313 738 313 738 313 762 c 2,4,-1
 313 768 l 2,5,6
 313 794 313 794 303 804.5 c 128,-1,7
 293 815 293 815 252 815 c 0,8,9
 160 815 160 815 125 858 c 128,-1,10
 90 901 90 901 90 977 c 0,11,12
 90 1070 90 1070 144 1137 c 1,13,-1
 171 1137 l 2,14,15
 172 1134 172 1134 173.5 1122 c 128,-1,16
 175 1110 175 1110 176 1107 c 128,-1,17
 177 1104 177 1104 179 1095 c 128,-1,18
 181 1086 181 1086 182.5 1083.5 c 128,-1,19
 184 1081 184 1081 187.5 1074.5 c 128,-1,20
 191 1068 191 1068 194.5 1066 c 128,-1,21
 198 1064 198 1064 203.5 1061 c 128,-1,22
 209 1058 209 1058 216 1057 c 128,-1,23
 223 1056 223 1056 232 1056 c 2,24,-1
 256 1056 l 2,25,26
 331 1056 331 1056 370 1013 c 128,-1,27
 409 970 409 970 409 892 c 0,28,29
 409 864 409 864 390.5 811.5 c 128,-1,30
 372 759 372 759 353.5 684 c 128,-1,31
 335 609 335 609 335 524 c 0,32,33
 335 518 335 518 335.5 505 c 128,-1,34
 336 492 336 492 336 485 c 2,35,-1
 368 -88 l 2,36,37
 368 -95 368 -95 368.5 -108 c 128,-1,38
 369 -121 369 -121 369 -127 c 0,39,40
 369 -312 369 -312 262 -352 c 1,41,-1
 243 -345 l 1,42,-1
 243 542 l 2,0,1
EndSplineSet
Validated: 1
PairPos2: "kerning-2" ayin.wide dx=-39 dy=0 dh=-39 dv=0 dx=0 dy=0 dh=0 dv=0
EndChar
StartChar: nun
Encoding: 107 1504 72
Width: 614
GlyphClass: 2
Flags: W
AnchorPoint: "Top" 337 1317 basechar 0
AnchorPoint: "Holam" 54 1105 basechar 0
AnchorPoint: "Dagesh" 250 538 basechar 0
AnchorPoint: "Bottom Narrow Point" 300 0 basechar 0
AnchorPoint: "Bottom Regular Point" 300 0 basechar 0
AnchorPoint: "Bottom Wide Point" 300 0 basechar 0
LayerCount: 2
Fore
SplineSet
487 559 m 0,0,1
 487 457 487 457 518 315.5 c 128,-1,2
 549 174 549 174 549 130 c 0,3,4
 549 40 549 40 539 0 c 1,5,-1
 69 0 l 1,6,-1
 106 240 l 1,7,-1
 409 240 l 1,8,-1
 406 372 l 1,9,-1
 406 398 l 2,10,11
 406 450 406 450 415.5 561.5 c 128,-1,12
 425 673 425 673 425 723 c 2,13,-1
 425 730 l 2,14,15
 425 769 425 769 409 790 c 128,-1,16
 393 811 393 811 351 811 c 128,-1,17
 309 811 309 811 278 824 c 128,-1,18
 247 837 247 837 230.5 855 c 128,-1,19
 214 873 214 873 204.5 898.5 c 128,-1,20
 195 924 195 924 193 942 c 128,-1,21
 191 960 191 960 191 980 c 2,22,-1
 191 984 l 2,23,24
 191 1079 191 1079 252 1140 c 1,25,-1
 279 1140 l 1,26,27
 288 1090 288 1090 299 1078 c 0,28,29
 313 1062 313 1062 343 1062 c 2,30,-1
 387 1057 l 2,31,32
 523 1042 523 1042 523 919 c 0,33,34
 523 870 523 870 505 739 c 128,-1,35
 487 608 487 608 487 559 c 0,0,1
EndSplineSet
Validated: 1048577
PairPos2: "kerning-2" shin dx=-42 dy=0 dh=-42 dv=0 dx=0 dy=0 dh=0 dv=0
PairPos2: "kerning-2" lamed dx=-53 dy=0 dh=-53 dv=0 dx=0 dy=0 dh=0 dv=0
PairPos2: "kerning-2" finaltsadi dx=-54 dy=0 dh=-54 dv=0 dx=0 dy=0 dh=0 dv=0
PairPos2: "kerning-2" ayin.wide dx=-213 dy=0 dh=-213 dv=0 dx=0 dy=0 dh=0 dv=0
PairPos2: "kerning-2" ayin dx=-49 dy=0 dh=-49 dv=0 dx=0 dy=0 dh=0 dv=0
EndChar
StartChar: samekh
Encoding: 108 1505 72
Width: 1038
GlyphClass: 2
Flags: W
AnchorPoint: "Top" 567 1317 basechar 0
AnchorPoint: "Holam" 239 1300 basechar 0
AnchorPoint: "Dagesh" 573 538 basechar 0
AnchorPoint: "Bottom Narrow Point" 560 0 basechar 0
AnchorPoint: "Bottom Regular Point" 560 0 basechar 0
AnchorPoint: "Bottom Wide Point" 560 0 basechar 0
LayerCount: 2
Fore
SplineSet
962 537 m 0,0,1
 962 406 962 406 945.5 309.5 c 128,-1,2
 929 213 929 213 890 135.5 c 128,-1,3
 851 58 851 58 778.5 18 c 128,-1,4
 706 -22 706 -22 601 -22 c 2,5,-1
 564 -22 l 2,6,7
 474 -22 474 -22 399 17 c 128,-1,8
 324 56 324 56 276.5 120.5 c 128,-1,9
 229 185 229 185 202.5 266.5 c 128,-1,10
 176 348 176 348 176 436 c 0,11,12
 176 558 176 558 203 644.5 c 128,-1,13
 230 731 230 731 288 817 c 1,14,15
 238 817 238 817 207 867.5 c 128,-1,16
 176 918 176 918 176 962 c 0,17,18
 176 1055 176 1055 239 1126 c 1,19,-1
 265 1126 l 1,20,21
 282 1056 282 1056 364 1056 c 2,22,-1
 608 1056 l 2,23,24
 692 1056 692 1056 754 1031.5 c 128,-1,25
 816 1007 816 1007 864.5 950 c 128,-1,26
 913 893 913 893 937.5 789.5 c 128,-1,27
 962 686 962 686 962 537 c 0,0,1
872 502 m 0,28,29
 872 588 872 588 862.5 643 c 128,-1,30
 853 698 853 698 827 738.5 c 128,-1,31
 801 779 801 779 754.5 796.5 c 128,-1,32
 708 814 708 814 634 814 c 2,33,-1
 347 814 l 1,34,35
 305 743 305 743 287.5 674 c 128,-1,36
 270 605 270 605 270 517 c 0,37,38
 270 359 270 359 345 281.5 c 128,-1,39
 420 204 420 204 538 204 c 2,40,-1
 626 204 l 2,41,42
 750 204 750 204 811 276 c 128,-1,43
 872 348 872 348 872 502 c 0,28,29
EndSplineSet
Validated: 1048577
PairPos2: "kerning-2" ayin.wide dx=-131 dy=0 dh=-131 dv=0 dx=0 dy=0 dh=0 dv=0
EndChar
StartChar: ayin
Encoding: 109 1506 73
Width: 920
GlyphClass: 2
Flags: W
AnchorPoint: "Top" 447 1317 basechar 0
AnchorPoint: "Bottom Wide Point" 490 0 basechar 0
AnchorPoint: "Bottom Regular Point" 430 0 basechar 0
AnchorPoint: "Bottom Narrow Point" 490 0 basechar 0
AnchorPoint: "Holam" 130 1300 basechar 0
LayerCount: 2
Fore
SplineSet
693 282 m 0,0,1
 693 40 693 40 415 7 c 2,2,-1
 70 -33 l 1,3,-1
 114 202 l 1,4,-1
 368 230 l 1,5,6
 368 394 368 394 292 456 c 0,7,8
 240 499 240 499 227 533.5 c 128,-1,9
 214 568 214 568 214 645 c 0,10,11
 214 704 214 704 233 814 c 1,12,13
 157 828 157 828 117.5 868.5 c 128,-1,14
 78 909 78 909 78 967 c 0,15,16
 78 1052 78 1052 118 1131 c 1,17,-1
 145 1131 l 1,18,19
 163 1059 163 1059 231 1052 c 1,20,-1
 278 1052 l 2,21,22
 326 1052 326 1052 358.5 1010 c 128,-1,23
 391 968 391 968 391 908 c 0,24,25
 391 833 391 833 339 767 c 1,26,-1
 322 767 l 1,27,28
 316 796 316 796 306.5 805 c 128,-1,29
 297 814 297 814 274 814 c 1,30,31
 274 703 274 703 283 673 c 128,-1,32
 292 643 292 643 334 615 c 0,33,34
 374 589 374 589 390 572.5 c 128,-1,35
 406 556 406 556 415 525.5 c 128,-1,36
 424 495 424 495 424 438 c 2,37,-1
 424 240 l 1,38,-1
 486 248 l 2,39,40
 495 249 495 249 510 251 c 128,-1,41
 525 253 525 253 530.5 254 c 128,-1,42
 536 255 536 255 546.5 257.5 c 128,-1,43
 557 260 557 260 560 263 c 2,44,-1
 570 273 l 2,45,46
 577 280 577 280 580 288 c 128,-1,47
 583 296 583 296 588 309.5 c 128,-1,48
 593 323 593 323 597 339.5 c 128,-1,49
 601 356 601 356 606 379 c 0,50,51
 627 470 627 470 681 594.5 c 128,-1,52
 735 719 735 719 735 746 c 0,53,54
 735 804 735 804 684 814 c 0,55,56
 615 830 615 830 582.5 873.5 c 128,-1,57
 550 917 550 917 550 975 c 0,58,59
 550 1049 550 1049 599 1131 c 1,60,-1
 626 1131 l 1,61,62
 635 1090 635 1090 660 1073 c 0,63,64
 679 1061 679 1061 718 1052.5 c 128,-1,65
 757 1044 757 1044 787.5 1038.5 c 128,-1,66
 818 1033 818 1033 842 1007.5 c 128,-1,67
 866 982 866 982 866 937 c 0,68,69
 866 898 866 898 848 849 c 128,-1,70
 830 800 830 800 805 746 c 128,-1,71
 780 692 780 692 754.5 628 c 128,-1,72
 729 564 729 564 711 473 c 128,-1,73
 693 382 693 382 693 282 c 0,0,1
EndSplineSet
Validated: 1048577
PairPos2: "kerning-2" ayin.wide dx=-39 dy=0 dh=-39 dv=0 dx=0 dy=0 dh=0 dv=0
MultipleSubs2: "wide letters" ayin.wide
EndChar
StartChar: finalpe
Encoding: 110 1507 75
Width: 886
GlyphClass: 2
Flags: W
AnchorPoint: "Dagesh" 585 538 basechar 0
LayerCount: 2
Fore
SplineSet
408 390 m 0,0,1
 396 390 396 390 367.5 394.5 c 128,-1,2
 339 399 339 399 320 399 c 0,3,4
 248 399 248 399 206 346 c 1,5,-1
 173 346 l 1,6,7
 141 412 141 412 141 475 c 0,8,9
 141 649 141 649 262 814 c 1,10,11
 219 823 219 823 194.5 864.5 c 128,-1,12
 170 906 170 906 170 962 c 0,13,14
 170 1057 170 1057 233 1126 c 1,15,-1
 259 1126 l 1,16,17
 277 1056 277 1056 357 1056 c 2,18,-1
 508 1056 l 1,19,-1
 536 1056 l 2,20,21
 727 1056 727 1056 775 953 c 0,22,23
 811 879 811 879 811 725 c 1,24,-1
 831 275 l 1,25,26
 831 174 831 174 837 15.5 c 128,-1,27
 843 -143 843 -143 843 -201 c 0,28,29
 843 -277 843 -277 824 -303.5 c 128,-1,30
 805 -330 805 -330 752 -350 c 1,31,-1
 729 -342 l 1,32,-1
 729 495 l 2,33,34
 729 582 729 582 721.5 642.5 c 128,-1,35
 714 703 714 703 702.5 736.5 c 128,-1,36
 691 770 691 770 669.5 787.5 c 128,-1,37
 648 805 648 805 628 809.5 c 128,-1,38
 608 814 608 814 576 814 c 2,39,-1
 309 814 l 1,40,41
 283 772 283 772 273.5 756.5 c 128,-1,42
 264 741 264 741 255.5 717 c 128,-1,43
 247 693 247 693 247 671 c 0,44,45
 247 627 247 627 268.5 609.5 c 128,-1,46
 290 592 290 592 355 579 c 0,47,48
 442 564 442 564 442 496 c 2,49,-1
 442 428 l 2,50,51
 442 390 442 390 408 390 c 0,0,1
EndSplineSet
Validated: 1
PairPos2: "kerning-2" ayin.wide dx=-136 dy=0 dh=-136 dv=0 [ddx={} ddy={} ddh={} ddv={}] dx=0 dy=0 dh=0 dv=0 [ddx={} ddy={} ddh={} ddv={}]
PairPos2: "kerning-2" gimel dx=-58 dy=0 dh=-58 dv=0 [ddx={} ddy={} ddh={} ddv={}] dx=0 dy=0 dh=0 dv=0 [ddx={} ddy={} ddh={} ddv={}]
EndChar
StartChar: pe
Encoding: 111 1508 75
Width: 912
GlyphClass: 2
Flags: W
AnchorPoint: "Top" 497 1317 basechar 0
AnchorPoint: "Holam" 198 1300 basechar 0
AnchorPoint: "Dagesh" 572 538 basechar 0
AnchorPoint: "Bottom Narrow Point" 450 0 basechar 0
AnchorPoint: "Bottom Regular Point" 450 0 basechar 0
AnchorPoint: "Bottom Wide Point" 450 0 basechar 0
LayerCount: 2
Fore
SplineSet
382 459 m 0,0,1
 373 459 373 459 338 463 c 128,-1,2
 303 467 303 467 294 467 c 0,3,4
 221 467 221 467 180 414 c 1,5,-1
 148 414 l 1,6,7
 110 500 110 500 110 577 c 0,8,9
 110 658 110 658 130 711 c 128,-1,10
 150 764 150 764 204 814 c 1,11,-1
 164 859 l 2,12,13
 153 871 153 871 145.5 902 c 128,-1,14
 138 933 138 933 138 962 c 0,15,16
 138 1058 138 1058 199 1126 c 1,17,-1
 225 1126 l 1,18,19
 241 1056 241 1056 325 1056 c 2,20,-1
 515 1056 l 2,21,22
 828 1056 828 1056 828 537 c 0,23,24
 828 200 828 200 728 100 c 128,-1,25
 628 0 628 0 420 0 c 2,26,-1
 110 0 l 1,27,-1
 168 240 l 1,28,-1
 498 240 l 2,29,30
 547 240 547 240 580.5 244 c 128,-1,31
 614 248 614 248 649.5 263.5 c 128,-1,32
 685 279 685 279 706 306.5 c 128,-1,33
 727 334 727 334 741 383.5 c 128,-1,34
 755 433 755 433 755 503 c 0,35,36
 755 586 755 586 745 643.5 c 128,-1,37
 735 701 735 701 718.5 734 c 128,-1,38
 702 767 702 767 673 785 c 128,-1,39
 644 803 644 803 615.5 808.5 c 128,-1,40
 587 814 587 814 543 814 c 2,41,-1
 281 814 l 1,42,43
 216 773 216 773 216 708 c 0,44,45
 216 678 216 678 235.5 663.5 c 128,-1,46
 255 649 255 649 283.5 644.5 c 128,-1,47
 312 640 312 640 340 635.5 c 128,-1,48
 368 631 368 631 387.5 614.5 c 128,-1,49
 407 598 407 598 407 566 c 2,50,-1
 407 511 l 2,51,52
 407 459 407 459 382 459 c 0,0,1
EndSplineSet
Validated: 1048577
PairPos2: "kerning-2" ayin.wide dx=-103 dy=0 dh=-103 dv=0 dx=0 dy=0 dh=0 dv=0
EndChar
StartChar: finaltsadi
Encoding: 112 1509 76
Width: 990
GlyphClass: 2
Flags: W
AnchorPoint: "Dagesh" 535 769.1 basechar 0
AnchorPoint: "Bottom Wide Point" 600 0 basechar 0
AnchorPoint: "Bottom Regular Point" 600 0 basechar 0
AnchorPoint: "Bottom Narrow Point" 630 486 basechar 0
LayerCount: 2
Fore
SplineSet
887 754 m 1,0,-1
 870 754 l 1,1,2
 864 782 864 782 853 790 c 128,-1,3
 842 798 842 798 813 798 c 1,4,5
 726 731 726 731 675 678 c 2,6,-1
 586 587 l 2,7,8
 473 471 473 471 434 384 c 128,-1,9
 395 297 395 297 395 211 c 0,10,11
 395 157 395 157 409.5 28 c 128,-1,12
 424 -101 424 -101 424 -162 c 0,13,14
 424 -317 424 -317 323 -356 c 1,15,-1
 300 -348 l 1,16,-1
 279 475 l 1,17,-1
 279 479 l 2,18,19
 279 522 279 522 309 615.5 c 128,-1,20
 339 709 339 709 339 747 c 0,21,22
 339 789 339 789 297 806 c 1,23,24
 196 825 196 825 148.5 863 c 128,-1,25
 101 901 101 901 101 973 c 0,26,27
 101 1059 101 1059 147 1133 c 1,28,-1
 174 1133 l 1,29,30
 190 1070 190 1070 254 1063 c 2,31,-1
 318 1056 l 1,32,33
 387 1056 387 1056 423 1018.5 c 128,-1,34
 459 981 459 981 459 916 c 0,35,36
 459 860 459 860 401 719 c 0,37,38
 358 612 358 612 358 555 c 2,39,-1
 358 545 l 1,40,-1
 362 462 l 1,41,-1
 378 462 l 1,42,43
 561 675 561 675 749 810 c 1,44,45
 606 833 606 833 606 973 c 0,46,47
 606 1057 606 1057 652 1133 c 1,48,-1
 678 1133 l 1,49,50
 682 1101 682 1101 703.5 1082 c 128,-1,51
 725 1063 725 1063 762 1063 c 1,52,-1
 825 1056 l 1,53,54
 872 1045 872 1045 879.5 1042 c 128,-1,55
 887 1039 887 1039 909 1023 c 0,56,57
 947 995 947 995 947 924 c 0,58,59
 947 830 947 830 887 754 c 1,0,-1
EndSplineSet
Validated: 1048577
PairPos2: "kerning-2" ayin.wide dx=-52 dy=0 dh=-52 dv=0 dx=0 dy=0 dh=0 dv=0
PairPos2: "kerning-2" gimel dx=-51 dy=0 dh=-51 dv=0 dx=0 dy=0 dh=0 dv=0
PairPos2: "kerning-2" kaf dx=-34 dy=0 dh=-34 dv=0 dx=0 dy=0 dh=0 dv=0
PairPos2: "kerning-2" mem dx=-59 dy=0 dh=-59 dv=0 dx=0 dy=0 dh=0 dv=0
PairPos2: "kerning-2" pe dx=-41 dy=0 dh=-41 dv=0 dx=0 dy=0 dh=0 dv=0
EndChar
StartChar: tsadi
Encoding: 113 1510 78
Width: 968
GlyphClass: 2
Flags: W
AnchorPoint: "Top" 507 1317 basechar 0
AnchorPoint: "Holam" 172 1300 basechar 0
AnchorPoint: "Dagesh" 332 369 basechar 0
AnchorPoint: "Bottom Narrow Point" 500 0 basechar 0
AnchorPoint: "Bottom Regular Point" 500 0 basechar 0
AnchorPoint: "Bottom Wide Point" 500 0 basechar 0
LayerCount: 2
Fore
SplineSet
273 814 m 0,0,1
 199 814 199 814 162.5 857.5 c 128,-1,2
 126 901 126 901 126 971 c 0,3,4
 126 1064 126 1064 170 1135 c 1,5,-1
 197 1135 l 1,6,7
 214 1058 214 1058 279 1058 c 2,8,-1
 314 1056 l 2,9,10
 384 1056 384 1056 409.5 1026 c 128,-1,11
 435 996 435 996 435 920 c 0,12,13
 435 896 435 896 427 824 c 128,-1,14
 419 752 419 752 419 728 c 0,15,16
 419 648 419 648 475 601 c 2,17,-1
 570 522 l 1,18,19
 635 697 635 697 716 806 c 1,20,21
 606 831 606 831 606 971 c 0,22,23
 606 1054 606 1054 648 1135 c 1,24,-1
 676 1135 l 1,25,26
 686 1058 686 1058 764 1058 c 1,27,-1
 819 1054 l 2,28,29
 867 1054 867 1054 894.5 1011 c 128,-1,30
 922 968 922 968 922 906 c 0,31,32
 922 813 922 813 865 741 c 1,33,-1
 848 741 l 1,34,35
 844 759 844 759 842.5 765 c 128,-1,36
 841 771 841 771 835.5 781.5 c 128,-1,37
 830 792 830 792 821 795.5 c 128,-1,38
 812 799 812 799 798 799 c 0,39,40
 788 799 788 799 783 798 c 0,41,42
 734 751 734 751 700.5 676.5 c 128,-1,43
 667 602 667 602 667 535 c 0,44,45
 667 443 667 443 754 371 c 2,46,-1
 887 261 l 1,47,-1
 830 0 l 1,48,-1
 205 0 l 1,49,-1
 247 240 l 1,50,-1
 699 240 l 1,51,-1
 418 468 l 2,52,53
 356 518 356 518 356 580 c 2,54,-1
 356 583 l 1,55,-1
 361 727 l 1,56,-1
 361 734 l 2,57,58
 361 778 361 778 341 796 c 128,-1,59
 321 814 321 814 273 814 c 0,0,1
EndSplineSet
Validated: 1
PairPos2: "kerning-2" ayin.wide dx=-73 dy=0 dh=-73 dv=0 [ddx={} ddy={} ddh={} ddv={}] dx=0 dy=0 dh=0 dv=0 [ddx={} ddy={} ddh={} ddv={}]
PairPos2: "kerning-2" kaf dx=-53 dy=0 dh=-53 dv=0 [ddx={} ddy={} ddh={} ddv={}] dx=0 dy=0 dh=0 dv=0 [ddx={} ddy={} ddh={} ddv={}]
PairPos2: "kerning-2" mem dx=-72 dy=0 dh=-72 dv=0 [ddx={} ddy={} ddh={} ddv={}] dx=0 dy=0 dh=0 dv=0 [ddx={} ddy={} ddh={} ddv={}]
PairPos2: "kerning-2" pe dx=-60 dy=0 dh=-60 dv=0 [ddx={} ddy={} ddh={} ddv={}] dx=0 dy=0 dh=0 dv=0 [ddx={} ddy={} ddh={} ddv={}]
PairPos2: "kerning-2" samekh dx=-42 dy=0 dh=-42 dv=0 [ddx={} ddy={} ddh={} ddv={}] dx=0 dy=0 dh=0 dv=0 [ddx={} ddy={} ddh={} ddv={}]
EndChar
StartChar: qof
Encoding: 114 1511 79
Width: 997
GlyphClass: 2
Flags: W
AnchorPoint: "Top" 507 1317 basechar 0
AnchorPoint: "Holam" 28 1105 basechar 0
AnchorPoint: "Dagesh" 503 538 basechar 0
AnchorPoint: "Bottom Narrow Point" 492 0 basechar 0
AnchorPoint: "Bottom Wide Point" 597 -2 basechar 0
AnchorPoint: "Bottom Regular Point" 602 2 basechar 0
LayerCount: 2
Fore
SplineSet
692 1056 m 2,0,1
 827 1056 827 1056 881.5 990.5 c 128,-1,2
 936 925 936 925 936 780 c 2,3,-1
 936 683 l 2,4,5
 936 572 936 572 912.5 514 c 128,-1,6
 889 456 889 456 830 416 c 2,7,-1
 610 270 l 2,8,9
 532 219 532 219 532 118 c 0,10,11
 532 113 532 113 533.5 88 c 128,-1,12
 535 63 535 63 535 47 c 0,13,14
 535 -22 535 -22 466 -22 c 0,15,16
 433 -22 433 -22 401 5 c 128,-1,17
 369 32 369 32 369 69 c 0,18,19
 369 146 369 146 423 208.5 c 128,-1,20
 477 271 477 271 578 338 c 2,21,-1
 769 466 l 2,22,23
 847 518 847 518 847 623 c 2,24,-1
 847 695 l 2,25,26
 847 767 847 767 813.5 790.5 c 128,-1,27
 780 814 780 814 681 814 c 2,28,-1
 309 814 l 2,29,30
 239 814 239 814 202.5 855 c 128,-1,31
 166 896 166 896 166 962 c 0,32,33
 166 1056 166 1056 227 1126 c 1,34,-1
 253 1126 l 1,35,36
 268 1056 268 1056 353 1056 c 2,37,-1
 692 1056 l 2,0,1
225 -345 m 1,38,-1
 204 -339 l 1,39,-1
 204 521 l 2,40,41
 204 608 204 608 276 671 c 1,42,-1
 312 677 l 1,43,-1
 312 -267 l 2,44,45
 312 -293 312 -293 225 -345 c 1,38,-1
EndSplineSet
EndChar
StartChar: resh
Encoding: 115 1512 79
Width: 883
GlyphClass: 2
Flags: W
AnchorPoint: "Top" 507 1317 basechar 0
AnchorPoint: "Holam" 171 1300 basechar 0
AnchorPoint: "Dagesh" 503 538 basechar 0
AnchorPoint: "Bottom Narrow Point" 783 0 basechar 0
AnchorPoint: "Bottom Wide Point" 546 0 basechar 0
AnchorPoint: "Bottom Regular Point" 737 0 basechar 0
LayerCount: 2
Fore
SplineSet
757 -19 m 1,0,-1
 736 -12 l 1,1,-1
 736 474 l 2,2,3
 736 638 736 638 719 696 c 128,-1,4
 702 754 702 754 642 787 c 0,5,6
 594 814 594 814 516 814 c 2,7,-1
 241 814 l 2,8,9
 172 814 172 814 135 855 c 128,-1,10
 98 896 98 896 98 962 c 0,11,12
 98 1056 98 1056 159 1126 c 1,13,-1
 185 1126 l 1,14,15
 202 1056 202 1056 285 1056 c 2,16,-1
 460 1056 l 2,17,18
 691 1056 691 1056 758 989 c 0,19,20
 827 923 827 923 827 698 c 2,21,-1
 827 80 l 2,22,23
 827 18 827 18 757 -19 c 1,0,-1
EndSplineSet
Validated: 1
PairPos2: "kerning-2" ayin.wide dx=-35 dy=0 dh=-35 dv=0 dx=0 dy=0 dh=0 dv=0
PairPos2: "kerning-2" bet dx=-39 dy=0 dh=-39 dv=0 dx=0 dy=0 dh=0 dv=0
PairPos2: "kerning-2" gimel dx=-124 dy=0 dh=-124 dv=0 dx=0 dy=0 dh=0 dv=0
PairPos2: "kerning-2" kaf dx=-30 dy=0 dh=-30 dv=0 dx=0 dy=0 dh=0 dv=0
PairPos2: "kerning-2" mem dx=-76 dy=0 dh=-76 dv=0 dx=0 dy=0 dh=0 dv=0
PairPos2: "kerning-2" pe dx=-37 dy=0 dh=-37 dv=0 dx=0 dy=0 dh=0 dv=0
EndChar
StartChar: shin
Encoding: 116 1513 80
Width: 1292
GlyphClass: 2
Flags: W
AnchorPoint: "Top" 697 1317 basechar 0
AnchorPoint: "Holam" 211 1300 basechar 0
AnchorPoint: "SinDot" 383 1300 basechar 0
AnchorPoint: "ShinDot" 1201 1300 basechar 0
AnchorPoint: "Dagesh" 805 538 basechar 0
AnchorPoint: "Bottom Narrow Point" 630 0 basechar 0
AnchorPoint: "Bottom Regular Point" 630 0 basechar 0
AnchorPoint: "Bottom Wide Point" 630 0 basechar 0
LayerCount: 2
Fore
SplineSet
897 0 m 1,0,-1
 338 0 l 1,1,2
 317 110 317 110 287 227.5 c 128,-1,3
 257 345 257 345 242 417.5 c 128,-1,4
 227 490 227 490 227 561 c 0,5,6
 227 700 227 700 262 804 c 1,7,8
 203 822 203 822 173 867 c 128,-1,9
 143 912 143 912 143 966 c 0,10,11
 143 1059 143 1059 193 1135 c 1,12,-1
 220 1135 l 1,13,14
 229 1101 229 1101 250.5 1084 c 128,-1,15
 272 1067 272 1067 339 1054 c 0,16,17
 383 1046 383 1046 409.5 1003.5 c 128,-1,18
 436 961 436 961 436 904 c 0,19,20
 436 821 436 821 382 754 c 1,21,-1
 365 754 l 1,22,23
 359 782 359 782 348 790 c 128,-1,24
 337 798 337 798 309 798 c 1,25,26
 292 720 292 720 292 594 c 0,27,28
 292 513 292 513 316 434 c 128,-1,29
 340 355 340 355 399 240 c 1,30,-1
 449 241 l 1,31,32
 519 370 519 370 571 501.5 c 128,-1,33
 623 633 623 633 673 817 c 1,34,35
 614 839 614 839 584.5 883 c 128,-1,36
 555 927 555 927 555 980 c 0,37,38
 555 1066 555 1066 606 1135 c 1,39,-1
 633 1135 l 1,40,41
 645 1079 645 1079 689 1068 c 2,42,-1
 752 1054 l 1,43,44
 810 1037 810 1037 831 1006 c 128,-1,45
 852 975 852 975 852 926 c 2,46,-1
 852 920 l 2,47,48
 852 844 852 844 786 760 c 1,49,-1
 769 760 l 1,50,51
 767 768 767 768 765.5 780 c 128,-1,52
 764 792 764 792 763 796 c 128,-1,53
 762 800 762 800 758.5 805.5 c 128,-1,54
 755 811 755 811 747 812.5 c 128,-1,55
 739 814 739 814 726 814 c 1,56,57
 689 645 689 645 643 514 c 128,-1,58
 597 383 597 383 525 240 c 1,59,-1
 843 240 l 1,60,61
 865 311 865 311 919 399.5 c 128,-1,62
 973 488 973 488 1087 648 c 0,63,64
 1091 654 1091 654 1097.5 663 c 128,-1,65
 1104 672 1104 672 1106.5 675 c 128,-1,66
 1109 678 1109 678 1113 684.5 c 128,-1,67
 1117 691 1117 691 1118.5 693.5 c 128,-1,68
 1120 696 1120 696 1122.5 701 c 128,-1,69
 1125 706 1125 706 1126 708 c 2,70,-1
 1127 716 l 2,71,72
 1128 721 1128 721 1128 725 c 2,73,-1
 1128 735 l 2,74,75
 1128 763 1128 763 1111 781.5 c 128,-1,76
 1094 800 1094 800 1070 810.5 c 128,-1,77
 1046 821 1046 821 1021.5 833.5 c 128,-1,78
 997 846 997 846 980 871.5 c 128,-1,79
 963 897 963 897 963 936 c 0,80,81
 963 983 963 983 982.5 1040 c 128,-1,82
 1002 1097 1002 1097 1031 1135 c 1,83,-1
 1057 1135 l 1,84,85
 1064 1088 1064 1088 1108 1071 c 2,86,-1
 1164 1052 l 2,87,88
 1259 1019 1259 1019 1259 915 c 0,89,90
 1259 864 1259 864 1231.5 802.5 c 128,-1,91
 1204 741 1204 741 1159.5 668 c 128,-1,92
 1115 595 1115 595 1067 507.5 c 128,-1,93
 1019 420 1019 420 971.5 286 c 128,-1,94
 924 152 924 152 897 0 c 1,0,-1
EndSplineSet
Validated: 1
PairPos2: "kerning-2" ayin.wide dx=-94 dy=0 dh=-94 dv=0 dx=0 dy=0 dh=0 dv=0
PairPos2: "kerning-2" gimel dx=-62 dy=0 dh=-62 dv=0 dx=0 dy=0 dh=0 dv=0
PairPos2: "kerning-2" mem dx=-43 dy=0 dh=-43 dv=0 dx=0 dy=0 dh=0 dv=0
PairPos2: "kerning-2" pe dx=-31 dy=0 dh=-31 dv=0 dx=0 dy=0 dh=0 dv=0
EndChar
StartChar: tav
Encoding: 117 1514 81
Width: 1026
GlyphClass: 2
Flags: W
AnchorPoint: "Top" 607 1317 basechar 0
AnchorPoint: "Holam" 260 1300 basechar 0
AnchorPoint: "Dagesh" 628 538 basechar 0
AnchorPoint: "Bottom Narrow Point" 600 0 basechar 0
AnchorPoint: "Bottom Regular Point" 600 0 basechar 0
AnchorPoint: "Bottom Wide Point" 600 0 basechar 0
LayerCount: 2
Fore
SplineSet
896 -17 m 1,0,-1
 875 -10 l 1,1,-1
 875 474 l 2,2,3
 875 586 875 586 866.5 643.5 c 128,-1,4
 858 701 858 701 844 724 c 128,-1,5
 830 747 830 747 796 776 c 0,6,7
 747 814 747 814 654 814 c 2,8,-1
 430 814 l 1,9,-1
 401 746 l 2,10,11
 339 598 339 598 339 519 c 0,12,13
 339 433 339 433 352 350 c 0,14,15
 387 179 387 179 387 125 c 2,16,-1
 387 118 l 1,17,-1
 381 0 l 1,18,-1
 90 0 l 1,19,-1
 132 240 l 1,20,-1
 258 240 l 1,21,-1
 252 400 l 1,22,-1
 252 428 l 2,23,24
 252 610 252 610 326 738 c 2,25,-1
 371 814 l 1,26,-1
 332 814 l 2,27,28
 259 814 259 814 225.5 854 c 128,-1,29
 192 894 192 894 192 962 c 0,30,31
 192 1057 192 1057 252 1126 c 1,32,-1
 281 1126 l 1,33,34
 299 1056 299 1056 381 1056 c 2,35,-1
 604 1056 l 2,36,37
 836 1056 836 1056 903 990 c 0,38,39
 970 923 970 923 970 698 c 2,40,-1
 970 107 l 2,41,42
 970 20 970 20 896 -17 c 1,0,-1
EndSplineSet
Validated: 1048577
PairPos2: "kerning-2" ayin dx=-41 dy=0 dh=-41 dv=0 dx=0 dy=0 dh=0 dv=0
PairPos2: "kerning-2" ayin.wide dx=-203 dy=0 dh=-203 dv=0 dx=0 dy=0 dh=0 dv=0
PairPos2: "kerning-2" finaltsadi dx=-42 dy=0 dh=-42 dv=0 dx=0 dy=0 dh=0 dv=0
EndChar
StartChar: geresh
Encoding: 118 1523 82
Width: 428
GlyphClass: 2
Flags: W
LayerCount: 2
Fore
SplineSet
241 802 m 2,0,-1
 148 623 l 1,1,-1
 107 623 l 1,2,-1
 115 907 l 1,3,4
 115 1096 115 1096 253 1096 c 0,5,6
 331 1096 331 1096 331 1014 c 0,7,8
 331 974 331 974 241 802 c 2,0,-1
EndSplineSet
Validated: 1
EndChar
StartChar: hyphennobreak
Encoding: 120 8209 94
Width: 701
Flags: W
LayerCount: 2
Fore
SplineSet
87 443 m 1,0,1
 83 519 83 519 87 596 c 1,2,-1
 608 596 l 1,3,4
 610 518 610 518 608 443 c 1,5,-1
 87 443 l 1,0,1
EndSplineSet
Validated: 33
EndChar
StartChar: endash
Encoding: 121 8211 99
Width: 1024
Flags: W
LayerCount: 2
Fore
SplineSet
34 463 m 1,0,1
 30 519 30 519 34 576 c 1,2,-1
 992 576 l 1,3,4
 994 518 994 518 992 463 c 1,5,-1
 34 463 l 1,0,1
EndSplineSet
Validated: 33
EndChar
StartChar: emdash
Encoding: 122 8212 100
Width: 2048
Flags: W
LayerCount: 2
Fore
SplineSet
54 463 m 1,0,1
 50 519 50 519 54 576 c 1,2,-1
 1996 576 l 1,3,4
 1998 518 1998 518 1996 463 c 1,5,-1
 54 463 l 1,0,1
EndSplineSet
Validated: 33
EndChar
StartChar: quoteleft
Encoding: 123 8216 95
Width: 416
Flags: W
LayerCount: 2
Fore
SplineSet
191 1062 m 1,0,1
 206 1076 206 1076 223.5 1082 c 128,-1,2
 241 1088 241 1088 258 1088 c 0,3,4
 278 1088 278 1088 296.5 1080 c 128,-1,5
 315 1072 315 1072 329.5 1057.5 c 128,-1,6
 344 1043 344 1043 352.5 1023.5 c 128,-1,7
 361 1004 361 1004 361 981 c 0,8,9
 361 954 361 954 350.5 931 c 128,-1,10
 340 908 340 908 322 891.5 c 128,-1,11
 304 875 304 875 280.5 865.5 c 128,-1,12
 257 856 257 856 230 856 c 0,13,14
 189 856 189 856 158 873 c 128,-1,15
 127 890 127 890 106.5 918.5 c 128,-1,16
 86 947 86 947 75.5 984 c 128,-1,17
 65 1021 65 1021 65 1061 c 0,18,19
 65 1116 65 1116 80.5 1169 c 128,-1,20
 96 1222 96 1222 128.5 1269.5 c 128,-1,21
 161 1317 161 1317 210.5 1356.5 c 128,-1,22
 260 1396 260 1396 328 1424 c 1,23,-1
 358 1372 l 1,24,25
 316 1354 316 1354 281.5 1328.5 c 128,-1,26
 247 1303 247 1303 222.5 1272.5 c 128,-1,27
 198 1242 198 1242 184.5 1208 c 128,-1,28
 171 1174 171 1174 171 1140 c 0,29,30
 171 1099 171 1099 191 1062 c 1,0,1
EndSplineSet
Validated: 1
EndChar
StartChar: quoteright
Encoding: 124 8217 96
Width: 416
Flags: W
LayerCount: 2
Fore
SplineSet
225 1198 m 1,0,1
 210 1184 210 1184 192.5 1178 c 128,-1,2
 175 1172 175 1172 158 1172 c 0,3,4
 138 1172 138 1172 119.5 1180 c 128,-1,5
 101 1188 101 1188 86.5 1202 c 128,-1,6
 72 1216 72 1216 63.5 1236 c 128,-1,7
 55 1256 55 1256 55 1279 c 0,8,9
 55 1306 55 1306 65.5 1329 c 128,-1,10
 76 1352 76 1352 94 1368.5 c 128,-1,11
 112 1385 112 1385 135.5 1394.5 c 128,-1,12
 159 1404 159 1404 186 1404 c 0,13,14
 227 1404 227 1404 258 1387 c 128,-1,15
 289 1370 289 1370 309.5 1341.5 c 128,-1,16
 330 1313 330 1313 340.5 1276 c 128,-1,17
 351 1239 351 1239 351 1199 c 0,18,19
 351 1144 351 1144 335.5 1091 c 128,-1,20
 320 1038 320 1038 287.5 990.5 c 128,-1,21
 255 943 255 943 205.5 903.5 c 128,-1,22
 156 864 156 864 88 836 c 1,23,-1
 58 888 l 1,24,25
 100 906 100 906 134.5 931.5 c 128,-1,26
 169 957 169 957 193.5 987.5 c 128,-1,27
 218 1018 218 1018 231.5 1051.5 c 128,-1,28
 245 1085 245 1085 245 1120 c 0,29,30
 245 1161 245 1161 225 1198 c 1,0,1
EndSplineSet
Validated: 1
EndChar
StartChar: quotedblleft
Encoding: 125 8220 98
Width: 786
Flags: W
LayerCount: 2
Fore
SplineSet
561 1062 m 5,0,1
 576 1076 576 1076 593.5 1082 c 132,-1,2
 611 1088 611 1088 628 1088 c 4,3,4
 648 1088 648 1088 666.5 1080 c 132,-1,5
 685 1072 685 1072 699.5 1057.5 c 132,-1,6
 714 1043 714 1043 722.5 1023.5 c 132,-1,7
 731 1004 731 1004 731 981 c 4,8,9
 731 954 731 954 720.5 931 c 132,-1,10
 710 908 710 908 692 891.5 c 132,-1,11
 674 875 674 875 650.5 865.5 c 132,-1,12
 627 856 627 856 600 856 c 4,13,14
 559 856 559 856 528 873 c 132,-1,15
 497 890 497 890 476.5 918.5 c 132,-1,16
 456 947 456 947 445.5 984 c 132,-1,17
 435 1021 435 1021 435 1061 c 4,18,19
 435 1116 435 1116 450.5 1169 c 132,-1,20
 466 1222 466 1222 498.5 1269.5 c 132,-1,21
 531 1317 531 1317 580.5 1356.5 c 132,-1,22
 630 1396 630 1396 698 1424 c 5,23,-1
 728 1372 l 5,24,25
 686 1354 686 1354 651.5 1328.5 c 132,-1,26
 617 1303 617 1303 592.5 1272.5 c 132,-1,27
 568 1242 568 1242 554.5 1208 c 132,-1,28
 541 1174 541 1174 541 1140 c 4,29,30
 541 1099 541 1099 561 1062 c 5,0,1
182 1062 m 5,31,32
 197 1076 197 1076 214.5 1082 c 132,-1,33
 232 1088 232 1088 249 1088 c 4,34,35
 269 1088 269 1088 287.5 1080 c 132,-1,36
 306 1072 306 1072 320.5 1057.5 c 132,-1,37
 335 1043 335 1043 343.5 1023.5 c 132,-1,38
 352 1004 352 1004 352 981 c 4,39,40
 352 954 352 954 341.5 931 c 132,-1,41
 331 908 331 908 313 891.5 c 132,-1,42
 295 875 295 875 271.5 865.5 c 132,-1,43
 248 856 248 856 221 856 c 4,44,45
 180 856 180 856 149 873 c 132,-1,46
 118 890 118 890 97.5 918.5 c 132,-1,47
 77 947 77 947 66.5 984 c 132,-1,48
 56 1021 56 1021 56 1061 c 4,49,50
 56 1116 56 1116 71.5 1169 c 132,-1,51
 87 1222 87 1222 119.5 1269.5 c 132,-1,52
 152 1317 152 1317 201.5 1356.5 c 132,-1,53
 251 1396 251 1396 319 1424 c 5,54,-1
 349 1372 l 5,55,56
 307 1354 307 1354 272.5 1328.5 c 132,-1,57
 238 1303 238 1303 213.5 1272.5 c 132,-1,58
 189 1242 189 1242 175.5 1208 c 132,-1,59
 162 1174 162 1174 162 1140 c 4,60,61
 162 1099 162 1099 182 1062 c 5,31,32
EndSplineSet
Validated: 1
EndChar
StartChar: quotedblright
Encoding: 126 8221 99
Width: 786
Flags: W
LayerCount: 2
Fore
SplineSet
605 1198 m 5,0,1
 590 1184 590 1184 572.5 1178 c 132,-1,2
 555 1172 555 1172 538 1172 c 4,3,4
 518 1172 518 1172 499.5 1180 c 132,-1,5
 481 1188 481 1188 466.5 1202 c 132,-1,6
 452 1216 452 1216 443.5 1236 c 132,-1,7
 435 1256 435 1256 435 1279 c 4,8,9
 435 1306 435 1306 445.5 1329 c 132,-1,10
 456 1352 456 1352 474 1368.5 c 132,-1,11
 492 1385 492 1385 515.5 1394.5 c 132,-1,12
 539 1404 539 1404 566 1404 c 4,13,14
 607 1404 607 1404 638 1387 c 132,-1,15
 669 1370 669 1370 689.5 1341.5 c 132,-1,16
 710 1313 710 1313 720.5 1276 c 132,-1,17
 731 1239 731 1239 731 1199 c 4,18,19
 731 1144 731 1144 715.5 1091 c 132,-1,20
 700 1038 700 1038 667.5 990.5 c 132,-1,21
 635 943 635 943 585.5 903.5 c 132,-1,22
 536 864 536 864 468 836 c 5,23,-1
 438 888 l 5,24,25
 480 906 480 906 514.5 931.5 c 132,-1,26
 549 957 549 957 573.5 987.5 c 132,-1,27
 598 1018 598 1018 611.5 1051.5 c 132,-1,28
 625 1085 625 1085 625 1120 c 4,29,30
 625 1161 625 1161 605 1198 c 5,0,1
225 1198 m 5,31,32
 210 1184 210 1184 192.5 1178 c 132,-1,33
 175 1172 175 1172 158 1172 c 4,34,35
 138 1172 138 1172 119.5 1180 c 132,-1,36
 101 1188 101 1188 86.5 1202 c 132,-1,37
 72 1216 72 1216 63.5 1236 c 132,-1,38
 55 1256 55 1256 55 1279 c 4,39,40
 55 1306 55 1306 65.5 1329 c 132,-1,41
 76 1352 76 1352 94 1368.5 c 132,-1,42
 112 1385 112 1385 135.5 1394.5 c 132,-1,43
 159 1404 159 1404 186 1404 c 4,44,45
 227 1404 227 1404 258 1387 c 132,-1,46
 289 1370 289 1370 309.5 1341.5 c 132,-1,47
 330 1313 330 1313 340.5 1276 c 132,-1,48
 351 1239 351 1239 351 1199 c 4,49,50
 351 1144 351 1144 335.5 1091 c 132,-1,51
 320 1038 320 1038 287.5 990.5 c 132,-1,52
 255 943 255 943 205.5 903.5 c 132,-1,53
 156 864 156 864 88 836 c 5,54,-1
 58 888 l 5,55,56
 100 906 100 906 134.5 931.5 c 132,-1,57
 169 957 169 957 193.5 987.5 c 132,-1,58
 218 1018 218 1018 231.5 1051.5 c 132,-1,59
 245 1085 245 1085 245 1120 c 4,60,61
 245 1161 245 1161 225 1198 c 5,31,32
EndSplineSet
Validated: 1
EndChar
StartChar: bullet
Encoding: 146 8226 146
Width: 1016
GlyphClass: 2
Flags: W
LayerCount: 2
Fore
SplineSet
163 567 m 1,0,1
 163 711 163 711 263.5 811.5 c 128,-1,2
 364 912 364 912 508 912 c 256,3,4
 652 912 652 912 752.5 811.5 c 128,-1,5
 853 711 853 711 853 567 c 256,6,7
 853 423 853 423 752.5 322.5 c 128,-1,8
 652 222 652 222 508 222 c 256,9,10
 364 222 364 222 263.5 322.5 c 128,-1,11
 163 423 163 423 163 567 c 1,12,-1
 163 567 l 1,0,1
EndSplineSet
Validated: 5
EndChar
StartChar: ellipsis
Encoding: 127 8230 102
Width: 1590
Flags: W
LayerCount: 2
Fore
SplineSet
150 117 m 5,0,1
 150 171 150 171 187.5 211.5 c 132,-1,2
 225 252 225 252 283 252 c 4,3,4
 343 252 343 252 381 211.5 c 132,-1,5
 419 171 419 171 419 117 c 260,6,7
 419 63 419 63 381 22.5 c 132,-1,8
 343 -18 343 -18 283 -18 c 4,9,10
 225 -18 225 -18 187.5 22.5 c 132,-1,11
 150 63 150 63 150 117 c 5,12,-1
 150 117 l 5,0,1
680 117 m 5,13,14
 680 171 680 171 717.5 211.5 c 132,-1,15
 755 252 755 252 813 252 c 4,16,17
 873 252 873 252 911 211.5 c 132,-1,18
 949 171 949 171 949 117 c 260,19,20
 949 63 949 63 911 22.5 c 132,-1,21
 873 -18 873 -18 813 -18 c 4,22,23
 755 -18 755 -18 717.5 22.5 c 132,-1,24
 680 63 680 63 680 117 c 5,25,-1
 680 117 l 5,13,14
1210 117 m 5,26,27
 1210 171 1210 171 1247.5 211.5 c 132,-1,28
 1285 252 1285 252 1343 252 c 4,29,30
 1403 252 1403 252 1441 211.5 c 132,-1,31
 1479 171 1479 171 1479 117 c 260,32,33
 1479 63 1479 63 1441 22.5 c 132,-1,34
 1403 -18 1403 -18 1343 -18 c 4,35,36
 1285 -18 1285 -18 1247.5 22.5 c 132,-1,37
 1210 63 1210 63 1210 117 c 5,38,-1
 1210 117 l 5,26,27
EndSplineSet
Validated: 5
EndChar
StartChar: overline
Encoding: 147 8254 149
Width: 0
GlyphClass: 4
Flags: W
AnchorPoint: "Top" 4 1269 mark 0
LayerCount: 2
Fore
SplineSet
155 1224 m 5,0,-1
 -155 1224 l 5,1,-1
 -155 1318 l 5,2,-1
 155 1318 l 5,3,-1
 155 1224 l 5,0,-1
EndSplineSet
Validated: 1
EndChar
StartChar: ayinaltonehebrew
Encoding: 128 64288 85
Width: 920
GlyphClass: 2
Flags: W
LayerCount: 2
Fore
SplineSet
693 282 m 0,0,1
 693 12.6405797101 693 12.6405797101 415 7 c 2,2,-1
 70 0 l 1,3,-1
 117 236 l 5,4,-1
 368 236 l 1,5,6
 368 394 368 394 292 456 c 0,7,8
 240 499 240 499 227 533.5 c 128,-1,9
 214 568 214 568 214 645 c 0,10,11
 214 704 214 704 233 814 c 1,12,13
 157 828 157 828 117.5 868.5 c 128,-1,14
 78 909 78 909 78 967 c 0,15,16
 78 1052 78 1052 118 1131 c 1,17,-1
 145 1131 l 1,18,19
 163 1059 163 1059 231 1052 c 1,20,-1
 278 1052 l 2,21,22
 326 1052 326 1052 358.5 1010 c 128,-1,23
 391 968 391 968 391 908 c 0,24,25
 391 833 391 833 339 767 c 1,26,-1
 322 767 l 1,27,28
 316 796 316 796 306.5 805 c 128,-1,29
 297 814 297 814 274 814 c 1,30,31
 274 703 274 703 283 673 c 128,-1,32
 292 643 292 643 334 615 c 0,33,34
 374 589 374 589 390 572.5 c 128,-1,35
 406 556 406 556 415 525.5 c 128,-1,36
 424 495 424 495 424 438 c 2,37,-1
 424 239 l 1,38,-1
 486 248 l 2,39,40
 495 249 495 249 510 251 c 128,-1,41
 525 253 525 253 530.5 254 c 128,-1,42
 536 255 536 255 546.5 257.5 c 128,-1,43
 557 260 557 260 560 263 c 2,44,-1
 570 273 l 2,45,46
 577 280 577 280 580 288 c 128,-1,47
 583 296 583 296 588 309.5 c 128,-1,48
 593 323 593 323 597 339.5 c 128,-1,49
 601 356 601 356 606 379 c 0,50,51
 627 470 627 470 681 594.5 c 128,-1,52
 735 719 735 719 735 746 c 0,53,54
 735 803 735 803 684 814 c 0,55,56
 616 829 616 829 582.5 873.5 c 0,57,58
 550 917 550 917 550 975 c 0,59,60
 550 1049 550 1049 599 1131 c 1,61,-1
 626 1131 l 1,62,63
 635 1090 635 1090 660 1073 c 0,64,65
 679 1061 679 1061 718 1052.5 c 128,-1,66
 757 1044 757 1044 787.5 1038.5 c 128,-1,67
 818 1033 818 1033 842 1007.5 c 128,-1,68
 866 982 866 982 866 937 c 0,69,70
 866 898 866 898 848 849 c 128,-1,71
 830 800 830 800 805 746 c 128,-1,72
 780 692 780 692 754.5 628 c 128,-1,73
 729 564 729 564 711 473 c 128,-1,74
 693 382 693 382 693 282 c 0,0,1
EndSplineSet
Validated: 1
EndChar
StartChar: aleph.wide
Encoding: 129 64289 86
Width: 1558
GlyphClass: 2
Flags: W
LayerCount: 2
Fore
SplineSet
253 96 m 0,0,1
 253 124 253 124 206.5 230.5 c 128,-1,2
 160 337 160 337 160 384 c 0,3,4
 160 528 160 528 393 672 c 1,5,-1
 253 790 l 1,6,7
 174 880 174 880 174 973 c 0,8,9
 174 1058 174 1058 245 1135 c 1,10,-1
 271 1135 l 1,11,12
 271 1054 271 1054 323 995 c 1,13,14
 615 623 615 623 1236 376 c 1,15,16
 1196 472 1196 472 1196 562 c 0,17,18
 1196 638 1196 638 1221 697.5 c 128,-1,19
 1246 757 1246 757 1304 819 c 1,20,21
 1228 831 1228 831 1190.5 879 c 128,-1,22
 1153 927 1153 927 1153 997 c 0,23,24
 1153 1073 1153 1073 1196 1135 c 1,25,-1
 1220 1135 l 1,26,27
 1237 1073 1237 1073 1298 1058 c 2,28,-1
 1384 1038 l 2,29,30
 1498 1011 1498 1011 1498 911 c 0,31,32
 1498 876 1498 876 1480 822 c 1,33,34
 1449 812 1449 812 1370 812 c 1,35,36
 1274 663 1274 663 1274 562 c 0,37,38
 1274 486 1274 486 1328 424 c 2,39,-1
 1421 317 l 2,40,41
 1500 229 1500 229 1500 133 c 0,42,43
 1500 46 1500 46 1429 -18 c 1,44,-1
 1402 -18 l 1,45,46
 1402 52 1402 52 1350 111 c 1,47,48
 886 324 886 324 432 630 c 1,49,50
 302 553 302 553 302 465 c 0,51,52
 302 424 302 424 326 372.5 c 128,-1,53
 350 321 350 321 379 280.5 c 128,-1,54
 408 240 408 240 432 188.5 c 128,-1,55
 456 137 456 137 456 96 c 0,56,57
 456 0 456 0 382 0 c 2,58,-1
 193 0 l 1,59,-1
 193 27 l 1,60,61
 253 44 253 44 253 96 c 0,0,1
EndSplineSet
Validated: 1
EndChar
StartChar: uniFB22
Encoding: 130 64290 87
Width: 1489
GlyphClass: 2
Flags: W
LayerCount: 2
Fore
SplineSet
1281 596 m 0,0,1
 1281 539 1281 539 1292 385 c 128,-1,2
 1303 231 1303 231 1303 175 c 0,3,4
 1303 -1 1303 -1 1158 -25 c 1,5,-1
 1141 0 l 1,6,7
 1167 38 1167 38 1167 101 c 0,8,9
 1167 170 1167 170 1162.5 274.5 c 128,-1,10
 1158 379 1158 379 1158 423 c 0,11,12
 1158 569 1158 569 1189.5 659 c 128,-1,13
 1221 749 1221 749 1305 815 c 1,14,-1
 228 815 l 2,15,16
 156 815 156 815 128 853.5 c 128,-1,17
 100 892 100 892 100 962 c 0,18,19
 100 1061 100 1061 161 1126 c 1,20,-1
 187 1126 l 1,21,22
 203 1056 203 1056 287 1056 c 2,23,-1
 1311 1056 l 2,24,25
 1381 1056 1381 1056 1407.5 1030 c 128,-1,26
 1434 1004 1434 1004 1434 937 c 0,27,28
 1434 892 1434 892 1424 866 c 128,-1,29
 1414 840 1414 840 1399.5 829.5 c 128,-1,30
 1385 819 1385 819 1360 794.5 c 128,-1,31
 1335 770 1335 770 1315 736 c 0,32,33
 1281 678 1281 678 1281 596 c 0,0,1
EndSplineSet
Validated: 1
EndChar
StartChar: uniFB23
Encoding: 131 64291 87
Width: 1631
GlyphClass: 2
Flags: W
LayerCount: 2
Fore
SplineSet
1481 604 m 0,0,1
 1481 542 1481 542 1504 392 c 128,-1,2
 1527 242 1527 242 1527 172 c 0,3,4
 1527 -6 1527 -6 1385 -28 c 1,5,-1
 1369 -7 l 1,6,7
 1395 37 1395 37 1395 98 c 0,8,9
 1395 141 1395 141 1387 275.5 c 128,-1,10
 1379 410 1379 410 1379 453 c 0,11,12
 1379 581 1379 581 1400 664.5 c 128,-1,13
 1421 748 1421 748 1476 815 c 1,14,-1
 343 815 l 2,15,16
 210 815 210 815 210 962 c 0,17,18
 210 1059 210 1059 272 1126 c 1,19,-1
 298 1126 l 1,20,21
 315 1053 315 1053 392 1053 c 2,22,-1
 1425 1053 l 2,23,24
 1503 1053 1503 1053 1529 1025.5 c 128,-1,25
 1555 998 1555 998 1555 934 c 2,26,-1
 1555 885 l 2,27,28
 1555 859 1555 859 1543.5 834.5 c 128,-1,29
 1532 810 1532 810 1518 790 c 128,-1,30
 1504 770 1504 770 1492.5 721.5 c 128,-1,31
 1481 673 1481 673 1481 604 c 0,0,1
352 294 m 0,32,33
 352 274 352 274 356 196.5 c 128,-1,34
 360 119 360 119 360 99 c 0,35,36
 360 37 360 37 322 2.5 c 128,-1,37
 284 -32 284 -32 210 -32 c 1,38,-1
 196 -10 l 1,39,40
 222 18 222 18 222 63 c 0,41,42
 222 105 222 105 219 171 c 128,-1,43
 216 237 216 237 216 251 c 0,44,45
 216 358 216 358 256.5 422 c 128,-1,46
 297 486 297 486 370 486 c 0,47,48
 390 486 390 486 404 478 c 1,49,-1
 404 451 l 1,50,51
 381 436 381 436 366.5 391 c 128,-1,52
 352 346 352 346 352 294 c 0,32,33
EndSplineSet
Validated: 1
EndChar
StartChar: kaf.wide
Encoding: 132 64292 88
Width: 1442
GlyphClass: 2
Flags: W
LayerCount: 2
Fore
SplineSet
1289 503 m 2,0,-1
 1289 511 l 2,1,2
 1289 590 1289 590 1280.5 642.5 c 128,-1,3
 1272 695 1272 695 1248.5 735.5 c 128,-1,4
 1225 776 1225 776 1182.5 795 c 128,-1,5
 1140 814 1140 814 1074 814 c 2,6,-1
 299 814 l 2,7,8
 231 814 231 814 193.5 855.5 c 128,-1,9
 156 897 156 897 156 962 c 0,10,11
 156 1054 156 1054 217 1126 c 1,12,-1
 243 1126 l 1,13,14
 259 1056 259 1056 343 1056 c 2,15,-1
 1049 1056 l 2,16,17
 1366 1056 1366 1056 1366 537 c 0,18,19
 1366 413 1366 413 1354 325.5 c 128,-1,20
 1342 238 1342 238 1318.5 185.5 c 128,-1,21
 1295 133 1295 133 1269 104 c 128,-1,22
 1243 75 1243 75 1205 54 c 0,23,24
 1110 0 1110 0 954 0 c 2,25,-1
 125 0 l 1,26,-1
 209 240 l 1,27,-1
 1067 240 l 2,28,29
 1188 240 1188 240 1238.5 298 c 128,-1,30
 1289 356 1289 356 1289 503 c 2,0,-1
EndSplineSet
Validated: 1
EndChar
StartChar: uniFB25
Encoding: 133 64293 90
Width: 1408
GlyphClass: 2
Flags: W
LayerCount: 2
Fore
SplineSet
345 1061 m 2,0,-1
 1178 1061 l 2,1,2
 1270 1061 1270 1061 1321 1016 c 0,3,4
 1370 970 1370 970 1370 795 c 2,5,-1
 1370 688 l 2,6,7
 1370 557 1370 557 1312 493 c 2,8,-1
 1122 280 l 2,9,10
 1053 203 1053 203 1053 129 c 0,11,12
 1053 114 1053 114 1056.5 90.5 c 128,-1,13
 1060 67 1060 67 1060 57 c 0,14,15
 1060 -17 1060 -17 993 -17 c 0,16,17
 960 -17 960 -17 937.5 15 c 128,-1,18
 915 47 915 47 915 89 c 0,19,20
 915 143 915 143 951.5 195.5 c 128,-1,21
 988 248 988 248 1074 335 c 2,22,-1
 1220 486 l 2,23,24
 1282 551 1282 551 1282 652 c 2,25,-1
 1282 712 l 2,26,27
 1282 784 1282 784 1248.5 801.5 c 128,-1,28
 1215 819 1215 819 1098 819 c 2,29,-1
 301 819 l 2,30,31
 225 819 225 819 184.5 862 c 128,-1,32
 144 905 144 905 144 977 c 0,33,34
 144 990 144 990 142 1024.5 c 128,-1,35
 140 1059 140 1059 140 1079 c 0,36,37
 140 1160 140 1160 165 1216 c 0,38,39
 210 1317 210 1317 295 1317 c 0,40,41
 430 1317 430 1317 571.5 1290 c 128,-1,42
 713 1263 713 1263 825 1236 c 128,-1,43
 937 1209 937 1209 999 1209 c 0,44,45
 1023 1209 1023 1209 1038.5 1233.5 c 128,-1,46
 1054 1258 1054 1258 1060 1288 c 128,-1,47
 1066 1318 1066 1318 1082 1342.5 c 128,-1,48
 1098 1367 1098 1367 1124 1367 c 0,49,50
 1161 1367 1161 1367 1197 1348 c 128,-1,51
 1233 1329 1233 1329 1263 1329 c 1,52,-1
 1263 1302 l 1,53,54
 1238 1283 1238 1283 1230 1264 c 0,55,56
 1225 1253 1225 1253 1217.5 1228 c 128,-1,57
 1210 1203 1210 1203 1203 1188 c 128,-1,58
 1196 1173 1196 1173 1183 1155.5 c 128,-1,59
 1170 1138 1170 1138 1148.5 1129 c 128,-1,60
 1127 1120 1127 1120 1097 1120 c 0,61,62
 1013 1120 1013 1120 910 1138.5 c 128,-1,63
 807 1157 807 1157 724 1178.5 c 128,-1,64
 641 1200 641 1200 524.5 1218.5 c 128,-1,65
 408 1237 408 1237 300 1237 c 0,66,67
 268 1237 268 1237 248 1210 c 128,-1,68
 228 1183 228 1183 228 1147 c 0,69,70
 228 1061 228 1061 345 1061 c 2,0,-1
EndSplineSet
Validated: 1
EndChar
StartChar: uniFB26
Encoding: 134 64294 91
Width: 1566
GlyphClass: 2
Flags: W
LayerCount: 2
Fore
SplineSet
172 0 m 1,0,-1
 172 539 l 2,1,2
 172 620 172 620 233 688 c 2,3,-1
 361 836 l 1,4,-1
 297 836 l 2,5,6
 152 836 152 836 152 964 c 0,7,8
 152 1059 152 1059 213 1126 c 1,9,-1
 239 1126 l 1,10,11
 255 1056 255 1056 334 1056 c 2,12,-1
 1113 1056 l 2,13,14
 1344 1056 1344 1056 1411 989 c 0,15,16
 1480 922 1480 922 1480 698 c 2,17,-1
 1480 0 l 1,18,-1
 172 0 l 1,0,-1
412 814 m 1,19,-1
 306 658 l 2,20,21
 262 593 262 593 262 503 c 2,22,-1
 262 240 l 1,23,-1
 1395 240 l 1,24,-1
 1395 474 l 2,25,26
 1395 677 1395 677 1355 759 c 0,27,28
 1338 794 1338 794 1293.5 804 c 128,-1,29
 1249 814 1249 814 1169 814 c 2,30,-1
 412 814 l 1,19,-1
EndSplineSet
Validated: 1
EndChar
StartChar: uniFB27
Encoding: 135 64295 92
Width: 1438
GlyphClass: 2
Flags: W
LayerCount: 2
Fore
SplineSet
1309 -19 m 1,0,-1
 1288 -12 l 1,1,-1
 1288 474 l 2,2,3
 1288 638 1288 638 1271.5 697 c 128,-1,4
 1255 756 1255 756 1195 788 c 0,5,6
 1144 815 1144 815 1068 815 c 2,7,-1
 241 815 l 2,8,9
 172 815 172 815 135 855.5 c 128,-1,10
 98 896 98 896 98 962 c 0,11,12
 98 1056 98 1056 159 1126 c 1,13,-1
 185 1126 l 1,14,15
 201 1056 201 1056 285 1056 c 2,16,-1
 1012 1056 l 2,17,18
 1243 1056 1243 1056 1310 989 c 0,19,20
 1379 922 1379 922 1379 698 c 2,21,-1
 1379 80 l 2,22,23
 1379 18 1379 18 1309 -19 c 1,0,-1
EndSplineSet
Validated: 1
EndChar
StartChar: uniFB28
Encoding: 136 64296 93
Width: 1614
GlyphClass: 2
Flags: W
LayerCount: 2
Fore
SplineSet
1481 -16 m 1,0,-1
 1460 -9 l 1,1,-1
 1460 475 l 2,2,3
 1460 590 1460 590 1453.5 645 c 128,-1,4
 1447 700 1447 700 1433.5 724.5 c 128,-1,5
 1420 749 1420 749 1387 777 c 0,6,7
 1341 814 1341 814 1246 814 c 2,8,-1
 437 814 l 1,9,-1
 401 746 l 2,10,11
 339 627 339 627 339 519 c 0,12,13
 339 517 339 517 338.5 510.5 c 128,-1,14
 338 504 338 504 338 500 c 0,15,16
 338 442 338 442 352 350 c 1,17,18
 387 172 387 172 387 125 c 2,19,-1
 387 118 l 1,20,-1
 387 0 l 1,21,-1
 90 0 l 1,22,-1
 143 240 l 1,23,-1
 261 240 l 1,24,-1
 251 400 l 1,25,-1
 251 433 l 2,26,27
 251 621 251 621 326 738 c 2,28,-1
 375 814 l 1,29,-1
 356 815 l 2,30,31
 336 816 336 816 336 814 c 1,32,33
 263 814 263 814 227.5 854.5 c 128,-1,34
 192 895 192 895 192 962 c 0,35,36
 192 1058 192 1058 254 1126 c 1,37,-1
 281 1126 l 1,38,39
 298 1057 298 1057 381 1057 c 2,40,-1
 1189 1057 l 2,41,42
 1420 1057 1420 1057 1487 991 c 0,43,44
 1555 923 1555 923 1555 699 c 2,45,-1
 1555 108 l 2,46,47
 1555 22 1555 22 1481 -16 c 1,0,-1
EndSplineSet
Validated: 1
EndChar
StartChar: uniFB29
Encoding: 137 64297 93
Width: 1038
GlyphClass: 2
Flags: W
LayerCount: 2
Fore
SplineSet
94 1258 m 0,0,1
 139 1361 139 1361 224 1361 c 0,2,3
 271 1361 271 1361 371 1322.5 c 128,-1,4
 471 1284 471 1284 520 1284 c 0,5,6
 544 1284 544 1284 559.5 1308.5 c 128,-1,7
 575 1333 575 1333 581 1363 c 128,-1,8
 587 1393 587 1393 603 1417.5 c 128,-1,9
 619 1442 619 1442 645 1442 c 0,10,11
 682 1442 682 1442 718 1423 c 128,-1,12
 754 1404 754 1404 784 1404 c 1,13,-1
 784 1377 l 1,14,15
 759 1358 759 1358 751 1339 c 0,16,17
 746 1328 746 1328 738.5 1303 c 128,-1,18
 731 1278 731 1278 724 1263 c 128,-1,19
 717 1248 717 1248 704 1230.5 c 128,-1,20
 691 1213 691 1213 669.5 1204 c 128,-1,21
 648 1195 648 1195 618 1195 c 0,22,23
 547 1195 547 1195 474.5 1216.5 c 128,-1,24
 402 1238 402 1238 339.5 1259.5 c 128,-1,25
 277 1281 277 1281 229 1281 c 0,26,27
 197 1281 197 1281 177 1254 c 128,-1,28
 157 1227 157 1227 157 1191 c 0,29,30
 157 1148 157 1148 178.5 1108.5 c 128,-1,31
 200 1069 200 1069 229 1069 c 2,32,-1
 277 1069 l 2,33,34
 323 1069 323 1069 374 1001 c 2,35,-1
 676 592 l 1,36,37
 681 638 681 638 684 658.5 c 128,-1,38
 687 679 687 679 704.5 730 c 128,-1,39
 722 781 722 781 752 833 c 1,40,41
 675 848 675 848 646.5 893 c 128,-1,42
 618 938 618 938 618 1011 c 0,43,44
 618 1090 618 1090 659 1149 c 1,45,-1
 686 1149 l 1,46,47
 693 1118 693 1118 723 1091 c 128,-1,48
 753 1064 753 1064 789 1064 c 0,49,50
 838 1064 838 1064 874 1049.5 c 128,-1,51
 910 1035 910 1035 928.5 1011.5 c 128,-1,52
 947 988 947 988 955 964.5 c 128,-1,53
 963 941 963 941 963 917 c 0,54,55
 963 825 963 825 904 749 c 1,56,-1
 885 749 l 1,57,-1
 885 774 l 1,58,-1
 885 786 l 2,59,60
 885 800 885 800 857.5 813 c 128,-1,61
 830 826 830 826 804 826 c 1,62,-1
 774 712 l 2,63,64
 772 703 772 703 762.5 672 c 128,-1,65
 753 641 753 641 749 618.5 c 128,-1,66
 745 596 745 596 745 573 c 0,67,68
 745 500 745 500 792 438 c 2,69,-1
 878 328 l 2,70,71
 963 219 963 219 963 147 c 0,72,73
 963 60 963 60 894 -4 c 1,74,-1
 867 -4 l 1,75,76
 867 49 867 49 815 121 c 2,77,-1
 411 682 l 1,78,-1
 330 771 l 1,79,80
 292 821 292 821 230 821 c 2,81,-1
 200 821 l 2,82,83
 151 821 151 821 127.5 863 c 128,-1,84
 104 905 104 905 86 989 c 0,85,86
 77 1032 77 1032 77 1108 c 0,87,88
 77 1218 77 1218 94 1258 c 0,0,1
EndSplineSet
Validated: 1
EndChar
StartChar: NameMe.142
Encoding: -1 -1 143
Width: 1065
GlyphClass: 4
Flags: W
AnchorPoint: "Bottom Wide Point" 860 0 basechar 0
AnchorPoint: "Bottom Regular Point" 860 0 basechar 0
AnchorPoint: "Bottom Narrow Point" 860 0 basechar 0
AnchorPoint: "Dagesh" 863 538 basechar 0
AnchorPoint: "Holam" 54 1105 basechar 0
LayerCount: 2
Fore
SplineSet
1473 607 m 0,0,1
 1473 550 1473 550 1496.5 396 c 128,-1,2
 1520 242 1520 242 1520 175 c 0,3,4
 1520 -4 1520 -4 1380 -25 c 1,5,-1
 1364 -4 l 1,6,7
 1390 36 1390 36 1390 101 c 0,8,9
 1390 145 1390 145 1382 279.5 c 128,-1,10
 1374 414 1374 414 1374 456 c 0,11,12
 1374 586 1374 586 1393.5 667 c 128,-1,13
 1413 748 1413 748 1468 814 c 1,14,-1
 402 814 l 1,15,16
 356 780 356 780 341 733.5 c 128,-1,17
 326 687 326 687 326 597 c 0,18,19
 326 534 326 534 346 394.5 c 128,-1,20
 366 255 366 255 366 191 c 0,21,22
 366 -4 366 -4 217 -25 c 1,23,-1
 204 -4 l 1,24,25
 235 45 235 45 235 140 c 2,26,-1
 235 173 l 1,27,-1
 220 426 l 1,28,-1
 220 481 l 2,29,30
 220 593 220 593 248 671.5 c 128,-1,31
 276 750 276 750 344 814 c 1,32,33
 253 814 253 814 222 850 c 128,-1,34
 191 886 191 886 191 962 c 0,35,36
 191 1061 191 1061 252 1126 c 1,37,-1
 279 1126 l 1,38,39
 296 1056 296 1056 378 1056 c 2,40,-1
 1421 1056 l 2,41,42
 1492 1056 1492 1056 1521 1031.5 c 128,-1,43
 1550 1007 1550 1007 1550 941 c 2,44,-1
 1550 937 l 2,45,46
 1550 886 1550 886 1538 848 c 128,-1,47
 1526 810 1526 810 1511.5 788.5 c 128,-1,48
 1497 767 1497 767 1485 720.5 c 128,-1,49
 1473 674 1473 674 1473 607 c 0,0,1
EndSplineSet
Validated: 1048577
EndChar
StartChar: ayin.wide
Encoding: 143 -1 143
Width: 1780
GlyphClass: 2
Flags: W
AnchorPoint: "Holam" 129 1300 basechar 0
AnchorPoint: "Bottom Narrow Point" 870 0 basechar 0
AnchorPoint: "Bottom Regular Point" 870 0 basechar 0
AnchorPoint: "Bottom Wide Point" 870 0 basechar 0
LayerCount: 2
Fore
SplineSet
110 0 m 9,0,-1
 1206 0 l 2,1,2
 1221.25 0 1221.25 0 1236.5 0 c 0,3,4
 1257 0 1257 0 1265 0 c 2,5,6
 1275 0 1275 0 1289 24 c 128,-1,7
 1303 48 1303 48 1308 61.5 c 0,8,9
 1316 84 1316 84 1317 87 c 0,10,-1
 1411 473 l 0,11,12
 1414 526 1414 526 1454.5 628 c 0,13,14
 1480 692 1480 692 1505 746 c 128,-1,15
 1530 800 1530 800 1548 849 c 128,-1,16
 1566 898 1566 898 1566 937 c 0,17,18
 1566 982 1566 982 1542 1007.5 c 128,-1,19
 1518 1033 1518 1033 1487.5 1038.5 c 128,-1,20
 1457 1044 1457 1044 1418 1052.5 c 128,-1,21
 1379 1061 1379 1061 1360 1073 c 0,22,23
 1335 1090 1335 1090 1326 1131 c 1,24,-1
 1299 1131 l 1,25,26
 1250 1049 1250 1049 1250 975 c 0,27,28
 1250 917 1250 917 1282.5 873.5 c 0,29,30
 1316 829 1316 829 1384 814 c 0,31,32
 1435 803 1435 803 1435 746 c 0,33,34
 1435 719 1435 719 1381 594.5 c 0,35,36
 1325 464 1325 464 1306 379 c 0,37,-1
 1297 341 l 0,38,-1
 1289 309.25 l 0,39,40
 1283 296 1283 296 1280 288 c 128,-1,41
 1277 280 1277 280 1270 273 c 2,42,-1
 1260 263 l 2,43,44
 1257 260 1257 260 1246.5 257.5 c 128,-1,45
 1236 255 1236 255 1230.5 254 c 128,-1,46
 1225 253 1225 253 1210 251 c 0,47,48
 1192 249 1192 249 1186 248 c 2,49,-1
 424 240 l 1,50,-1
 424 438 l 2,51,52
 424 495 424 495 415 525.5 c 128,-1,53
 406 556 406 556 390 572.5 c 128,-1,54
 374 589 374 589 334 615 c 0,55,56
 292 643 292 643 283 673 c 128,-1,57
 274 703 274 703 274 814 c 1,58,59
 297 814 297 814 306.5 805 c 128,-1,60
 316 796 316 796 322 767 c 1,61,-1
 339 767 l 1,62,63
 391 833 391 833 391 908 c 0,64,65
 391 968 391 968 358.5 1010 c 128,-1,66
 326 1052 326 1052 278 1052 c 2,67,-1
 231 1052 l 1,68,69
 163 1059 163 1059 145 1131 c 1,70,-1
 118 1131 l 1,71,72
 78 1052 78 1052 78 967 c 0,73,74
 78 909 78 909 117.5 868.5 c 128,-1,75
 157 828 157 828 233 814 c 1,76,77
 214 704 214 704 214 645 c 0,78,79
 214 568 214 568 227 533.5 c 128,-1,80
 240 499 240 499 292 456 c 0,81,82
 368 394 368 394 368 236 c 1,83,-1
 175 236 l 1,84,-1
 110 0 l 9,0,-1
464 -60 m 1025,85,-1
EndSplineSet
Validated: 9
PairPos2: "kerning-2" ayin.wide dx=-30 dy=0 dh=-30 dv=0 dx=0 dy=0 dh=0 dv=0
EndChar
StartChar: dageshhazak
Encoding: 141 -1 140
Width: 0
GlyphClass: 4
Flags: W
AnchorPoint: "Dagesh" 0 518 mark 0
LayerCount: 2
Fore
SplineSet
-81.5 612.200195312 m 25,0,-1
 -80.5 426.200195312 l 5,1,-1
 80.5 426.200195312 l 29,2,-1
 80.5 612.200195312 l 1,3,-1
 -81.5 612.200195312 l 25,0,-1
EndSplineSet
Validated: 1
Ligature2: "shva and dagesh" dagesh dagesh
EndChar
StartChar: het.wide
Encoding: 142 -1 144
Width: 1631
GlyphClass: 2
Flags: W
AnchorPoint: "Bottom Wide Point" 895 0 basechar 0
AnchorPoint: "Bottom Regular Point" 895 0 basechar 0
AnchorPoint: "Bottom Narrow Point" 895 0 basechar 0
AnchorPoint: "Dagesh" 898 538 basechar 0
AnchorPoint: "Holam" 253 1300 basechar 0
LayerCount: 2
Fore
SplineSet
1482 607 m 4,0,1
 1482 550 1482 550 1505.5 396 c 132,-1,2
 1529 242 1529 242 1529 175 c 4,3,4
 1529 -4 1529 -4 1389 -25 c 5,5,-1
 1373 -4 l 5,6,7
 1399 36 1399 36 1399 101 c 4,8,9
 1399 145 1399 145 1391 279.5 c 132,-1,10
 1383 414 1383 414 1383 456 c 4,11,12
 1383 586 1383 586 1402.5 667 c 132,-1,13
 1422 748 1422 748 1477 814 c 5,14,-1
 402 814 l 5,15,16
 356 780 356 780 341 733.5 c 132,-1,17
 326 687 326 687 326 597 c 4,18,19
 326 534 326 534 346 394.5 c 132,-1,20
 366 255 366 255 366 191 c 4,21,22
 366 -4 366 -4 217 -25 c 5,23,-1
 204 -4 l 5,24,25
 235 45 235 45 235 140 c 6,26,-1
 235 173 l 5,27,-1
 220 426 l 5,28,-1
 220 481 l 6,29,30
 220 593 220 593 248 671.5 c 132,-1,31
 276 750 276 750 344 814 c 5,32,33
 253 814 253 814 222 850 c 132,-1,34
 191 886 191 886 191 962 c 4,35,36
 191 1061 191 1061 252 1126 c 5,37,-1
 279 1126 l 5,38,39
 296 1056 296 1056 378 1056 c 6,40,-1
 1430 1056 l 6,41,42
 1501 1056 1501 1056 1530 1031.5 c 132,-1,43
 1559 1007 1559 1007 1559 941 c 6,44,-1
 1559 937 l 6,45,46
 1559 886 1559 886 1547 848 c 132,-1,47
 1535 810 1535 810 1520.5 788.5 c 132,-1,48
 1506 767 1506 767 1494 720.5 c 132,-1,49
 1482 674 1482 674 1482 607 c 4,0,1
EndSplineSet
Validated: 1
PairPos2: "kerning-2" ayin.wide dx=-142 dy=0 dh=-142 dv=0 [ddx={} ddy={} ddh={} ddv={}] dx=0 dy=0 dh=0 dv=0 [ddx={} ddy={} ddh={} ddv={}]
EndChar
StartChar: shevana
Encoding: 140 -1 139
Width: 0
GlyphClass: 4
Flags: W
AnchorPoint: "Bottom Narrow Point" 0 -6 mark 0
LayerCount: 2
Fore
SplineSet
-81.5 -422.799804688 m 25,0,-1
 -80.5 -608.799804688 l 1,1,-1
 80.5 -608.799804688 l 25,2,-1
 80.5 -422.799804688 l 1,3,-1
 -81.5 -422.799804688 l 25,0,-1
-81.5 -168.799804688 m 25,4,-1
 -80.5 -354.799804688 l 1,5,-1
 80.5 -354.799804688 l 25,6,-1
 80.5 -168.799804688 l 1,7,-1
 -81.5 -168.799804688 l 25,4,-1
EndSplineSet
Validated: 1
Ligature2: "shva and dagesh" sheva sheva
EndChar
